<svg xmlns="http://www.w3.org/2000/svg" x="0px" y="0px"	 width="50px" height="50px" viewBox="0 0 50 50">
<path fill="#FFFFFF" d="M34.98,12.24c-5.5-5.5-14.43-5.5-19.93,0s-5.5,14.43,0,19.93l8.75,8.77c0.65,0.65,1.7,0.66,2.35,0.01
c0,0,0.01-0.01,0.01-0.01l8.82-8.85C40.46,26.61,40.46,17.72,34.98,12.24z M32.6,29.71l-7.59,7.62l-7.59-7.62
c-4.19-4.19-4.19-10.99,0.01-15.18s10.99-4.19,15.18,0.01C36.79,18.74,36.79,25.52,32.6,29.71z M20.03,17.11
c-2.79,2.8-2.79,7.33,0,10.13c2.79,2.8,7.33,2.8,10.13,0.01c1.33-1.32,2.08-3.12,2.1-4.99c0.02-1.9-0.74-3.73-2.09-5.07
c-2.76-2.82-7.28-2.87-10.1-0.11C20.05,17.09,20.04,17.1,20.03,17.11z M27.82,24.88c-1.5,1.52-3.95,1.54-5.47,0.04
c-1.52-1.5-1.54-3.95-0.04-5.47c1.5-1.52,3.95-1.54,5.47-0.04c0.74,0.73,1.16,1.73,1.15,2.77c-0.02,1.03-0.45,2-1.2,2.71H27.82z"/>
</svg>
