<svg xmlns="http://www.w3.org/2000/svg" x="0px" y="0px"	 width="100px" height="100px" viewBox="0 0 100 100">
<path fill="#fff" d="M50,93c-1.7,0-3.4-0.3-5-1l-21.1-8.8c-3.2-1.3-5.8-3.9-7.1-7.1L8,55c-1.3-3.2-1.3-6.8,0-10l8.8-21.1 c1.3-3.2,3.9-5.8,7.1-7.1L45,8c3.2-1.3,6.8-1.3,10,0l21.1,8.8c3.2,1.3,5.8,3.9,7.1,7.1L92,45c1.3,3.2,1.3,6.8,0,10l-8.8,21.1 c-1.3,3.2-3.9,5.8-7.1,7.1L55,92C53.4,92.7,51.7,93,50,93z M50,8.8c-1.5,0-2.9,0.3-4.3,0.9l-21.1,8.8c-2.8,1.2-5,3.3-6.1,6.1 L9.7,45.7c-1.2,2.8-1.2,5.9,0,8.7l8.8,21.1c1.2,2.8,3.3,5,6.1,6.1l21.1,8.8c2.8,1.2,5.9,1.2,8.7,0l21.1-8.8c2.8-1.2,5-3.3,6.1-6.1 l8.8-21.1c1.2-2.8,1.2-5.9,0-8.7l-8.8-21.1c-1.2-2.8-3.3-5-6.1-6.1L54.3,9.7C52.9,9.1,51.5,8.8,50,8.8z M49.9,85.3 c-3.8,0.2-7.5-1.5-10.3-3.5c-3.6-2.3-6.9-5.1-9.8-8.3c-2.6-2.8-4.9-6-6.8-9.3c-1.8-3-3.6-6.2-4.6-9.8c-1.9-6.5-2.2-13.2-0.8-18.1 c1.6-5.8,5.9-11.1,13.2-16c14.9-10.3,32.8-7.9,44.6,5.8c2.8,3.1,5.3,7,7.3,10.8c10.9,16.4-4.3,31-14,39.6l0,0 C63.1,81.4,57.4,85.4,49.9,85.3z M50.5,15.6C38.6,15,22,25.9,19.3,36.7c-1.5,5.4-0.5,12.4,0.8,17.1c1,3.4,2.7,6.3,4.5,9.4 C28.4,70,34,76,40.5,80.3c1.9,1.3,4.1,2.7,6.3,3c2.2,0.3,4.5,0.3,6.7-0.1c5.4-0.9,9.3-4.1,13.8-8.1l0,0c9.3-8.2,24.1-22.1,13.7-37.4 C75.2,25.8,63.7,15.4,50.5,15.6z M76,37.3c-3-3.2-6.7-4.8-10.1-7.2 c-3.5-2.5-6.2-5.7-9.8-7.8c-8-4.4-14.4,0-21,3c-11.8,4.8-13,16.9-8.5,29.4c1.7,4.7,4.2,8.5,6.9,12.8c6.9,11,15.5,15.1,21.7,9.3 c2.7-2.5,3.6-5.9,5.2-8.9C63.6,62,72.1,60.6,77,56.7C81.8,52.6,82.3,44,76,37.3z M75.8,55.6c-3.4,2.7-7.9,3.8-11.6,6.2 c-3.6,2.3-5.3,4.6-6.8,8c-5.9,13.9-16.4,6.5-22-2.5c-2.9-4.4-5.3-8.1-7-12.6c-4.4-11.7-3.6-23.1,7.6-27.8c5.9-3,13.9-7.3,19.8-3.3 c4.6,2.9,8.3,7.6,13.3,10.2c2.3,1.4,4.5,2.8,6.3,4.7C80,43.3,80.7,51.5,75.8,55.6z M46,64.1c-1.3-1.3-1.3-3.7,0-5.2l4.6-4.6H37.9 c-1.9,0-3.7-1.5-3.7-3.7c0-2.1,1.5-3.7,3.7-3.7h12.9L46,42.6c-1.3-1.3-1.3-3.7,0-5.2c1.3-1.3,3.7-1.3,5,0l10.8,11 c0.4,0.4,0.6,0.8,0.8,1.2c0.4,0.8,0.4,1.7,0,2.7c-0.2,0.6-0.6,1-0.8,1.2L51,64.1C49.6,65.5,47.3,65.5,46,64.1z"/>
</svg>
