<svg xmlns="http://www.w3.org/2000/svg" x="0px" y="0px"	 width="1125px" height="1125px" viewBox="0 0 1125 1125">
<path opacity="0.1" fill="#D6B194" d="M10.9,1046.1c21.5,32,41,47.7,69.6,78.9
c247.3,0,792.7,0,1044.5,0V0C877.1,0,452.5,0,203.8,0c21.3,89.8,71.6,142.5,98.8,217.7C380.7,384.5,108.2,549.4,71,681.5
c-28.6,84.7-7.3,116.7-18.4,182.3C47.1,925.1-22.2,984.6,10.9,1046.1z"/>
<path opacity="0.2" fill="#D6B194" d="M56.5,1014.1c1.1,32.2,40.4,77.3,56.9,110.9
c221.6,0,784.7,0,1011.5,0V0C884.2,0,471.2,0,230,0c25.3,93.4,110.5,168.3,127.4,258.5c10.5,59-15,102.2-42.6,142.1
C245.6,520,107,615.2,88.5,736.5c-10.7,63.5,7.6,96.6-9,161.2C72.7,921.5,50.9,986.1,56.5,1014.1z"/>
<path opacity="0.3" fill="#D6B194" d="M74.2,984.6c-21.8,53.9,16.6,89.5,37.4,140.4
c205,0,802.1,0,1013.3,0V0c-238.4,0-648,0-886.7,0c29,85.2,113.4,146.3,148.1,258.3c5.6,94.1-32.5,118.3-95.4,206
c-43.4,64.8-143.3,180.9-160.5,215.3C73.2,803,156.4,829.1,109.5,918C96.6,944.8,83.7,959.9,74.2,984.6z"/>
<path opacity="0.4" fill="#D6B194" d="M87.6,1040.3c5.9,27.2,26.9,74.9,31.1,84.7
c192.9,0,806.6,0,1006.3,0V0C893.4,0,491.6,0,260,0c23.6,83.3,179.1,191.7,164.2,322c-5.6,21.5-17.1,34.7-28.5,50.8
c-64.5,80-111.8,134.1-163.5,232.3c-53.6,93.5-54.3,102.5-70.9,229.5C158.4,916.6,71.5,970.9,87.6,1040.3z"/>
<linearGradient id="SVGID_1_" gradientUnits="userSpaceOnUse" x1="104" y1="-1687" x2="1125" y2="-1687" gradientTransform="matrix(1 0 0 -1 0 -1125)">
<stop  offset="0" style="stop-color:#D6B194;stop-opacity:0.3"/>
<stop  offset="0.5" style="stop-color:#D6B194"/>
</linearGradient>
<path fill="url(#SVGID_1_)" d="M103.9,1043.7c3.7,26.8,15.8,51.1,25.5,81.3c179.2,0,809,0,995.6,0V0C901.9,0,507.7,0,285,0
c77.2,134.7,278.5,222.1,130.1,401.8c-30.4,38-63.2,62.4-97.3,127.8c-16.2,30.5-101.3,245.8-108.3,254.6
c-22.7,52.7-25.2,85.3-49,126.6C131.4,961.4,97.9,984.9,103.9,1043.7z"/>
</svg>
