<svg xmlns="http://www.w3.org/2000/svg"  x="0px" y="0px" width="2000px"	 height="1500px" viewBox="0 0 2000 1500">
<radialGradient id="SVGID_1_" cx="1000" cy="562.5" r="1000" gradientUnits="userSpaceOnUse">
<stop  offset="0" style="stop-color:#FEF4E7"/>
<stop  offset="0.5" style="stop-color:#E8D2B4"/>
<stop  offset="1" style="stop-color:#C19775"/>
</radialGradient>
<rect fill="url(#SVGID_1_)" width="2000" height="1500"/>
<g id="the">
<path fill="#467084" d="M533.2,557.5c0-19.3-11.1-35-35.8-35h-3c-0.7,0-1,0.2-1,0.7v113.5c0,0.5,0.3,0.7,1,0.7h15
c0.3,0,0.3,1.5,0,1.5h-52.5c-0.3,0-0.3-1.5,0-1.5h15c0.7,0,1-0.2,1-0.7V523.2c0-0.5-0.3-0.7-1-0.7h-3.1
c-24.6,0-35.3,15.6-35.3,35c0,0.3-0.7,0.3-0.7,0v-36.9c0-0.3,0.2-0.5,0.5-0.5h100.2c0.3,0,0.3,0.3,0.3,0.5v36.9
C533.8,557.8,533.2,557.8,533.2,557.5"/>
<path fill="#467084" d="M586.4,638.7c-0.3,0-0.3-1.5,0-1.5h9.1c0.7,0,1.2-0.2,1.2-0.7v-53.2c0-11.8-7.4-15.4-13.1-15.4
c-10.8,0-15.9,4.8-18.2,12.4v56.4c0,0.5,0.3,0.7,1,0.7h9.1c0.3,0,0.3,1.5,0,1.5h-35.3c-0.3,0-0.3-1.5,0-1.5h9.1
c0.7,0,1-0.2,1-0.7V517.1c0-0.5-0.3-0.7-1-0.7h-9.1c-0.3,0-0.3-1.9,0-1.9H565c0.3,0,0.5,1.4,0.5,1.7v62.3
c2.6-8.1,10.3-13.4,18.8-13c16.9,0,27.3,10.1,27.3,27.8v43.3c0,0.5,0.3,0.7,1.2,0.7h9.1c0.3,0,0.3,1.5,0,1.5L586.4,638.7z"/>
<path fill="#467084" d="M693.3,598.4h-47.6v4.2c0,20,1.8,26.8,7,31.6c3.2,2.7,7.3,4,11.5,3.8c11.2-0.1,21.5-5.9,27.3-15.5
c0.2-0.2,0.7,0.8,0.5,1.2c-5.9,9.7-16.4,15.6-27.8,15.8c-19.1,0-34.1-16.6-34.1-36.9c0-20.3,15-36.9,34.1-36.9
c20.8,0,29.6,19.8,29.6,32.3C693.7,598.3,693.6,598.5,693.3,598.4 M673.6,571.1c-2.6-2.4-6-3.6-9.5-3.4c-4.1-0.2-8.2,1-11.5,3.4
c-4.6,3.9-6.5,11.7-6.8,24.7h33.4C678.9,582.9,677.4,575,673.6,571.1"/>
</g>
<g id="gio">
<path fill="#467084" d="M1029.4,515.4c-14.4,0-22.7-9.8-22.7-18.1c0-10.6,6-11.3,6-18.9s-6-12-13.6-12c-10.6,0-28,3-43.1,37
c15.9,21.2,24.6,46.8,24.9,73.3c0,67.2-55.9,121.7-124.7,121.7c-36.6-0.1-71.3-16.1-95.2-43.8c-14.4,9.8-24.9,23.4-24.9,50.6
c0,43.1,18.9,56.7,69.5,56.7h86.9c99.7,0,150.4,34,150.4,118c0,93.7-101.1,142.8-181.3,142.8c-102.8,0-171.5-46.8-171.5-103.5
c0-41.6,33.2-86.9,77-98.2c-40-11.3-61.9-37.8-61.9-75.6c0-44.6,19.6-70.3,54.4-92.9c-17.5-21.3-27.1-48-27.2-75.5
c0-67.2,55.9-120.9,123.9-120.9c40,0,74,16.6,96.7,45.3c12.8-26.5,33.2-45.4,62.7-45.4c18.1,0,37,10.6,37,33.2
c0,12.8-10.6,26.5-23.4,26.5 M918.3,824.5H799c-8.7,0.2-17.3-0.8-25.7-2.9c-18.9,11.6-32.5,40.5-32.5,83.8
c0,77.3,43.8,106.2,120.9,106.2c72.5,0,142.8-35.4,142.8-104.1C1004.5,862,974.3,824.5,918.3,824.5 M894.9,475.9
c-10.6-9.2-22.7-11.4-38.5-11.4c-15.1,0-27.2,2.1-37.8,11.4c-16.6,15-23.4,46.3-23.4,100.4c0,61.2,6.8,84.7,23.4,99.6
c10.6,9.2,22.7,12,37.8,12c15.9,0,28-2.8,38.5-12c16.6-15,23.4-38.5,23.4-99.6C918.4,522.2,911.6,490.8,894.9,475.9"/>
<path fill="#467084" d="M1064.7,787.8c-1.5,0-1.5-6.5,0-6.5h41.6c3,0,4.5-0.7,4.5-3V468.6c0-2.3-1.5-3-4.5-3h-41.6
c-1.5,0-1.5-7,0-7h112.6c1.5,0,1.5,4.8,1.5,6.3v313.5c0,2.3,1.5,3,5.3,3h41.6c1.5,0,1.5,6.5,0,6.5H1064.7z"/>
<path fill="#467084" d="M1409.3,791.2c-86.9,0-157.1-75.5-157.1-167.7s70.3-167.7,157.1-167.7c87.6,0,157.9,75.6,157.9,167.7
S1497,791.2,1409.3,791.2 M1462.5,482.2c-14.3-12.3-31.5-16.6-53.2-16.6c-21,0-39,4.3-52.5,16.6c-23.2,21-33.7,65-33.7,141
c0,86.7,10.5,120,33.7,141c13.5,12.3,31.5,16.6,52.5,16.6c21.7,0,39-4.3,53.2-16.6c23.2-21,33.7-54.2,33.7-141
C1496.2,547.3,1485.7,503.2,1462.5,482.2"/>
<path fill="#467084" d="M1230.5,483c-0.6,0-0.9-0.5-0.4-0.7c31-11.7,69.8-36,79.7-53.2c5.4-9.4,15.9-2.6,18.9,3.2
c3,5.8-0.3,9-8.6,17C1306.9,462.2,1266.1,477.7,1230.5,483"/>
</g>
<g id="riverside">
<path fill="#467084" d="M1115.6,867h-3.7v-35.3h13.1c7.9,0,13.5,4.3,13.5,11.3c0,5.8-3.9,9.8-9.8,10.9L1140,867h-4.6l-11-12.8
h-8.8V867z M1134.9,842.9c0-4.9-4.1-7.9-9.9-7.9h-9.4v15.7h9.4C1130.7,850.8,1134.8,847.8,1134.9,842.9L1134.9,842.9z"/>
<path fill="#467084" d="M1169.2,867v-35.3h3.7V867H1169.2z"/>
<path fill="#467084" d="M1217.7,867.3l-16.3-35.6h4l14,30.7l14-30.7h4l-16.3,35.6H1217.7z"/>
<path fill="#467084" d="M1288.5,847.7v3.4h-18.8v12.5h20.8v3.4H1266v-35.3h24.5v3.4h-20.8v12.7L1288.5,847.7L1288.5,847.7z"/>
<path fill="#467084" d="M1324.8,867h-3.6v-35.3h13.1c7.9,0,13.5,4.3,13.5,11.3c0,5.8-3.9,9.8-9.8,10.9l11.3,13.1h-4.7l-11-12.8
h-8.8V867z M1344.1,842.9c0-4.9-4.1-7.9-9.9-7.9h-9.4v15.7h9.4C1339.9,850.8,1344,847.8,1344.1,842.9L1344.1,842.9z"/>
<path fill="#467084" d="M1404.3,841.2h-3.6c-0.8-4.3-3.9-7.2-9.9-7.2c-5.3,0-8.9,2.6-8.9,6.7c0,3.2,2.6,5.2,7.2,6l5.3,1
c6.2,1.2,9.8,4.2,9.8,9.2c0,6.4-5.2,10.7-13.1,10.7c-8.5,0-13.9-4.4-14.7-12h3.6c0.9,5.5,4.8,8.7,11.2,8.7c5.6,0,9.2-2.7,9.2-7
c0-3-2-5.2-6.6-6l-6.1-1.2c-6.5-1.2-9.8-4.5-9.8-9.2c0-6.1,5-10.1,12.6-10.1C1397.7,830.9,1403.5,834.3,1404.3,841.2z"/>
<path fill="#467084" d="M1434.9,867v-35.3h3.7V867H1434.9z"/>
<path fill="#467084" d="M1501.7,849.1c0,10.5-7.7,17.9-18.6,17.9h-12.3v-35.3h12.3C1494,831.7,1501.7,838.9,1501.7,849.1z
M1497.9,849.1c0-8.2-6.1-14-14.8-14h-8.6v28.6h8.6c7.8,0.4,14.4-5.6,14.8-13.4C1497.9,849.9,1497.9,849.5,1497.9,849.1
L1497.9,849.1z"/>
<path fill="#467084" d="M1554.5,847.7v3.4h-18.8v12.5h20.8v3.4h-24.5v-35.3h24.5v3.4h-20.8v12.7L1554.5,847.7L1554.5,847.7z"/>
</g>
</svg>
