<svg xmlns="http://www.w3.org/2000/svg" x="0px" y="0px"	 width="1125px" height="2600px" viewBox="0 0 1125 2600">
<radialGradient id="SVGID_1_" cx="562.5" cy="1200" r="1000" gradientUnits="userSpaceOnUse">
<stop  offset="0" style="stop-color:#FEF4E7"/>
<stop  offset="0.5" style="stop-color:#E8D2B4"/>
<stop  offset="1" style="stop-color:#C19775"/>
</radialGradient>
<rect fill="url(#SVGID_1_)" width="1125" height="2600"/>
<g id="the">
<path fill="#467084" d="M207.6,1073.8c0-14.6-8.5-26.6-27.2-26.6h-2.3c-0.5,0-0.8,0.1-0.8,0.5v86.3c0,0.4,0.3,0.5,0.8,0.5h11.4
c0.2,0,0.2,1.1,0,1.1h-39.9c-0.3,0-0.3-1.1,0-1.1h11.4c0.5,0,0.8-0.1,0.8-0.5v-86.3c0-0.4-0.3-0.5-0.8-0.5h-2.4
c-18.7,0-26.8,11.9-26.8,26.6c0,0.3-0.5,0.3-0.5,0v-28.1c0-0.2,0.2-0.4,0.4-0.4h76.1c0.3,0,0.3,0.3,0.3,0.4v28.1
C208.1,1074.1,207.6,1074.1,207.6,1073.8"/>
<path fill="#467084" d="M248.1,1135.6c-0.3,0-0.3-1.1,0-1.1h7c0.5,0,0.9-0.1,0.9-0.5v-40.5c0-9-5.7-11.7-10-11.7
c-8.2,0-12.1,3.7-13.8,9.5v42.9c0,0.4,0.3,0.5,0.8,0.5h7c0.3,0,0.3,1.1,0,1.1h-26.8c-0.3,0-0.3-1.1,0-1.1h7c0.5,0,0.8-0.1,0.8-0.5
v-91c0-0.4-0.3-0.5-0.8-0.5h-7c-0.3,0-0.3-1.4,0-1.4h18.7c0.3,0,0.4,1,0.4,1.3v47.4c2-6.1,7.9-10.2,14.3-9.9
c12.8,0,20.8,7.7,20.8,21.1v32.9c0,0.4,0.3,0.5,0.9,0.5h7c0.3,0,0.3,1.1,0,1.1L248.1,1135.6z"/>
<path fill="#467084" d="M329.3,1104.9h-36.2v3.2c0,15.2,1.4,20.4,5.3,24c2.4,2,5.6,3.1,8.7,2.9c8.5-0.1,16.3-4.5,20.7-11.8
c0.1-0.1,0.5,0.6,0.4,0.9c-4.5,7.4-12.5,11.9-21.1,12c-14.5,0-25.9-12.6-25.9-28.1s11.4-28.1,25.9-28.1c15.8,0,22.5,15,22.5,24.5
C329.7,1104.8,329.6,1104.9,329.3,1104.9 M314.4,1084.2c-2-1.8-4.6-2.7-7.2-2.6c-3.1-0.2-6.2,0.8-8.7,2.6
c-3.5,2.9-4.9,8.9-5.2,18.8h25.4C318.4,1093.1,317.3,1087.1,314.4,1084.2"/>
</g>
<g id="gio">
<path fill="#467084" d="M584.9,1041.8c-11,0-17.2-7.5-17.2-13.8c0-8,4.6-8.6,4.6-14.4c0-5.7-4.6-9.2-10.3-9.2
c-8.1,0-21.2,2.3-32.7,28.1c12.1,16.1,18.7,35.6,18.9,55.7c0,51.1-42.5,92.5-94.8,92.5c-27.8-0.1-54.2-12.3-72.4-33.3
c-11,7.5-19,17.8-19,38.4c0,32.7,14.4,43.1,52.8,43.1h66.1c75.8,0,114.3,25.8,114.3,89.7c0,71.2-76.9,108.5-137.8,108.5
c-78.1,0-130.4-35.6-130.4-78.7c0-31.6,25.3-66,58.6-74.7c-30.4-8.6-47.1-28.7-47.1-57.4c0-33.9,14.9-53.4,41.4-70.6
c-13.3-16.2-20.6-36.5-20.7-57.4c0-51.1,42.5-91.9,94.2-91.9c30.4,0,56.3,12.6,73.5,34.5c9.8-20.1,25.3-34.5,47.7-34.5
c13.8,0,28.1,8,28.1,25.3C602.7,1031.6,594.6,1041.9,584.9,1041.8 M500.4,1276.7h-90.7c-6.6,0.1-13.1-0.6-19.5-2.2
c-14.4,8.8-24.7,30.8-24.7,63.7c0,58.8,33.3,80.7,91.9,80.7c55.1,0,108.5-26.9,108.5-79.1C565.9,1305.3,543,1276.7,500.4,1276.7
M482.6,1011.8c-8-7-17.2-8.7-29.3-8.7c-11.5,0-20.7,1.6-28.7,8.7c-12.6,11.4-17.8,35.2-17.8,76.3c0,46.5,5.2,64.4,17.8,75.7
c8,7,17.2,9.2,28.7,9.2c12.1,0,21.2-2.2,29.3-9.2c12.6-11.4,17.8-29.3,17.8-75.7C500.4,1047,495.3,1023.1,482.6,1011.8"/>
<path fill="#467084" d="M611.6,1248.9c-1.2,0-1.2-4.9,0-4.9h31.6c2.3,0,3.4-0.6,3.4-2.3v-235.5c0-1.7-1.2-2.3-3.4-2.3h-31.6
c-1.2,0-1.2-5.3,0-5.3h85.6c1.2,0,1.2,3.7,1.2,4.8v238.3c0,1.7,1.2,2.3,4,2.3H734c1.2,0,1.2,4.9,0,4.9H611.6z"/>
<path fill="#467084" d="M873.6,1251.5c-66,0-119.5-57.4-119.5-127.5s53.4-127.5,119.5-127.5c66.6,0,120,57.4,120,127.5
S940.3,1251.5,873.6,1251.5 M914.1,1016.6c-10.8-9.3-23.9-12.6-40.5-12.6c-16,0-29.6,3.3-39.9,12.6
c-17.7,15.9-25.6,49.4-25.6,107.2c0,65.9,8,91.2,25.6,107.2c10.3,9.4,23.9,12.6,39.9,12.6c16.5,0,29.6-3.3,40.5-12.6
c17.7-15.9,25.6-41.2,25.6-107.2C939.7,1066.1,931.7,1032.5,914.1,1016.6"/>
<path fill="#467084" d="M737.7,1017.2c-0.4,0-0.7-0.4-0.3-0.5c23.6-8.9,53.1-27.4,60.6-40.4c4.1-7.1,12.1-2,14.4,2.4
c2.3,4.4-0.2,6.8-6.5,12.9C795.8,1001.4,764.8,1013.2,737.7,1017.2"/>
</g>
<g id="riverside">
<path fill="#467084" d="M650.4,1309.1h-2.8v-26.9h10c6,0,10.2,3.3,10.2,8.6c0,4.4-3,7.4-7.5,8.3l8.6,10h-3.5l-8.4-9.8h-6.7V1309.1
z M665,1290.8c0-3.8-3.1-6-7.5-6h-7.1v12h7.1C661.9,1296.8,665,1294.5,665,1290.8L665,1290.8z"/>
<path fill="#467084" d="M691.1,1309.1v-26.9h2.8v26.9H691.1z"/>
<path fill="#467084" d="M728,1309.3l-12.4-27.1h3.1l10.6,23.3l10.6-23.3h3.1l-12.4,27.1H728z"/>
<path fill="#467084" d="M781.8,1294.4v2.6h-14.3v9.5h15.8v2.6h-18.6v-26.9h18.6v2.6h-15.8v9.6L781.8,1294.4L781.8,1294.4z"/>
<path fill="#467084" d="M809.4,1309.1h-2.7v-26.9h10c6,0,10.2,3.3,10.2,8.6c0,4.4-3,7.4-7.5,8.3l8.6,10h-3.6l-8.4-9.8h-6.7V1309.1
z M824,1290.8c0-3.8-3.1-6-7.5-6h-7.1v12h7.1C820.9,1296.8,824,1294.5,824,1290.8L824,1290.8z"/>
<path fill="#467084" d="M869.8,1289.5h-2.8c-0.6-3.3-3-5.5-7.6-5.5c-4.1,0-6.8,2-6.8,5.1c0,2.5,2,4,5.5,4.6l4.1,0.8
c4.7,0.9,7.5,3.2,7.5,7c0,4.9-4,8.1-10,8.1c-6.4,0-10.5-3.3-11.2-9.2h2.8c0.7,4.2,3.7,6.6,8.5,6.6c4.3,0,7-2.1,7-5.3
c0-2.3-1.5-4-5.1-4.6l-4.7-0.9c-4.9-0.9-7.4-3.4-7.4-7c0-4.6,3.8-7.7,9.6-7.7C864.8,1281.6,869.2,1284.2,869.8,1289.5z"/>
<path fill="#467084" d="M893.1,1309.1v-26.9h2.8v26.9H893.1z"/>
<path fill="#467084" d="M943.8,1295.5c0,8-5.9,13.6-14.1,13.6h-9.3v-26.9h9.3C938,1282.2,943.8,1287.7,943.8,1295.5z
M940.9,1295.5c0-6.2-4.7-10.7-11.3-10.7h-6.5v21.7h6.5c5.9,0.3,11-4.2,11.3-10.2C940.9,1296.1,941,1295.8,940.9,1295.5
L940.9,1295.5z"/>
<path fill="#467084" d="M984,1294.4v2.6h-14.3v9.5h15.8v2.6h-18.6v-26.9h18.6v2.6h-15.8v9.6L984,1294.4L984,1294.4z"/>
</g>
</svg>
