<svg  xmlns="http://www.w3.org/2000/svg"  x="0px" y="0px" width="80px" height="80px" viewBox="0 0 80 80">
<path opacity="0.5" fill="#FFFFFF" d="M60.47,33.51C49.4,23.03,32.19,23,21.34,33.25
c-5.43,5.27-8.02,11.97-8.21,18.77c-0.09,6.9,2.62,13.62,8.01,18.86s12.38,7.83,19.48,8.03c7.01,0,14.12-2.5,19.54-7.68
c5.42-5.17,8.01-11.87,8.21-18.77C68.46,45.56,65.75,38.84,60.47,33.51z M56.82,67.84c-8.84,8.54-23.15,8.48-32.03-0.15
s-8.85-22.4,0.11-31.04c8.84-8.54,23.15-8.48,32.03,0.15C65.6,45.32,65.66,59.3,56.82,67.84z"/>
<path opacity="0.5" fill="#FFFFFF" d="M36.36,49.6c0.96-1.36,2.5-2.3,4.3-2.32 c1.9-0.02,3.55,1.15,4.49,2.69l-4.4-16.5L36.36,49.6z"/>
<path opacity="0.5" fill="#FFFFFF" d="M40.64,57.29c-1.9,0.02-3.46-0.95-4.3-2.39l4.21,16.29l4.6-16.42 C44.19,56.24,42.54,57.27,40.64,57.29z"/>
<path opacity="0.5" fill="#FFFFFF" d="M45.9,1.67c1,0.37,1.77,0.89,2.31,1.58
c0.54,0.68,0.82,1.48,0.82,2.4c0,0.94-0.28,1.75-0.83,2.46c-0.55,0.7-1.31,1.18-2.26,1.43c1.14,0.22,2.04,0.74,2.7,1.56
c0.66,0.82,0.98,1.81,0.98,2.97c0,1.01-0.28,1.89-0.84,2.65c-0.56,0.76-1.37,1.34-2.4,1.74c-1.04,0.4-2.26,0.6-3.66,0.6h-8.85V1.12
h8.51C43.73,1.12,44.9,1.3,45.9,1.67z M43.66,7.78c0.38-0.31,0.56-0.75,0.56-1.32c0-0.54-0.18-0.97-0.56-1.26
c-0.38-0.3-0.89-0.44-1.54-0.42h-3.58v3.48h3.58C42.77,8.26,43.28,8.1,43.66,7.78z M44.07,14.91c0.48-0.34,0.71-0.82,0.71-1.43
c0-0.56-0.24-1.01-0.71-1.34c-0.48-0.34-1.13-0.49-1.94-0.47h-3.58v3.76h3.58C42.95,15.42,43.6,15.24,44.07,14.91z"/>
</svg>
