<svg  xmlns="http://www.w3.org/2000/svg"  x="0px" y="0px" width="80px" height="80px" viewBox="0 0 80 80">
<path opacity="0.5" fill="#FFFFFF" d="M66.1,40c-2-6.6-6.7-12.1-13.3-15.6C39,17.8,22.6,23.1,15.4,36.1
c-3.5,6.7-3.9,13.9-2,20.4c2,6.6,6.7,12.2,13.4,15.5c6.7,3.3,14.2,3.6,21,1.7c6.7-2.2,12.7-6.7,16.2-13.3C67.6,53.8,68,46.6,66.1,40
z M59.8,58.1C54.1,69,40.4,73.3,29.3,67.8C18.2,62.4,14,49.3,19.9,38.3c5.8-10.9,19.4-15.2,30.5-9.7C61.3,34,65.6,47.3,59.8,58.1z"/>
<path opacity="0.5" fill="#FFFFFF" d="M47.7,31.3L36.9,44.1c1.4-0.8,3.2-1,4.9-0.3
c1.7,0.8,2.7,2.5,2.9,4.3L47.7,31.3z"/>
<path opacity="0.5" fill="#FFFFFF" d="M42.7,52.5c-1.5,0.9-3.4,1.2-5.2,0.4c-1.7-0.8-2.7-2.3-2.9-4 l-3,16.6L42.7,52.5z"/>
<path fill="none" d="M65.3,9.8c0.4-0.3,0.5-0.8,0.5-1.3c0-0.5-0.2-1-0.6-1.3c-0.4-0.3-0.9-0.4-1.5-0.4l-3.6,0l0,3.5l3.6,0
C64.4,10.3,65,10.1,65.3,9.8z"/>
<path fill="none" d="M65.8,14.2c-0.5-0.3-1.1-0.5-2-0.4l-3.6,0l0,3.8l3.6,0c0.8,0,1.5-0.2,1.9-0.5c0.5-0.3,0.7-0.8,0.7-1.4
C66.5,14.9,66.3,14.5,65.8,14.2z"/>
<path opacity="0.5" fill="#FFFFFF" d="M70.3,13.1c-0.7-0.8-1.6-1.3-2.7-1.5c0.9-0.3,1.7-0.8,2.2-1.5
c0.5-0.7,0.8-1.5,0.8-2.5c0-0.9-0.3-1.7-0.9-2.4c-0.6-0.7-1.3-1.2-2.3-1.5c-1-0.4-2.2-0.5-3.5-0.5l-8.5,0.1l0.2,17.9l8.8-0.1
c1.4,0,2.6-0.2,3.6-0.6c1-0.4,1.8-1,2.4-1.8c0.5-0.8,0.8-1.6,0.8-2.7C71.3,14.8,71,13.9,70.3,13.1z M60.2,6.9l3.6,0
c0.6,0,1.2,0.1,1.5,0.4c0.4,0.3,0.6,0.7,0.6,1.3c0,0.6-0.2,1-0.5,1.3c-0.4,0.3-0.9,0.5-1.5,0.5l-3.6,0L60.2,6.9z M65.8,16.9
c-0.5,0.4-1.1,0.5-1.9,0.5l-3.6,0l0-3.8l3.6,0c0.8,0,1.5,0.1,2,0.4c0.5,0.3,0.7,0.8,0.7,1.3C66.5,16.1,66.3,16.6,65.8,16.9z"/>
</svg>
