<svg xmlns="http://www.w3.org/2000/svg" x="0px" y="0px"	 width="30px" height="30px" viewBox="0 0 30 30">
<linearGradient id="SVGID_1_" gradientUnits="userSpaceOnUse" x1="20" y1="10" x2="10" y2="20">
<stop  offset="0" style="stop-color:#fff;stop-opacity:0.2"/>
<stop  offset="1" style="stop-color:#fff"/>
</linearGradient>
<path fill="none" stroke="url(#SVGID_1_)" stroke-width="1" d="M26.8,13.7
c-1-1.6-2.2-7.4-4.4-7.9c-1.9-0.5-6.8-3.6-8.7-2.5c-1.6,1-7.4,2.2-7.9,4.4c-0.5,1.9-3.6,6.8-2.5,8.7c1,1.6,2.2,7.4,4.4,7.9
c1.9,0.5,6.8,3.6,8.7,2.5c1.6-1,7.4-2.2,7.9-4.4C24.7,20.5,27.9,15.6,26.8,13.7z M22.1,11.3 C17.3,1.9,1.9,9.1,8.5,18.5c2.1,3.9,7.2,6.8,10.7,2.7C22.3,18.9,25.2,14.8,22.1,11.3z M18.9,13.2c-1.3-0.5-1.9-1.8-2.9-2.7 c-1.8-1.6-4.6-0.2-4.1,1.9c0.5,2.1-2.5,1.8-1,4.1C15.5,23.4,23.9,14.9,18.9,13.2z"/>
</svg>
