<svg  xmlns="http://www.w3.org/2000/svg" x="0px" y="0px" width="100px" height="100px" viewBox="0 0 100 100">
<linearGradient id="SVGID_1_" gradientUnits="userSpaceOnUse" x1="70" y1="10" x2="30" y2="90">
<stop  offset="0" style="stop-color:#fff;stop-opacity:0"/>
<stop  offset="1" style="stop-color:#fff"/>
</linearGradient>
<path fill="none" stroke="url(#SVGID_1_)" stroke-width="1" d="M96,44.5c-3.9-6.4-8.6-28.9-17.2-31.2
c-32.3-13.8-25.4-13.9-57.7,0c-3.3,1.4-6,4.1-7.4,7.4C12,28.1-0.5,47.4,4,55C17.2,88,12,82.7,44.8,96c7.5,4.5,27-8,34.1-9.8
c3.3-1.4,6-4.1,7.4-7.4C88,71.5,100.5,52.2,96,44.5z M70.7,81.3c-15.1,15.3-31.2,11.9-44.5-3.4C9.7,61,2.9,30.7,27.3,17.4
c26.4-19,58,2.4,64.3,30.3C92.9,61.2,80,73.3,70.7,81.3z M81.6,64.3c-10,18.6-35.4,27.5-49.7,9.1c-7.2-6.7-18-15.5-14.3-26.8c1.9-5.4,6.3-9.6,8.8-14.7c2.1-4.4,3-9.6,6.4-13.1
c13.1-11.8,26.6,4.1,34,15C77.6,44.4,94.1,43.5,81.6,64.3z"/>
</svg>
