<svg xmlns="http://www.w3.org/2000/svg" x="0px" y="0px"	 width="50px" height="50px" viewBox="0 0 50 50">
<linearGradient id="SVGID_1_" gradientUnits="userSpaceOnUse" x1="35" y1="42" x2="15" y2="8" gradientTransform="matrix(1 0 0 -1 0 50)">
<stop  offset="0" style="stop-color:#FFFFFF;stop-opacity:0"/>
<stop  offset="0.7" style="stop-color:#FFFFFF;stop-opacity:0.5"/>
<stop  offset="1" style="stop-color:#FFFFFF"/>
</linearGradient>
<path fill="url(#SVGID_1_)" d="M25,45c-1.7,0.3-10.4-4.1-12.2-4.5 c-1.5-0.6-2.7-1.8-3.3-3.3c-0.8-3.2-6-11.1-4.1-14.5c1.7-2.8,3.7-12.1,7.4-13.1C16,8.7,24,3.5,27.3,5.4c2.9,1.7,12.1,3.7,13.1,7.4c0.8,3.2,6,11.1,4.1,14.5c-1.7,2.9-3.7,12.1-7.4,13.1C35.4,40.9,26.7,45.2,25,45z M25,6.2c-1.4-0.3-10.2,4-11.6,4.3c-1.3,0.5-2.2,1.5-2.8,2.8c-0.7,2.7-5.7,10.7-4,13.5c1.5,2.4,3.5,11.6,6.7,12.4C16,40,24,45,26.9,43.3c2.4-1.5,11.6-3.5,12.4-6.7
c0.7-2.7,5.7-10.7,4-13.5c-1.5-2.4-3.5-11.6-6.7-12.4C35.1,10.2,26.4,6,25,6.2z M24.9,41.4c-7.2-0.8-12.2-8.1-14.7-14.4C5.9,16.3,17.9,6.4,28,8.4c6.7,1.4,12.4,8.3,14,15c0.5,5.9-5.4,11.2-8.3,13.7l0,0C31.1,39.6,28.4,41.5,24.9,41.4z M25.3,9.7C13.9,9.8,6.9,21.6,13.7,30.8c3.8,7.1,12.5,12.9,19.1,5.3l0,0c2.7-2.3,8.2-7.3,7.7-12.5C38.8,16.8,32.6,9.5,25.3,9.7z M26,36.5c-5.3,0-15.3-7.9-13.5-13.8c2.2-3.3,3.8-6.7,5.8-10.1c7.2-5.9,11.3,5.1,16.8,7.6C45.2,23.9,33,37.2,26,36.5z M22.3,12.2c-3.4-0.2-4.5,3.1-5.5,5.7c-0.9,1.8-2.6,3.2-3.2,5.1c-1.3,5.2,7.5,12.4,12.6,12.4c4.8,0.3,15.2-8,10.4-13.2C29.5,19.9,28.8,12.5,22.3,12.2z"/>
</svg>
