<svg xmlns="http://www.w3.org/2000/svg" x="0px" y="0px"	 width="30px" height="30px" viewBox="0 0 30 30">
<linearGradient id="SVGID_1_" gradientUnits="userSpaceOnUse" x1="1" y1="15" x2="29" y2="15" gradientTransform="matrix(1 0 0 -1 0 30)">
<stop  offset="0" style="stop-color:#C19775"/>
<stop  offset="1" style="stop-color:#E8D2B4"/>
</linearGradient>
<path fill="url(#SVGID_1_)" d="M28.7,13.5c-1.2-1.9-2.6-8.6-5.2-9.3C21.4,3.7,15.6,0,13.4,1.3c-1.8,1.1-8.5,2.5-9.2,5.1
c-0.5,2.2-4.3,7.9-2.9,10.2c1.2,1.9,2.6,8.6,5.2,9.3c2.2,0.5,7.9,4.2,10.1,2.9c1.9-1.2,8.6-2.6,9.3-5.2
C26.3,21.5,30.1,15.8,28.7,13.5z M20.9,23.6c-4.6,5.7-11.4,1.7-14.3-3.8C-2.2,6.8,18.4-3.4,24.9,9.8C29,14.7,25,20.4,20.9,23.6z"/>
<linearGradient id="SVGID_2_" gradientUnits="userSpaceOnUse" x1="25" y1="15" x2="5" y2="15" gradientTransform="matrix(1 0 0 -1 0 30)">
<stop  offset="0.5" style="stop-color:#C19775"/>
<stop  offset="1" style="stop-color:#E8D2B4"/>
</linearGradient>
<path fill="url(#SVGID_2_)" d="M7.8,19.4c7.1,14.3,21.8-2.1,15.9-9
C18.1-1.4,0.2,7.7,7.8,19.4z M9.9,17.1c-2-3.4,2-3,1.3-6.1c-0.7-3,3-5.2,5.3-2.8c1.3,1.4,2,3.3,3.7,4.1
C26.7,14.9,15.8,27.7,9.9,17.1z"/>
<linearGradient id="SVGID_3_" gradientUnits="userSpaceOnUse" x1="292" y1="-160" x2="330" y2="-160" gradientTransform="matrix(0.25 0 0 -0.25 -63.25 -25.5)">
<stop  offset="0.2" style="stop-color:#C19775"/>
<stop  offset="1" style="stop-color:#E8D2B4"/>
</linearGradient>
<path fill="url(#SVGID_3_)" d="M19.1,12.9c-1.3-0.6-1.8-2.3-2.7-3.4
c-1.7-2-4.4-0.2-3.9,2.3c0.5,2.6-2.4,2.3-1,5.1C15.8,25.7,23.8,15.1,19.1,12.9z"/>
</svg>
