<svg xmlns="http://www.w3.org/2000/svg" x="0px" y="0px"	 width="500px" height="280px" viewBox="0 0 500 280">
<path fill="#C19775" d="M488,122.7H240c11-11.7,17.7-27.3,17.7-44.4l0-0.2c0-3.5-0.3-6.9-0.9-10.2h6c13.4,0,24.7-11.9,24.7-26
c0-16.4-13.1-28.8-30.4-28.8c-10.8,0-20.5,4-28.3,11.4C218.1,17,205.1,13,190.9,13c-36.7,0-66.5,29.3-66.5,65.3
c0,9.6,2.3,19.1,6.4,27.8c-9.6,9-17.7,21.8-17.7,42.2c0,12.5,4.1,23.2,11.8,31.4c-11,10.8-18.1,25.7-18.1,40.8
c0,33.6,36.3,58,86.2,58c20.7,0,42.1-6.4,58.6-17.7c17.8-12.1,28.7-29,31.2-48.1H488c6.6,0,12-5.4,12-12v-66
C500,128.1,494.6,122.7,488,122.7z"/>
</svg>
