<svg xmlns="http://www.w3.org/2000/svg" x="0px" y="0px" width="500px" height="280px" viewBox="0 0 500 280">
<path fill="#467084" d="M262.8,52.79c-5.96,0-9.41-4.08-9.41-7.53c0-4.39,2.51-4.71,2.51-7.85c0-3.14-2.51-5.02-5.65-5.02
c-4.4,0-11.61,1.26-17.89,15.38c6.27,8.48,10.35,19.14,10.35,30.44c0,27.93-23.22,50.53-51.78,50.53
c-15.69,0-30.13-7.22-39.54-18.2c-5.96,4.08-10.36,9.73-10.36,21.02c0,17.89,7.85,23.54,28.87,23.54H206
c41.43,0,62.45,14.12,62.45,48.96c0,38.91-42.05,59.31-75.32,59.31c-42.68,0-71.24-19.45-71.24-42.99
c0-17.26,13.81-36.09,32.01-40.8c-16.63-4.71-25.73-15.69-25.73-31.38c0-18.52,8.16-29.19,22.6-38.6
c-6.91-8.48-11.3-19.46-11.3-31.38c0-27.93,23.22-50.21,51.47-50.21c16.63,0,30.75,6.9,40.17,18.83
C236.44,35.84,244.92,28,257.16,28c7.53,0,15.38,4.39,15.38,13.81C272.53,47.14,268.14,52.79,262.8,52.79 M216.67,181.09h-49.58
c-3.76,0-7.22-0.3-10.67-1.2c-7.85,4.8-13.49,16.81-13.49,34.82c0,32.12,18.2,44.12,50.21,44.12c30.12,0,59.31-14.71,59.31-43.22
C252.45,196.69,239.9,181.09,216.67,181.09 M206.94,36.36c-4.39-3.84-9.41-4.73-16-4.73c-6.28,0-11.3,0.89-15.69,4.73
c-6.9,6.21-9.73,19.22-9.73,41.69c0,25.43,2.83,35.18,9.73,41.39c4.39,3.84,9.41,5.02,15.69,5.02c6.59,0,11.61-1.18,16-5.02
c6.9-6.21,9.73-15.97,9.73-41.39C216.67,55.58,213.85,42.57,206.94,36.36"/>
<path fill="#467084" d="M277.43,165.93c-0.63,0-0.63-2.68,0-2.68h17.26c1.25,0,1.88-0.31,1.88-1.25V33.33
c0-0.94-0.63-1.25-1.88-1.25h-17.26c-0.63,0-0.63-2.91,0-2.91h46.76c0.63,0,0.63,1.97,0.63,2.6V162c0,0.94,0.63,1.25,2.2,1.25
h17.26c0.63,0,0.63,2.68,0,2.68H277.43z"/>
<path fill="#467084" d="M420.56,167.33c-36.09,0-65.27-31.38-65.27-69.67c0-38.29,29.19-69.67,65.27-69.67
c36.4,0,65.59,31.38,65.59,69.67C486.15,135.95,456.96,167.33,420.56,167.33 M442.67,38.97c-5.92-5.1-13.08-6.9-22.11-6.9
c-8.72,0-16.19,1.8-21.8,6.9c-9.65,8.71-14.01,27.02-14.01,58.55c0,36.03,4.36,49.84,14.01,58.55c5.61,5.11,13.08,6.91,21.8,6.91
c9.03,0,16.2-1.8,22.11-6.91c9.65-8.71,14.01-22.52,14.01-58.55C456.68,65.99,452.32,47.68,442.67,38.97"/>
<path fill="#467084" d="M56.67,70.25c0-8.02-4.63-14.52-14.86-14.52h-1.24c-0.28,0-0.42,0.07-0.42,0.28v47.14
c0,0.2,0.14,0.28,0.42,0.28h6.22c0.13,0,0.13,0.61,0,0.61H24.95c-0.14,0-0.14-0.61,0-0.61h6.22c0.28,0,0.41-0.07,0.41-0.28V56.01
c0-0.21-0.14-0.28-0.41-0.28h-1.24c-10.23,0-14.65,6.5-14.65,14.52c0,0.14-0.28,0.14-0.28,0V54.91c0-0.07,0.07-0.21,0.21-0.21h41.6
c0.14,0,0.14,0.14,0.14,0.21v15.34C56.95,70.39,56.67,70.39,56.67,70.25"/>
<path fill="#467084" d="M78.79,104.04c-0.14,0-0.14-0.61,0-0.61h3.8c0.28,0,0.49-0.07,0.49-0.28V80.97c0-4.91-3.09-6.41-5.44-6.41
c-4.49,0-6.59,1.99-7.56,5.17v23.43c0,0.21,0.14,0.28,0.42,0.28h3.8c0.14,0,0.14,0.61,0,0.61H59.65c-0.14,0-0.14-0.61,0-0.61h3.8
c0.28,0,0.41-0.07,0.41-0.28V53.46c0-0.21-0.14-0.28-0.41-0.28h-3.8c-0.14,0-0.14-0.78,0-0.78h10.23c0.14,0,0.2,0.57,0.2,0.71
v25.92c1.24-3.87,4.7-5.39,7.81-5.39c7.05,0,11.34,4.21,11.34,11.54v17.97c0,0.21,0.14,0.28,0.48,0.28h3.8c0.14,0,0.14,0.61,0,0.61H78.79z"/>
<path fill="#467084" d="M123.17,87.25H103.4v1.73c0,8.29,0.76,11.13,2.9,13.13c1.32,1.17,2.97,1.59,4.77,1.59
c4.9,0,8.91-2.63,11.33-6.43c0.07-0.07,0.28,0.35,0.21,0.49c-2.56,3.94-6.71,6.57-11.54,6.57c-7.95,0-14.17-6.91-14.17-15.34
c0-8.43,6.22-15.34,14.17-15.34c8.64,0,12.3,8.22,12.3,13.41C123.37,87.19,123.3,87.25,123.17,87.25 M115.01,75.91
c-1.1-1.05-2.42-1.42-3.94-1.42c-1.8,0-3.46,0.37-4.77,1.42c-1.93,1.61-2.7,4.88-2.83,10.26h13.89
C117.22,80.79,116.6,77.51,115.01,75.91"/>
<path fill="#467084" d="M346.3,39.33c-0.24,0.04-0.38-0.2-0.15-0.29c12.88-4.85,29.01-14.95,33.12-22.1
c2.24-3.9,6.62-1.09,7.85,1.32c1.19,2.33-0.17,3.74-3.56,7.06C378.06,30.69,361.09,37.12,346.3,39.33"/>
<path fill="#467084" d="M298.59,198.82h-1.53v-14.68h5.46c3.28,0,5.59,1.79,5.59,4.69c0,2.39-1.62,4.06-4.08,4.53l4.7,5.46h-1.92
l-4.58-5.33h-3.64V198.82z M306.58,188.83c0-2.05-1.7-3.28-4.1-3.28h-3.89v6.54h3.89C304.88,192.09,306.58,190.85,306.58,188.83z"/>
<path fill="#467084" d="M320.85,198.82v-14.68h1.53v14.68H320.85z"/>
<path fill="#467084" d="M341.01,198.93l-6.78-14.79h1.68l5.81,12.74l5.81-12.74h1.68l-6.78,14.79H341.01z"/>
<path fill="#467084" d="M370.4,190.81v1.42h-7.8v5.18h8.66v1.4h-10.19v-14.68h10.19v1.4h-8.66v5.27H370.4z"/>
<path fill="#467084" d="M385.48,198.82h-1.53v-14.68h5.46c3.28,0,5.59,1.79,5.59,4.69c0,2.39-1.62,4.06-4.08,4.53l4.7,5.46h-1.92
l-4.57-5.33h-3.65V198.82z M393.47,188.83c0-2.05-1.7-3.28-4.1-3.28h-3.89v6.54h3.89C391.76,192.09,393.47,190.85,393.47,188.83z"/>
<path fill="#467084" d="M418.51,188.11H417c-0.35-1.79-1.64-2.96-4.13-2.96c-2.22,0-3.69,1.08-3.69,2.79c0,1.34,1.08,2.16,3.02,2.5
l2.22,0.43c2.59,0.5,4.08,1.73,4.08,3.82c0,2.67-2.18,4.44-5.46,4.44c-3.52,0-5.76-1.83-6.1-5.01h1.51
c0.37,2.29,1.97,3.63,4.66,3.63c2.33,0,3.82-1.14,3.82-2.89c0-1.23-0.84-2.16-2.76-2.5l-2.55-0.5c-2.7-0.5-4.06-1.86-4.06-3.84
c0-2.53,2.09-4.21,5.22-4.21C415.75,183.82,418.15,185.22,418.51,188.11z"/>
<path fill="#467084" d="M431.23,198.82v-14.68h1.53v14.68H431.23z"/>
<path fill="#467084" d="M458.94,191.37c0,4.38-3.2,7.45-7.73,7.45h-5.09v-14.68h5.09C455.74,184.14,458.94,187.14,458.94,191.37z
M457.36,191.37c0-3.39-2.55-5.83-6.16-5.83h-3.56v11.87h3.56C454.81,197.41,457.36,194.91,457.36,191.37z"/>
<path fill="#467084" d="M480.9,190.81v1.42h-7.8v5.18h8.66v1.4h-10.19v-14.68h10.19v1.4h-8.66v5.27H480.9z"/>
</svg>
