<svg xmlns="http://www.w3.org/2000/svg"  x="0px" y="0px" width="2000px"	 height="1400px" viewBox="0 0 2000 1400">
<path d="M0,839.4c0,0,172.1,17.5,254.3,18.4c76.4,2,278.4,1.4,347.4-0.4c61.9-1.5,155.9-6.1,217.8-12.8
c30.6-3.5,105.3-16.1,137-23.5c32.4-6.9,61-13.1,101.9-24.6c38.5-10.1,52.6-15.3,52.6-15.3l109.9,25.1l21-0.1
c0,0,69.6-28.1,124.1-33.7c29.7-2.5,65.5-4,121.8,0c50.2,7.6,99.8,21.3,133.3,35.1c17.2,6.4,29.9,11.3,29.9,11.3l19.1-0.2
c0,0,19.6-6.2,46.8-12.4c8.1-1.7,28.8-4.9,33.8-5.3c9.2-0.8,32-3.6,32-3.6c33.5,5.4,74.5,14,74.5,14l75.3,13.9l51.6,9l16,5V1399H0V839.4z"/>
<path d="M1178.4,770.1c0,0,36.7-3.1,57.3-3.1c28.4,0,60.1,1.3,60.1,1.3l-32.1,13l-26.9,12.9L1178.4,770.1z"/>
<path d="M1648.9,779.1c-22.4-1.1-62.2-3.1-62.2-3.1s23.3,8.3,38,14.4c12.1,5,26.4,11.7,26.4,11.7l32-11l28-8.3
C1711.1,782.9,1667.7,780,1648.9,779.1z"/>
</svg>
