<svg xmlns="http://www.w3.org/2000/svg" width="10620" height="630" viewBox="0 0 10620 630">
<rect y="0" width="10620" height="630" fill="#fff"/>
<g>
<path d="M7182.11.06c-4.28,2.4-8.33,5.44-12.88,7.08-33.83,11.89-60.55,33.52-89,54.69l-1,11.43c-21.2-4.79-39.51-18.47-60.43-24.83-101.24-34.09-221.5-7.91-295.58,70.1-77.51-54-184.38-61.48-264.18-8.12-30.38,24-74.82,42.46-79.16,85.81-.5,4.55-1.9,9-6.22,11.64-.84-.83-1.65-1.28-1.6-1.63,1-7.84-3.26-12.15-9-17.06-48.78-45-123.41-71.47-188.14-50.13,3.95,7.74,5.49,8.68,13.77,7.89,70.69-12.8,141.46,11.47,182.62,71.69l2.48-2-2.89,23c-4.87-.25-6.77-4.49-9.2-7.66-27.94-34.22-67.67-60.35-111.75-65.53-28.35-1.91-62.69-7.37-83.67,16.54,7.64,2.16,13.25,1.08,19.11-.1,32.29-6.47,64.14-7.05,94.86,7.49,37.5,16.19,65.26,45.86,88.51,78.58,2,2.61,2.76,6.7,2.81,10.12.26,18.66.22,37.32.06,56a21.46,21.46,0,0,0,3.69,13.07c17.82,39.05,44,71.07,88.38,79.29,15.71,2.18,30.9,11.06,46.88,5.49l-19.14-6.37c4.36-3.57,8.07-2.51,11.39-2.5,11.83-.05,48.7-3.84,50.79-18.08-9.47,1.32-21.33,6.41-21.3-7.44-1.17-11.13-15.45-5.46-22.93-6.25-22.38,1.12-50.3-3-61.75-25.08a86.89,86.89,0,0,0,23.68,6.19l1.56-2c-2.83-9.32-11.77-14.06-18.68-20.15-18.43-14.8-26-33.82-22.76-57.24-.42-38,6.21-74.8,30.12-105.43,15.77-19.45,37.89-40.66,64.74-39.56,27.85.58,57.09-8.26,84.25,1.36l1.6,14c-33,1.2-69.58-5.38-96.19,19.67,38.73,9.88,60.22-21.12,122.73,9.42,34.11,16,58.88,43.29,79.6,73.93,6.5,6.32,8,13.77,7.66,22.56.6,18.14-3.36,37.91,3,55.2,9.9,21.56,22,41.9,39.18,58.46a81.35,81.35,0,0,0,40.26,22.87c20,3.9,51.12,15.29,70.08,7.26l-17.71-7.08c19.25-6,39-5.5,53.77-22.65-9.45-2.19-18.59,2.9-21.55-8.2-4.1-17.05-52.39,12.21-85.56-22.54,9.21-1.73,16.72,5.75,24.95-.65-21.2-26.3-48-33.36-44.5-75.09-4.06-52.91,13.28-108.17,60.89-136.71,6.6-4.53,14.35-5.73,22.69-6.11,14.76.65,80.08-18.21,81.23,3.09,1.12,14.13-59-3.44-87.63,29.72l11.14,5.67c-28.58,22.06-66.06,46.86-60.3,88.1a21.7,21.7,0,0,0,6,13.23c9.09,7.45,24.79,33.41,33.94,34,8.55,1.33,12.48-6,11.24-13.47-3.24-17.8.71-35.19,2.92-52.67,2-18.73,17.82-29.94,31.69-40.43,19.31-16.58-22.14-15.94,39.66-30.47l-11.63-7.51c62.95-11.33,128.2,49.89,149.88,104.23,1.12,17.05-1.48,35,1.19,51.78,14.48,31.9,32.22,63.29,63.74,81,25.83,13.63,56.12,14,84.37,18.62,4.28.62,8.68.5,12-4.08-3.39-8.34-12.89-3.59-18.23-9,15.44-9.23,42.83-7.08,49.19-26.38-7.53-1.64-16.49,2.27-19.77-6.87C7247.5,376.58,7196,408,7168.2,376c7-2.59,14.29,3.12,20.67-2.33-2.92-18.14-45.69-24.89-45.69-74.36-3.24-49.14,8.67-101.73,50.68-132,7.91-5.93,16.27-10.1,26.75-8.84,17.88.12,68.74-20.64,79.41-1.95,4.12,12.36-59.42,1.53-84.28,32.49l8.05,5.87c-1.08,4.66-6.09,6.72-9.34,9.83-23.79,18.77-49.86,44.25-45.53,77.13,1.17,15.73,21.15,27.93,30,41.08,5.14,8.33,22.71,12.32,23.2-1.06-.77-15.69-3.92-28.69,3.05-44.86,5.51,13.71,11.26,24.36,18.31,36.82,5.72,9.56,18.49,11.86,25.65-.58,5.77-10,13.6-10.93,23.8-4.75,23.7,15.08,19.94-13,33.94-23.49,9.9-12,27.4-6.92,20.12-19.87-5.34-12.13-19-13.5-29.83-17.93-5.87-2.9-12.49-5.79-16.53-10.59-7.71-9.16-16.85-10.19-27-7.54-22.84,4.73-34.31,23.52-47.24,41.67-5.41-26.44,20.23-40.3,37.71-53.83,2.67-2,4.79-4.63,4.11-8.47-2.81-14.12,24.16-12.15,33.16-15.27l-8.8-8.71c58.9-4.47,108.11,43,133.44,92.14,8.2,7.62,9.18,17.36,7.77,27.46-2.68,51.59,32.66,101.12,77.43,124.43,27.81,12.55,58.64,11.57,86.86,22.59-13.89,5.35-24.47,8.71-37.54,14.29-12.89,5-5.55,7.84-2.78,18-44.12,7-84.23-21.91-113-52.49-6.21-6.26-14-11.22-11-22.88-7.33,6.21-16.18,25.94-17.11,37.9a186,186,0,0,1,15-15l1.94,1q0,21.27-.07,42.52a5.75,5.75,0,0,1-1.5,3.54c-42.09,49.58-113.21,89.39-179.2,89.19l-.36-2.48c57.06-13.27,120.27-33.27,151.71-86.93-23.56,20-43.52,39.16-71.74,51.49-80.67,38.21-176.9,25.4-250.33-23.12-92.47,101.76-238.48,114.3-356.44,52.22,1.9,9.3-1.21,16.79-8.66,22.67l8.17-1.29v11.84c-15.2,11.59-30.9,22.12-48.59,29.46-3.82,1.58-8.17,3.49-8.47,8.84h18c7.76-11.94,21.44-17.05,32.65-25,5.45-3.54,10.8-3.47,16.9-1.28q19.64,7,39.63,13c13,4.37,27.59,4.57,38.77,13.32h110c4.16-7.52,13.73-7.54,21.08-10.15,51.91-12.94,99.05-40.93,137.45-77.88C7192,605.75,7337,585.45,7425.6,495c6.59-9.74,13.79-2.19,21.09,3,83.76,61.62,202.37,47.87,282.5-12.81,2.06,6.24-1.13,9-3.68,11.89-78.73,74-204,60.52-288.68,3.91-85.34,104.5-242.54,120.37-356.49,53.91l-1,15c-28.65,19.52-58.41,39.9-91.88,50.75-5.05,1.74-11.25,2.68-13.34,9.12h26c1.89-8.62,22.69-13.53,29.94-19.86,16.91-10.72,31.19-23.08,49.27-32.33V590.5c-20.59,13.34-46.51,21-63.23,39.42h22c-.25-8.91,24.52-17.94,31.5-24.19,6.58-4.47,12.79-5.52,20.37-2.16,19.78,8.75,40.48,14.7,61.7,18.92,5.36,1.33,11,2.63,14.42,7.41h108c3.34-6.22,10.06-5.88,15.51-7.69,17.64-5.84,35.86-10.17,53-17.12,28.56-11.54,53.93-28.68,77.43-48.58,3.88-3.28,7.33-7.53,13.26-8v19.23c-29,22.39-60.08,40.83-94.81,52.75-5.41,1.84-11.89,2.83-14.42,9.42h30c2.43-9.44,10.69-7.5,17.48-10.37l-3.4,10.37h22c12.51-14.27,30.1-20.49,46.25-30.61,22.62,10.13,46,20.77,71.15,22.66,7.59.66,14.77,2.75,20.61,7.91h94c5-6.59,12.91-6.37,19.81-7.7,56.28-7.85,104-37.72,145.44-75.52v14.18c-23,15.57-44,32.71-69.92,43.22-14.06,7.89-47.31,14.29-55.36,25.8h40l2.51-3.37,3.49,3.37h62c3.61-7,10-9,17.28-10.55l.72,10.55h64l-5.59-9.3c10.14.44,33.49.9,39.59,9.3h86c2.66-1.61,5.15-4.1,8-4.69,16.41-3.36,32.91-6.27,49.38-9.34-6.07,5.34-12.9,7.25-17.4,14h116c2.57-5.44,7.33-7.62,13.15-9.24l.85,9.24h76l-1.89-7.11c7.22-.27,30.89.28,33.89,7.11h68c1.43-1.22,2.71-3.25,4.3-3.53,12.23-1.21,24.59-6.18,36.79-3.53l-3.1,7.06h230c.92-1.8,1.73-5.1,2.78-5.18,11.42-.83,22.88-1.16,33.23,5.18h34c12-5.33,25-5.83,37.88-6.39,4.19-.18,6,2.16,4.13,6.39h250c-2-8.42,12.16-5.11,16.92-5.37a234.61,234.61,0,0,0,58.73,0c6.69.51,21.71-4.66,22.42,5.41Q9833,630,10620,630V.06H9150.17c-.23,8.39-13.39.3-18,0h-154c-5.33,2.91-10.67,5.47-16,0h-68c-4.81,4.21-5.62,4.21-8,0h-84c.2,3.08-.79,5.59-4.3,4.76-3.78-8.27-168.62-3.74-177.7-4.76-5.33,3.15-10.67,5.79-16,0h-64l-12,6.57V.06h-72l4.62,7c-10.33-.62-19-2-26.63-7h-174c-5.19,4.39-10.93,5.15-17.5,3.21l1.5-3.21h-62a182.21,182.21,0,0,1-39.5,24.42c-4.12-7.34,16.94-8.87,25.49-24.45h-60l8.2,8.28c-12-.51-21.48-3-30.2-8.28h-184a36.52,36.52,0,0,1-22.68,5.69L7882.15,0h-56a255.44,255.44,0,0,1-35.64,24.39l-8.45-8.89c10.46-2.12,19.79-6.26,26.09-15.5h-50l9.62,9.06c-11.18-1.83-22.55-1.74-31.62-9.06h-60c37.57,10.22,75.83,15.8,111.34,33.56l.89,18.07A408.89,408.89,0,0,1,7852.8,15.8l.48,1.09-64.9,45.36L7787,75.12c-114.21-71.23-264.49-52.54-356.53,45-82.62-59.84-197.12-61.16-279.83-.47-7.41,4.3-14.15,10.55-22.77,12.1l-1.28-1.94c31.35-38.9,81.52-49.94,125.73-67.84l-.4-2.73c-3.73-.21-7.59-1.15-11.15-.49-21.48,3.92-42.78,8.53-63.56,15.23.13-2.87.89-4.47,2.14-5.12C7253.64,26.47,7347.93,40,7420,80.82c6.67,4,14.12,8.6,20.77,2.05C7497.22,31.66,7570.34,2.62,7646.19,0h-102c-14.15,6.91-29.53,11.08-43.64,17.91-24.21,12.11-45.62,28.46-66.31,45.51L7433,75.05c-24.36-10.63-46.19-23.95-71.93-30.8-99.78-26.8-214.06-3-284.17,75.79C6970.19,45.6,6862,68.53,6762.84,142.28l-1.47-1.64c29.68-45,82.42-59.81,129.72-78.41l-.67-2.19c-28.77-2-55.34,15.16-83.27,20.25,73.29-64.52,193.32-40.25,270.65,5.37,7.33-13.22,22-20.54,32.78-30.84,31.63-27.94,70.83-40.11,109.49-54.82h-38ZM9186.27,113.9c15.18,5.42,16.33,6.27,16.74,13.09-7-3-12.25-7.51-16.93-12.88C9146,91.35,9103.89,81.93,9058.52,74.9c12.76-6.55,27.31-2.05,39.44-6.91,3.43-18.65,78.51,16,87.34,24.86-15-3.27-28.47-11.25-44.32-10.64C9155.92,93.36,9171.65,102.46,9186.27,113.9Zm-1397.14-2.79-2.59,13.1C7713.37,71.13,7622.61,61,7539.63,95.72l-.82-2.48c29.78-14.35,62.92-19.19,93.45-31.48l-.12-2.61-14.91-5.25.11-2.12c59.71-9.44,117.1,10.43,168.09,40.21C7889-1.54,8014.82-22.75,8142.34,35.07V53.78c15.45-5.56,25.95-17.79,42.55-23-12.82,10.27-23.73,19.47-35.17,28-4.89,3.63-8.78,7.33-9,13.74-129.38-65.47-240-52.77-351.85,38.77C7788.9,111.27,7789.09,111.1,7789.13,111.11ZM6726,196.1c5.2,3.42,5.2,3.42.21,9.61V195.9c-48.73-40.24-110.18-73.41-175.62-63.66-33.22,6.89-70.48,11.25-95.89,35.9-24.62,23.34-42.43,50.87-51.53,84.08l-14.27,1c14.77-163,203.42-215.59,325.72-125.38,7.67,5.29,15.14,8.35,23.46,1.45.78-.65,2.2-.53,5.27-1.19-5.89,11.36-17.9,20.19-17.73,31.16.26,6.32-1.46,13.2.51,18.84,2.28,6.51-1.74,12.06-.16,18ZM7753.7,340.8c-3.79,21.14-3.68,43.19-17,61.75-20.61,37.32-55.22,82.56-101.48,84.36,16.14-17.6,40.64-23.17,53.6-44.21,21.79-31.05,48.84-64.53,39.1-105-5.15-26.15-14.9-36.45-37.71-49.9,4.17-13.14,19.09-1.09,26.12-13.07,12.5,3.73,16,15.45,22.78,24.12-3.9-27-28.15-47.51-53.92-56.44-5.62-1.84-11.74-3.77-16.12-7.46-10.47-8.79-22.13-9.93-34.77-8.07-10.4,1.53-19.76,5.72-28.77,10.93-2.92,1.69-5.63,4.5-11.05,3.2,12.18-18.57,35-23.66,53.45-33.81,13.12-7.46,26.31,2,40.08,1l-4.37-12.45c48.57,0,108.57,84.86,104.25,131,14.44,55.52,53.21,102.82,112.25,112.72,15.67,4,30.74,4.53,45.44,12.34-11.88,4.24-19.9,6.5-30.6,11.44-11.36,5.67-11.24,5.9-8.81,18.48-48.08,6.9-86-31.42-117.8-62V406c3.66-.22,5.23,2.86,7.61,5,11.23,13.49,24.95,24.05,39.83,33,8.2,3.71,27.54,17.42,35.42,10.39-32.45-22.53-59.78-49.36-81.19-82.22-14.08,38.14-27.22,78.31-58.38,105.77-2.52,2.2-5,5.65-10.18,2.91,5.39-10.22,12.45-18.81,19.25-28,24.54-32.58,43.4-77,27.78-117.31l-7.09,9.32c-2.63-1.37-4.88-2.54-7.74-4ZM8045.53,199c45.85,4.65,96.22,81.08,96.44,124.67,13.8,57,52.2,104,111.5,116.36,10.59,2.54,19.82,4.85,29.63,10.5-44.15,35.75-108.8-36.8-131.85-72-2.25-3.6-3.7-8.23-7.57-9.44-7.56,21.42-35,99-59,99.93,32.68-44.64,57.25-96.19,37-151.27l-7.23,15.8-11.48-6c1.9,26.74.16,50.84-13.06,74.55-18.76,35.35-48.15,73.67-89.46,80.51l-.76-2.1c19.77-15.82,41.64-28.61,53.6-52,31.27-37.72,49.49-105.85-1.17-136-8.31-4-5.51-11.58,3.2-10.61,6.82,1.53,13,.27,19.19-4.4,10.67,8.57,15.35,20.3,21.92,31.75,1.37-1.84,1.62-2.89,1.34-3.78-8.79-28.36-24.47-50.71-53.28-62a162.66,162.66,0,0,1-21.29-10.75c-23.78-14.62-47.82-4.44-70.13,7.18,4-18.45,36.12-22.07,50.8-30.39,15.59-7.74,30.16,2.56,46.2,4.64-1.55-5.44-2.71-9.39-4.42-15.22ZM6752.62,226.66c1.79-36.37,27.91-66.63,51.53-92.35,78.55-73,201.94-57.26,281.18,6.55-10,11.52-4.11,39.69-5.53,57.22-56.46-53.3-133.71-83.4-210.3-60.56-47.44,8.65-76.76,45.38-102.52,82.85-3.39,4.62-6.95,8-14.34,6.32ZM7113,209.77c4.07-29.54,26.47-49.93,45.24-70.93,72.58-74,198.25-62.67,275-.61v60.46c-34.25-30.76-73.25-56.9-118.68-67.07-52.38-7-113.36-1.39-152.44,37.81-11.89,11.58-22.77,24.24-33.62,36.84-4.4,5.11-8.73,6.47-15.52,3.46ZM8144,96.51c90.19-97,234.34-109.35,351.18-56.88V50.75h-12.71l-.88,2,10.55,8.15,14.08-7,.92,1.43-14,14.89c-115.31-62.27-253.65-47.8-351,41,.89-7.43-2.88-9.58-7.51-11.34-11.08-4.61-17.9-10.79-31.88-11.22,12.8,11.1,25.33,19,38.62,26.6.59,4.25.56,5-.73,10.18-54.08-42.19-121.52-54.27-188.21-49,12.33-7.36,27.51-6.86,40.13-15.13l-7-7.33c56-9.57,110.82,13.33,158.41,42.59ZM7504.39,157c70-80.82,202.78-79.48,282.74-14.25v57.69c-16.32-11.05-29.24-25.76-44.09-38.66-55-50.08-152.43-47.72-211.2-5.42-8.64,5.72-16.53,7.51-27.49.7Zm954,289.49-2.6-2c29.14-40.86,37.28-116.95,12.2-156-2.45,10.6,2.81,21.24-2,33.15-9.06-9.77-12.78-18-17.69-29.41-11.39-30.52-36.91-45.07-64.94-58.44-23.19-13.6-45.84-9.37-69.79.92,6.65-15,31.63-15.81,45.42-21.5,42.75-9.9,78.49,29.11,102.1,59.82-1.22-18.13-17.41-31.62-30-43.21-7-7.14-19.9-12.18-18.54-24,15.45,1.11,24.74,14,35.45,23.35,28,28.3,41.41,63.26,49.78,101.42,20.29,61,55.73,97.93,118.89,113.51,3.12,1.24,5.76,3.7,8.73,5.69-11.74,15.45-32.83,7.26-46.75-1.59-35.58-20.56-60.76-50-81.71-85.16-8.5,25.33-18,46.28-28.94,69.93-2.31,4.9-6.37,9-9.63,13.44ZM7869.71,148.27c44.85-48,115.26-57.3,177.35-46.69,35.49,3.36,65.86,22.43,94,42.83V201c-14-10.1-25.67-21.86-36.62-35a59,59,0,0,0-18.29-16.68c-55.57-31.66-128.21-33.59-184.91-2.95-11.89,7.53-18.19,9.31-31.55,1.94Zm378.77-13-1-2.29c54-43.3,125-34.16,187.58-17.59,21.43,3.66,42.64,20.88,60.46,32.44v52.31c-.38.71-1.61,1-2.34,1.31-6.76-7.25-15.19-13.74-18.31-23.89-2-6.52-5.78-11.05-10.76-15.06-53.15-40-126.29-49.28-188.68-25.6-7.52,3-14.86,6-22.2-.51C8252.15,135.45,8250.08,135.6,8248.48,135.27ZM7564,205.69c-25.51,24-57.73,58.05-37.87,95.2,3.08,5.48,5.34,11.86-1.53,14.12-11.83,5.66-15.35,5.87-18.51.53-14.15-46.79-4.52-103.68,33.08-137.1,4-3.61,8.13-7.49,13.93-6.73,13.88,1.49,24.65-8.61,37.69-11.36,10.43-1.69,20.55-6.58,31-2.44-3.19,6.84-8.78,7.65-13.58,9.34-13.83,4.87-27.71,9.53-39.64,18.45-9,6.75-9.59,8.82-4.6,20Zm16.1,92.58c8.2,4.16,10.82,12.33,16.67,18.86,13.17,24.74,34.07-4.7,34.68,15.13q-1.08,19.41-3.78,38.69c-.93,6.59-4.87,9.67-11.17,8.8-21.72-2.1-40.44,14.14-62.47,8.24-4.37-.81-9.07-1.48-12.3-6.87,26.29-8.68,5.87-12.84-2.77-24.68,10.29-6.25,12.83-11.24,13.86-22.83,37.7,12.06,22.11-11.08,27.21-35.36ZM7596.66,422c8.79-4.07,47.93-23.47,41.05-34.11-7.34-17.62,21.66-25.38,10.69-56.84-3-9.51-1.46-10.95,8.61-10.89,19.09,2.9,9.92-29.38,29.2-27.3,2.3,29.79-1,59.69-2.53,89.46-.58,7.64-3.06,15.34-10,19.9-16.66,9-31.9,25.7-51.67,25.67C7614.35,427.14,7606.82,424.48,7596.66,422ZM7969.5,161.2c-10.31,7.51-19.79,9.59-30.48,15-5.41,4.25-31.87,16.11-25.8,24.13,5.14,6.69.47,9.93-3.39,14.2-14.73,18.1-38.07,35-35.48,60.95.68,8.82,3,17.56,5.07,26.22,1.8,7.51.67,10.24-6.68,13-13.13,6.27-14.85-11.47-16.64-20.47-4.58-38.86,3.48-81.94,31.91-110.35,8.56-10.68,23.13-9.89,35.08-14.51C7936.46,166.68,7957.6,151.86,7969.5,161.2Zm-71.66,195.15c3.42-3.83,9.15-6.25,9.42-12.9.24-5.62,3.91-7.1,9.1-6,28,6.62,14.2-20.72,17.94-37.42l2-.84c5.68,5.74,10,12.62,14.22,19.44,13.16,23.95,34.34-3.28,33.59,18.62-.39,9.63-1.22,19.25-2.32,28.83-.77,6.74-3.36,8.76-10.12,10.43-24.64,4.2-49.55,19.73-73.95,6.44q6.95-4.41,13.91-8.79c-1.86-9.12-13.24-8.7-13.84-17.88Zm60.81,63.42c13.28-10.47,39.41-16,35-37.41-1.36-4.86.15-9.21,3-13.15,21.07-26.19-5.86-46.2,15.23-46.52,18.39.87,10.19-28,23.89-28.06,11-.42,0,76.95.11,88.36-1.35,20.28-28.1,29.24-42.75,40-11.67,6.34-21.63.32-34.48-3.16ZM8526,83.36,8524.87,81c68.68-65.78,180.73-87.08,269.26-52.47l-8.57,6,21.32,13.59C8712.77,18.4,8608.27,25.46,8526,83.36Zm302.51,326.32c19-61.92,8.76-134.58-41.27-179.85-4.22-4-7.16-8.12-8.59-14,30.29,8.11,58.07,62,65.1,91.58,13.71,50.91,40.57,102.25,91,124.29,5.83,4.17,54.4,13.95,35,23.46-45.66,9.84-102.44-62.35-121.34-99.9-5.71,19.67-9.54,38.3-19.94,54.39Zm5.35-241.4-1,1c-54.62-37-117.29-56.79-182.92-40.22-8,2.24-12.93-2.21-17.65-8.18,69.69-38.26,152.92-5.15,216.62,30.93v12.58c-8.46-2.75-13.85-10.55-24.11-9.58,3.44,5.13,6.24,9.33,9,13.53Zm-533.09-2.55c-4.93,14.56-41.6,22.9-37.84,39.43,1.16,22.66-43.33,36.93-34.54,84,2.33,10.69-.29,21.47-12.55,13-13.29-33.36-1.82-82.49,20.85-109.93,9.2-12.69,25.62-11.68,38.65-18.58,8.88-4.15,14.84-7.51,25.52-7.89ZM8258.64,383.1c6-6.31,16.06-8.45,6.49-17-3.78-4.29-4.15-7.93-.47-12.27,3.55-5.38,4.46-12.21,12.28-12.77,18.13-1.36,11.45-17.39,13.14-30.43,15.28-4.54,12.52,21.87,36.26,22.86,13.31-.13,6.11,20.77,5.83,29.09-.65,3.17-3,7.45-5.69,8.49q-22.24,8.78-45.1,15.83C8274,389.19,8266.38,387.81,8258.64,383.1ZM8322,416.41c12.82-11.39,31-19.53,30.85-38.52a26.65,26.65,0,0,1,3.18-12.32c12.8-19.5-1.13-34.58,12.89-39.32,5.56-1.95,8.38-5.84,9.75-11.54,1-4.3,2-10.49,8-9.73,5.57.7,6,6.62,6,11.2.1,11.61.24,23.26-.57,34.83-1.75,15.23-1.59,33-12.83,44.76-7.9,7.51-16.82,14-25.79,20.29-10.25,6.62-19,2.5-31.5.38Zm90.52-129.73c4.52.33,9,1.29,13.4.84,14.48-1.23,16.62,16.32,21.44,26.28,22.13,55.88-11.8,116.54-56.1,151.11-6.54,4.55-13.13,9.58-21.48,9.58l-1.19-2.42c11.32-11.71,25.24-21.68,35.08-34.47,18.14-27.52,37.2-58.42,33.75-92.76-1.36-17.51-9.07-32.46-20.17-45.82C8414.58,295.81,8411,292.85,8412.52,286.68ZM8362.6,55.05c48.28-1.06,90.1,17,130.67,40.48,3,1.66,3.23,3.84.68,7.18-9.84-4.33-19.73-9.18-29.64-13.49-9.15-3.78-9.19-3.69-16.63-2,15,9.64,29,19,43.51,27.75,4.37,2.64,5.53,5.17,3.76,9.72-28.84-15.87-56.73-34.49-90.25-40.64a316.18,316.18,0,0,0-66.27-8.37c-3.19-.08-7,1-10.1-3,12.57-5.17,26.2-3.56,37.94-9.59C8365.22,60.78,8364.39,59.05,8362.6,55.05Zm-574,435.1c92.81,66.34,187.5,59.33,284.49,6.65l1.18,2c-79.77,72.72-200.67,55.38-285.22-.2-25.8,21.26-49,45.47-79.55,59.46C7737.83,537,7765,516.53,7788.6,490.15Zm847.12-313.9,1.31,1.91c-9.85,9.48-25.21,16.61-23,32.91.45,3-1.81,6.91-3.83,9.66-19.7,23.24-31.21,36.82-30.37,68.85-4.08,12.63-13.79.53-13.08-7.28-2.24-33.3,4.21-67.65,28.25-92.48,2.54-2.45,36.51-13.55,40.71-13.62Zm13.5,135.6c10.84,8.36,15.37,21.86,29.83,25.52,8.38,2.93,4.29,14.08,4.45,20.77-.48,5-2.87,8.92-7.53,11-11.53,5.17-23,10.66-34.78,15-8.52,1.86-15.1,3.14-23.42-2.89,6.57-3.73,12.15-6.82,8.29-14.54-4.2-9.32-.86-17.79,8.15-22.35,21.47-8.47,2.94-20.75,15-32.44Zm521.64-157.46-1,2.35c-50.23-28.69-103.42-41.45-161.49-30.35l1.77-6.78-4.73-3c42.5-21.92,122.77-8,167.42,26.46l-7.71,2.27,5.7,9.1ZM8685.29,411.87c9.54-10.91,22.43-18.54,24.65-33,.88-13.76,10.29-25.43,8.9-39.59a3.79,3.79,0,0,1,1-2.76,62.55,62.55,0,0,0,16.64-26.5c5.59-8.62,10,6.87,9.36,11.75-1.94,24.47,2.7,56.42-17.78,74.14C8715.11,408.78,8706.08,416.85,8685.29,411.87ZM8736,464.44c45.85-50,80-111.13,32.28-172.76l1.39-1.84c12.25,4.89,23.83,4.93,28.08,19.48,22.37,52.12-3.54,111.06-43.94,146.74-4.34,3.89-8.79,7.83-17.81,8.4Zm248.6-282.78c-28.94,29.84-11.05,18.22-22,40.82-19.23,23.84-27,31.46-29.58,63.28-2.09,5-7,5.63-9.57.64-6.86-25.11.93-50.87,10-74.53,9.17-22.84,29.71-25.89,49.27-31.37.21-.08.54.3,1.85,1.16Zm-8.67,200.58c4.13-5.18,9-8.27,6.54-15.21-2.85-9.1-.67-16.74,7.34-21.42,19.19-10.18,3.52-28.34,13.59-30.61,9,1.89,13.6,17.56,24.36,21.42,11.82,6.1,12.25,25.07.59,31.85-14.88,6.69-36.06,24.19-52.41,14ZM8700.53,75.47v-3c9.31-3.67,27.65-2.16,34-7.56.31-6,4.55-4.89,7.94-4.84,38.15,1.47,72,20.5,104.7,38.45,1.19.67,1.63,2.67,2.42,4-19.22-7.71-36.94-17.67-57.61-19.66,15.4,14.89,36.35,23.33,54.1,35.28,3.52,2.09,4.55,4.18,2,9-43.24-34.77-94.15-46.83-147.58-51.69Zm342,334.77c10.83-13.32,23.14-22.78,24.35-40.87,4.71-17.73,9.78-35.44,20.62-50.65,1.77-3.28,1.18-9,6.63-8.41,5.14.6,4.9,6,4.9,9.68,0,11.29-.32,22.61-1.07,33.88C9097.3,382.67,9075.66,416.07,9042.53,410.24ZM8683.11,226.89l-.5-2.4c24.88-7.15,51.78-17.36,75.66-1.41,29.33,17.55,61.56,46.09,58.46,83l-2.53,1.52c-15.09-24-28.07-51.31-55.12-63.87-22.92-13.63-49-25.87-76-16.91Zm441.59,67.56,1.84-2.29c7.8,4.62,19.24,6,23.07,15.12,16.42,35.08,10.45,75.26-9,108-10,15.27-24.78,38.56-42.75,44.21.33-4.72,2.32-6.4,5-9.52C9142,408.45,9163,343.31,9124.71,294.4Zm-8.3-260.37c-67.12-10.9-132.07-5.11-195.07,21.14,39-32.11,145.65-53.95,191.5-31.74l-5.28,4.67,8.78,5.93ZM6725.4,242c-5.38-1.72-6.64-5.6-9.9-9.46-21.29-33.4-58.76-46.74-91.51-66.14,9.23-7.25,11.4-13.3,23.39-7.72,27.94,11,51.81,28.29,69.89,52.47,8.91,9.61,9.68,18.58,8.13,30.85Zm2329.87-20.49c32.75-17.21,62.21,4.15,86.92,24.75,10.6,6.31,33.61,45.57,24.59,55.73-14.14-18-23.91-39.35-43.19-52.26-21.09-14.66-42.81-23-68.3-28.25ZM7665,568.59l.64,2.61c-74.6,29.65-160.48,16.5-228.77-23.69-3.32-2-3.89-4.12-1.47-7.79C7507.05,581.34,7585.3,585.65,7665,568.59ZM7079.71,242l-2.64,1c-26.59-38.19-43.67-46.17-82.16-68.71-9.89-9,6.87-12.85,13.63-10,14.32,4.18,26.75,12.15,37.28,22.43,11.38,11.12,21.74,23.29,32.46,35.08C7081.35,227.75,7079,235.44,7079.71,242ZM9189.57,392.17c4.3-48.44,1.85-101.67-29.65-142.13-7.6-9.31-16.27-17.79-22-28.49l2-1.83c51.8,39.36,77,110.31,49.61,172.48ZM8142.38,402.73c24.34,25.29,50.19,46.86,84.11,57.46,7.55,3.62,19.92,7.59,22.33,16.37-40.85,7.55-79.89-34.29-106.41-60.06ZM8401,512.6l1.44,2.43c-79,52.43-182.32,30.29-257.48-18.34l-9.55,5.22-1.68-2.11,8.93-11.11c73.5,60.69,174.31,61.67,258.34,24ZM7433.76,242.18l-2.46,1c-12.25-14.77-22.28-31.62-38.54-42.45-12.11-8.73-25.88-15.06-37.78-24.14-4.26-3.36-1.56-8.33,2.7-8.82,5.82.5,12.37.5,17.18,3.25,23.2,12.17,40,32.82,57.14,52C7435.5,228.54,7433.11,235.92,7433.76,242.18Zm1063.11,160c21.69,24.53,45.8,43.76,76.64,55.13,7.76,2.73,15,5.93,20,12.79l-.85,2.28c-31.28,2.73-58.66-21.24-79.67-41.93-7-10.64-21.25-12.79-16.1-28.31Zm-709.47,138c4.86-.52,6.63,1.84,10.53,3.6,56.3,32.38,121.81,38.61,185.31,32.57-65,19.24-143.79,4.42-195.85-36.18ZM8850.87,401.5c20.22,23.09,42.18,41.62,70.9,52.95,7.69,4.17,16.44,6.1,20.93,14.42-6.13,3.14-11.26,1.6-16.24.22-29.59-7.23-48.66-31.37-70.15-50.84C8851,413.81,8848.52,409.73,8850.87,401.5Zm497.84-40.33c.85-9,8.73-17,13-24.85,1.75-2.73,4.53-3.09,6.78-.9,21.64,18.44,13.71,25.38-6.71,38.66-13,6.8-11.46-2.92-13-12.91Zm-39-154.72c-.38,8.92.36,17.92-4.41,25.86-7.07,10.18-11.9,21.35-22.17,29-6.41-15.7,4-60.27,26.58-54.85Zm107.92,187.67c3.63-12.59,9.8-22.43,12.32-35.26,3.49-8.19,6.55-17.93,15.23-22.21C9452.88,353.74,9441.47,395.57,9417.63,394.12ZM7784.81,435.71l3,.9c-1.21,9.92,3.14,26.61-3,34.35-13.41,10.28-25.31,23.1-40.21,31.11,16.53-20.55,30.83-41.87,40.2-66.36Zm1920.36-74.36c.73-9.38,7.57-15.61,13-22.57,9.88-3.45,19,14.39,12.92,21.14-8.59,9.09-24.34,24.28-25.9,1.4Zm-45.59-150.57c2.2,16.73-7.66,37.81-20.49,44.71C9631.6,239.9,9643.34,213.49,9659.58,210.78Zm137.63,131.44c6.65,12-.25,47-20.92,47.68-.26-1.74-.75-2.79-.49-3.59,3.59-11,7-22.13,11.07-33,1.85-4.83,4.48-9.66,10.34-11.09ZM8141.56,466.82c-12.53,8.4-22.42,20.13-36.17,26.77C8113.63,480.91,8122.3,469,8130,456c3.7-5.78,4.66-13.41,11.59-18.14Zm-402-276.17,1.6-2.17c18,6.5,28.29,24.38,41.07,37.27,6.81,5.39,6,11.15,3.68,18.16-8.27-8.8-14.22-18.75-22.51-27.51-7.2-9.13-19.06-15.06-23.84-25.75Zm1760.8,140.79,2.39-.68c14.21,16.08-1.8,66.31-14,81.29C9499.47,383.07,9502.62,361.73,9500.36,331.44ZM7377.88,616.74c18.35-12.63,35.46-27,55.15-39.44.7,4.76.92,5.65.38,9.44C7415.26,597.74,7399.15,611.85,7377.88,616.74ZM9454.17,228.49c17.72-.66,41.59,17.55,43.94,32.78C9493.3,260,9461.13,236.15,9454.17,228.49ZM7125.6,546.28c-17.22-1.13-30.91-10.6-45.75-18l.47-9.45A251,251,0,0,1,7125.6,546.28ZM8140.8,246.57c-7.29-9.82-13.07-17.88-19.12-25.71-5.86-7.58-14-13.44-19-23.65,17,4.15,21.08,20.11,33.15,29.73C8142.17,232.08,8142.54,237.49,8140.8,246.57Zm1922.5,114.69c2.27-5.25,3.94-10.32,6.56-14.85,3.22-5.55,8.47-5.06,11.42.6,3.42,6.58.81,15.49-6.29,20S10066.1,367.83,10063.3,361.26ZM8637.3,540.5c29.38-2.68,58.66-6,87.3-13.51-27.88,12.17-56.93,17-87.33,13.51Zm660.78-98.32c-6.53,1.78-9,1.84-15.33-3.11-12.43-11-27.12-19.44-36.84-33.12,16.11,11.24,29.13,21.47,46.27,29.29,2.8,1.52,6.23,2.71,5.94,6.94Zm698-194.51c-7.45-15.4,10.63-40.43,14.55-24.29C10011.7,232.37,10005.44,243.21,9996.08,247.67Zm-1502.94,192,2.64.89c1.2,26.33-1.69,19.11-20.21,35.58l-1.82-1.58,19.39-34.89ZM8095.43,587l45.76-37.68v9.52C8125.18,567.26,8112.67,581.09,8095.43,587ZM9815.9,232.36c11-.69,28.11,12.4,30.78,23.48C9839.07,252.89,9820.57,238.78,9815.9,232.36Zm321,147.57c-.3-12.49,5.17-24.74,12.64-28.34,2.53,13-2.54,24.41-12.64,28.41ZM8836.14,462.48c3.89-9.06,5.67-17.33,12.65-23.66C8851.27,456.35,8850.92,457.05,8836.14,462.48Zm367.14-9.06c-4.47,3-4.47,3-9.13,3.1,1.53-9.49,3-12.44,9.13-17.9Zm653.2-111.32q7,11.13,0,21.71ZM8486.4,232.43c10.48,3,10.53,3.06,7.37,14.22ZM9641.31,436.22c-7.44-.56-8.1-1-13.06-7.73C9636.68,430.59,9636.68,430.59,9641.31,436.22ZM8848.59,186.8l-7-7.89C8847.29,178.22,8851.21,179,8848.59,186.8ZM8497,487.48l4.14,4.67-9.34,3.76,5.2-8.43ZM7795.77,602.1l-.55,1.75c-3.35-1.34-7.36,0-6.8-5.24l7.35,3.49ZM9203.63,101.31l-1,2.31-4.74-2.46.51-1.3ZM8851.63,64,8850,62.89c1.06-4.36,2-3.17,7.55-4.11Z" transform="translate(0 0.28)"/>
<path d="M6826.1.06c-4.48,2.66-8.7,6-13.5,7.87-32.36,12.56-58.75,33.73-86.49,54.13l-.75,9.6c-6.71.55-11.7-3.06-16.86-5.63-26.12-13-53.64-21.84-82.15-27.61-91.5-16.58-190.36,13.69-257.18,78.42-83.1-58.07-202-59.43-281.37,6.13-22.83,17.9-48.73,35.2-57.3,64.58a70.41,70.41,0,0,1-4,10.21c-7.26,13-8.54,27.57-9.37,42.06-33.64-33.93-70.43-69.38-121-73.55-26.89-1.29-58-7-79.73,12.91l.75,2.34c60.11-9.13,113.52-2.32,159.31,40.48,14.46,14.39,38.36,35.12,41.18,55.8q.26,30,0,60c13.73,51.65,61,89.74,115.3,91l-6.52-2.69,1.38-3c20.76.71,41.91,3.54,60.36-10.48-10.82-1.66-15.92.72-17.06-12.39-2.63-16-52.19,7.46-84.32-35.48,10.89.63,17.85,10.35,29.1,5.63-3.35-4.75-4.85-9.67-9.73-12.38-22.63-11.5-28.13-33.25-33.11-55.27-.76-66.09,26.39-128,86.88-159.3-62.83,6.64-105.45,66.87-111.74,125.33-5.62.92-9.7,1.52-15,2.3-9.88-38.68,27.71-119,58.93-143.77,78-58.92,181.07-59.25,262.05-6,8.21,4.88,16.86,12.91,25.62,4.52,112.44-97.13,209.38-117.4,342.7-43.53,37.49-43.16,87.06-64.13,139.61-82.19h-36Z" transform="translate(0 0.28)"/>
<path d="M6576.1,630c2.77-6.51,9.28-7,14.75-9,15.59-5.77,31.52-10.73,46.83-17.14,29.8-12.08,56.35-30.24,81.19-50.34,4.79-2.4,7.88-5.74,7.25-12.9,72.94,41,168.84,57.22,243.81,15.42-26,7.27-61.16,22.5-87.21,10.37,63.16-12.36,102.56-22.09,151.85-66.27l-2.26-2.71c-87.86,71.43-212.94,72.34-306.12,10.08.94,9.1-5.84,11.35-10.48,15.25-95.57,87.78-229.46,97.35-342.46,38.79l-4.94,18.65c7,2,2.09,8.66,3.54,13.7-13.78,10.09-27.1,20.51-42.9,27.23-3.77,1.61-9.69,2.13-8.92,8.8h16c5.57-12.45,19.37-16,29.41-24,6.21-4.41,12-3.42,18.68-1.29,17.4,5.58,35,10.58,52.49,15.88,6.36,2.21,13.86,2.88,17.43,9.38h122Zm150.12-110.31c14.36,4.55,54.69,27.42,60.06,34.3-23.22-1.56-41.17-13.57-60.06-23.69Z" transform="translate(0 0.28)"/>
<path d="M6226.09,630c1.66-5.91,7.3-6.41,11.72-8.11,14.28-5.51,28.88-10.21,43.07-15.92,31.08-11.94,58.71-29.68,84-51.3,4.68-2.52,8-5.76,7.29-12.82,59.86,32.42,131.24,51.07,197.92,30.86-21.82,1.08-43.68,4.81-67.14-3,27.94-9.74,55.16-8.64,83.37-15.74,27.27-7,57.41-19.39,75.24-41.09-90.5,57.27-198.16,53.24-288.59-1.85l-1.29,7.87,82.13,41c-22.51,7.3-61.6-15.7-81.59-26.6l-.84-11.74c-104,86.52-232.64,106.27-353.23,41.16,1.34,8.46-3.48,14.78-.65,22.55,2.13,5.85.65,11.9-6.6,15.67-10.87,5.65-21.09,12.53-31.54,19-4.31,2.65-10.18,3.64-11.15,10h16c.42-11.57,26.59-20.76,35.19-27.74,19.93,6.19,39.27,12.17,58.6,18.23,6.27,1.78,12.61,3.5,16.19,9.51Z" transform="translate(0 0.28)"/>
<path d="M5870.08,630c2.61-1.87,5-4.35,7.88-5.5,45.09-15.84,90.41-31.36,126.22-64.54,5.53-5.8,14.63-6.49,14.52-16.8,45.18,22.67,92.09,42,143.53,37.48v-2.18c-49.58-9.79-101.5-12.47-144.12-42.92l-1-11.36c-104.94,84.66-232,104.64-352.78,40.24V601.8c19.47,6.26,38.82,12.33,58.06,18.77,5.76,1.94,12.61,2.64,15.67,9.4h132Z" transform="translate(0 0.28)"/>
<path d="M5524.07,630c1.12-5.83,6.54-6.09,10.58-7.74,14.46-5.93,29.28-11,43.57-17.34,34.13-13.46,59.93-36.78,87.16-60.86,40.36,19.15,83.11,40.5,129.1,36.11-22.17-9.29-47-9.33-70.07-15.84-22.39-6.24-44.58-15.61-62.72-30.24-96.21,83.62-239,95.77-350.69,36.53-1.62,3.34-1.22,6.37-1.19,10.22,5.29,2.92,7.64,4.8,11.88,10.19l-11.37,1v10.33c18.53,6.45,37.08,12.78,55.52,19.4,5.16,1.86,11.22,2.53,14.24,8.26h144Zm-352,0c.83-6.08,6.41-6.08,10.38-7.7,51.14-17.34,88.12-37.53,126.9-75.57V534.59c-99,82.84-238.52,96.57-352.72,37.28l-1,9a58,58,0,0,1,16.64,11.79c-5.21,5-10.74-.49-16,2V604c17,5.88,34.29,11.76,51.48,17.78,5.25,1.8,11.05,2.81,14.25,8.22Zm-354,0c3.12-6.44,9.75-7.59,15.42-10.13,21.93-10.39,43-16.15,62.22-32.41-6.76-2-10.42.71-14.23,1.7-21.24,5.53-42.26,12-63.68,16.69-43.09,9.72-85,6.55-129,4.09,10.64,15.13,44.61,12,62.35,16,4.55.58,9.49-.18,12.89,4Z" transform="translate(0 0.28)"/>
<path d="M7358.12.06c24.92,9.38,49.77,17.28,75.33,26.21V50.05c25.92-14.58,48.73-31.28,77.12-40.89,5-1.84,9-6,13.54-9.08h-54c-10.48,9.65-22.3,17.33-35.77,25.27.56-8.35-4.06-10.74-9.79-12.43C7414,9.78,7403.26,6.55,7394.11.08h-36Zm-348,0c19.08,8.84,39.45,14.53,59.05,22.13,6.73,2.49,13.27,5.15,20.92,1-.16,9.43-8.51,9.89-10.95,17.65l1.65,1.73c21.12-11.93,41.4-25.42,64-34.5,4.7-2.06,8.87-5.34,13.29-8.06h-48c-8.25,9.27-16.69,18.28-29.74,23.88.71-13.91-14.25-11-22.58-16.14-5.34-2.29-10.44-5.13-15.64-7.74Z" transform="translate(0 0.28)"/>
<path d="M7434.12,630h60c-14.91-14.86-39.41-17.15-57.09-24.43-8,6.76-30.62,16.44-30.9,24.39h12c2-7.46,6.46-12,15.14-12.17ZM6754.12.06c-3.92,8-11.66,11.59-12.74,21.3-.71,4.79-7.2,8.89-11.47,12.93-1.84,1.73-5.11,2.19-3.51,5.86,25.28-10.2,51.19-26.33,75.69-40.09h-48Zm-286,0c-3.62,2.64-6.9,6-10.91,7.8-31.14,13.53-57.24,34.61-85.09,53.53v8.06c6.85-1,16.37-13.81,23.24-18C6425.8,25.88,6463.61,14,6500.12.09h-32Z" transform="translate(0 0.28)"/>
<path d="M6398.09.06c-2.52,4.87-5.91,9-5.66,15.43.15,3.77-3.94,7.7-6.94,13A369.33,369.33,0,0,0,6442.1.09Z" transform="translate(0 0.28)"/>
<path d="M6040.08.06c1.07,8.48-1.79,15.27-4.65,23.39.46,0,1.77.56,2.63.14,14.35-8.14,31.33-13.12,44-23.53Zm610,629.94c-.92-6.39,4.74-7.24,8.35-9.52,12.59-8,25.37-15.63,38-23.52a15.35,15.35,0,0,0,5.89-6.55c-20.39,11.48-40.59,23.19-63,30.48-5,1.72-11.21,2.64-13.28,9.07h24Zm14-629.94c19.68,9.38,40.18,15.76,60.92,22.69l.59-8.6c-11.44-3.92-21.82-7.06-31.48-14.11h-30Z" transform="translate(0 0.28)"/>
<path d="M5686.07.06l1.2,12.42L5682,21.06c2.09,0,3.4.38,4.31-.06,13-7.18,28-11.87,39.77-20.88h-40ZM7118.07,630c-1.19-1.51-2.06-3.75-3.61-4.41-10.68-4.52-21.5-8.74-32.31-12.94-.71-.28-1.79.4-3,.72l.92,16.63ZM6316.07.06c17.54,7.78,35.88,13.82,54,20.15,5.83-14.82-11.74-6.78-25.95-20.08h-28Z" transform="translate(0 0.28)"/>
<path d="M5966.08.06c16.49,7.27,33,12.68,50.25,18.72,2.39-5.15,1.27-7.31-3.74-9.12-7.06-2.55-13.67-6.34-20.47-9.6Zm792,629.94c-4-8.51-22-11.82-32-17.26V630ZM6112.08.06a156.65,156.65,0,0,1-34.27,21.44c1.25.76,1.77,1.31,2,1.21,19.28-7.77,39.51-13.64,58.19-22.66h-25.92ZM4704,630c-3.83-10.51-27.1-9-38.13-9.15L4670,630ZM7414.12.06c15.49,13.36,25.37,15.22,38,0Z" transform="translate(0 0.28)"/>
<path d="M6398.09,630c-6.1-9-16.08-10.1-26-13.86V630Z" transform="translate(0 0.28)"/>
<path d="M6298.09,630c-.92-8.3,12.15-12.16,18.17-17.24-8.62,4.09-37.65,9.07-38.17,17.24Z" transform="translate(0 0.28)"/>
<path d="M5944.08,630l6.29-10.79c-9.37,1.92-18.37,2.62-24.29,10.79Zm94,0c-4.24-6.92-11.41-8.51-20-11v11Z" transform="translate(0 0.28)"/>
<path d="M5758.07.06l-5.7,8c10.86.29,19.5-3,27.7-7.95Z" transform="translate(0 0.28)"/>
<path d="M5680.07,630c-2.41-7.18-9.08-7.49-14.8-9.69l-5.2,9.69Z" transform="translate(0 0.28)"/>
<path d="M7064.11.06c2.64,5.57,7.71,7.19,12.83,8.3l9.17-8.3Z" transform="translate(0 0.28)"/>
<path d="M4466,630c-.22-3.55-1.27-7-5.42-6.73-3.91.3-9,.33-8.58,6.73Z" transform="translate(0 0.28)"/>
<path d="M7066.11,630v-8c-5.48.21-9.39,1.93-10,8ZM6714.11.06,6723.42,7l4.69-6.9Z" transform="translate(0 0.28)"/>
<path d="M5632.07.06c3.53,1.28,7,2.83,10.65,3.62.82.18,2.22-2.34,3.35-3.62Z" transform="translate(0 0.28)"/>
<path d="M6714.1,630c-.61-1.68-1-4.62-1.88-4.8-3.41-.69-5.35,1.55-6.12,4.8ZM4328,630c-5.62-4.81-7-4.81-10,0Zm1304,0-2.49-4.21-5.44,4.21Zm732,0-3.89-3.7-2,3.7Z" transform="translate(0 0.28)"/>
<path d="M5280.06.06c4,2.65,8,4.14,12,0Zm316,629.94c-4-4.89-4.39-4.89-8,0Zm-94.85-457.17c66.94,7.73,115.69,17.44,154,78.38,8.3,9.66,9,20.57,8.67,32.45-.55,18.31-.05,36.65-.21,55,.22,12.41,10.34,21.93,15.14,33,17.9,28.51,49.34,51.82,82.86,52.9,3-6.24,7.52-3.6,11.95-3,17.7,2.4,38.24,5.71,53.54-5.93-22-6.42-6.25-20.36-23.6-21.35-23.75-.86-48.14-3.95-65.46-22-6.11-5.91-13.5-11.09-16.68-19.28,12.36,5.35,20.78,18.43,36,17.87,5.43-10.2-21.5-17.08-29.3-36.89-4.4-12.81-10.79-26.53-10.25-40.29,6.35-64.85,23.16-106.9,76.64-146.53-59.4,11.07-97.28,71.51-100.51,128.72l-17,2c-7.88-50.71,20.81-96.47,42.54-139.61-13.8,7.2-25.81,16.67-32.62,30.54-9.9,24.32-26.31,47.16-22.66,74.61-6.65-.1-8.48-4.85-11.34-8.11-34.73-48-92-81.35-152.18-64.31.16.6.34,1.2.52,1.81ZM7079.15,412.66c-7.14,5.6-9.31,12.72-10.21,21.66l9.88-3.55c2.07,12.33.39,25,1,37.44,1.23,11.8-4.74,12.36-7.95,21.4,12.35,3,20.83,10.15,31.2,16.59,64.77,37.5,155.47,40.45,221.15,3.75,35.26-22.88,68.66-51.92,82.39-93.08,2.47-6.12,2.7-12.92-2.37-20.39-8.74,9.52-13.49,20.14-23.93,27.79-27.26,24.46-51.26,53.06-86.47,66.52a108.51,108.51,0,0,1-62.64,6.76c-56.12-2.59-99.32-13.64-137.44-57.12C7086.58,431.73,7075.83,426.28,7079.15,412.66ZM6727,429.1c-2.73,20.55.76,39-3.54,59.79,91.64,72.54,243.9,60.78,312.42-38.39,8.47-10.64,11.81-24.57,10.73-37.92-5.22-1.25-6.31,2.17-7.83,4.45-6.18,9.3-14.17,16.46-23.38,22.82-30.48,24.13-59.85,51-99.24,59.28-36.16,6.06-74.31-.37-109.28-10.46-32.05-11.74-58.15-33.53-80.15-59.18l.23-.2Zm-1586.15-254c28.06,4,58.85-.29,85.11,11.45,27.9,16.14,56.95,32,74,60.55,8.15,11,10.63,22.66,10,36.08-.86,17.29-.17,34.64-.24,52a18,18,0,0,0,3.31,11.1c14.89,22.8,35.67,64.41,66.92,64.31,13.24,0,25.49,7.49,38.2,10.41,7.86,1.85,18.52,2.14,22-6.9,3.47-5.6-14.64-13.53-18.53-17.21-22.84-13.37-48.25-24.12-59.73-49.92,7.09-1,6.58-5,5.75-9.61-2.87-16-5.5-32.1-8-48.19-6.33-51.68,29.22-94.21,61.35-130.52-18.33,1-34.35,19.8-45.37,32.79-31.23,42.88-38.36,70.06-30.5,122.42-12.33-2.6-12.58,7.6-17.21,13.68-8.93-1.21-13.91-51.62-15.51-61.44-.57-26.27,10.59-50.35,16.05-76.07-8,3.28-9,10-11.45,15.12-10.38,14.29-6.5,20.5-7.25,37.47-6.28-1.42-8.48-5.71-11.43-9.1-34.92-47.87-98.8-83.41-157.78-60.74.14.81.26,1.59.37,2.37ZM6372.42,434.23v58.5c89.35,60.86,221.83,59.68,295.9-25.08,8.74-9.14,13.32-19,13.56-32.22-57.41,31.09-111.58,84.64-182.41,66-52.74-8-91.68-26.5-127.1-67.17Zm-354.27,59.53c85.66,53.34,203,61.25,280.93-10.19,8.7-8.64,16.16-17.76,18-30.78-25.55,8.8-48.34,24-73,35.24-74.49,38.74-168.43,11.55-224-47.81-4.23-2.13-1,52.95-1.93,53.53Zm-61.63-33.82c-59,22.51-117.78,63.91-183.63,41.76-41.18-9.55-78.8-28.14-107-60.3-2.57,6.73-3.25,34.48-1.48,51.27,77.94,49.77,183.39,62.23,261.63,6.35,13.07-10.13,27-20.94,32.61-37.21l-2.09-1.89Zm-983.45-130.8c-11-13.76-9.78-30.16-16.52-45.61-1.85,18.07-.26,34.61-.91,52.57a20.57,20.57,0,0,0,4.06,12.9c12.74,20.9,26.36,40.73,46.36,55.44a42,42,0,0,0,27.63,9.79c15.21.22,31.37,12.07,46.41,5.86,6.44-3.36,6.85-9.3.76-13.3-19.44-12.54-40.15-23.36-57.2-39.23-10.92-8.52-6.09-22.58-10.53-34.2-10.49-43.36-14.32-65.49,4.09-107.93,11.79-25.63,30.84-47.54,51.59-66.5,1-.81,1.53-2.09,1.63-4.63-53.07,19.85-89.36,88.33-81.64,143.47,2.46,21.27-7.32,11.79-15.75,31.35Z" transform="translate(0 0.28)"/>
<path d="M7286.79,437.5a97.62,97.62,0,0,1-36.41,19.13c-11.92,3-24.28,5.4-34.09,13.25-19.7,20,77.15,16,99.85-14.66,15.3-15,29.36-30.83,40.64-49.12,25.22-30.27,27.53-87.56-9.68-108.56-10-3.84-10.12,10.25-10.69,16.73-.49,22.62-.55,45.25-1.08,67.88-.78,18.44-12.76,37.44-31,41.64-9.27.93-15.44,3.62-23.9,11ZM6983.43,330.36c0,14.63-1,29.34.25,43.86,3.07,45.35-51.84,71.72-88.44,83.9-11.77,3.12-25.73,4.93-32.34,16.64,14.71,12.78,37.76,4.67,55.14,2.3,41.21-9.16,68.89-47.46,90.72-81,17.21-29.24,18.64-75.12-11.84-96-17.17-9.72-12.56,21-15,30.24h1.53Zm-57.92-102.9c-12,4.42-25.23,7.73-33.56,18.11-22.9,27.12-22.06,33.87-4.59,65,7,12.5,18.8,11.51,26.59-.86,7.88-13.73,19.22-7.88,29.65-1.12,7.88,3.36,14.86.68,17.64-7.37,8.49-29.34,38.14-23.14,29.19-37.06-6.66-12.26-21.53-13.67-33.52-17.63-17.87-4-14.71-16.07-31.4-19.14ZM5557.9,500.19c-7-3.63-14-2.5-20.62-1.08-78.13,26.17-167.82,9.05-227.16-49.41-.33,15.75-.45,27.43-.36,42,71.88,44.25,180.09,70.56,248.15,8.55Zm-354.76.42c-9.32-3.14-17.49-1.31-25.52.41-73.38,26-166.57,5.45-221.18-51.82-1.15,3.56-.53,38.6-.67,43.09,69.26,44.79,161.64,62.87,235.46,19.94,4.62-2.51,9.21-5.19,12-11.6ZM6521.93,278.84c.78,15.42,20.14,56.91,35.86,29.55,4.7-12.34,14.88-15.11,24.83-6.74,5.89,7.85,20.76,8.26,24.26-2.77,5.77-25.44,35.89-23.62,25.85-37-8.89-13.46-26.63-11.58-40.3-16.52-5.2-1.46-9.71-4.19-12.46-9.24-4.78-9.06-16.57-6.3-24.19-3.23-18.07,9.34-31.34,25.4-33.82,46Zm108,50.38c.9,18.69,1.46,33.64,2.43,48.56.4,6.15,0,12-3.06,17.38-15,31-23.75,33.58-52.26,49.37-16.46,11.37-36.39,14-54.37,21.91-14.12,7.28-8.07,15.34,5.64,14.53,23.88-1,49.61-4,68.69-19.78,25.06-21.23,49.15-45.23,62.34-75.63,12.4-25.87,11.37-65.14-14.46-82.91-16.47-11.29-13.42,20.47-15,26.6Z" transform="translate(0 0.28)"/>
<path d="M6548.22,215.25l-6.31-5.71c-1-12.78,28.09-13.62,37.77-18.09-42.39-25.5-129.39,41.91-116.91,90.34a14,14,0,0,0,4.94,8.22c10.3,8.18,18.84,17.57,24.43,29.64,2.7,5.83,7.4,7.55,13.22,6.07,5-1.28,7.54-4.65,6.48-11.73-3.52-31.18-.26-67.28,26.71-87.35,3.81-3,8.38-5.58,9.66-11.42Zm-378.62,63.2c-1.19,16.45,17.95,53.2,31.44,27.08,4-11.94,20.09-15.62,28.9-6.7,6.08,8,20,7.63,23.27-2.87,3.74-10.41,9.8-18.61,20.52-23.13,5.73-2.42,6.35-7.23,2.44-12.28-11.8-15.49-45.74-7.9-56.31-23.59-4.45-8.38-15.82-4.88-22.48-1.89C6181,245.34,6170.18,259.37,6169.6,278.45Zm143.66,73.79c-1.67-9.1-2.32-18.55-5.35-27.18-2.33-6.65-7.39-12.43-11.73-18.23-6.47-8.82-17.51-4.82-18,5.87-4.54,24.45,7.21,50.66,1.91,74.86-5.42,11.35-11.32,22.65-18.52,32.92-16.65,19.5-56.68,36.86-81.78,43.32-5.9,1.64-14.28,5.94-14.8,12.48,1.75,3.47,8.87,4.93,12.92,4.47,37.85,1,65.57-18.37,91.6-44.06,16.09-12.91,23.57-31.8,32.89-49.42C6310.27,376.83,6312.8,365.15,6313.26,352.24Z" transform="translate(0 0.28)"/>
<path d="M6188.76,219l-9.14-5.6c2.71-18.31,24-16.57,37.25-22.46l-.25-2.24c-44.94-10-125,46.1-104.22,94.73,6.72,7.72,14,14.9,20.66,22.7,4.68,5.85,6.44,19.84,16,17.69,20.57-3.44-10.85-57.47,29.36-92.69,3.55-3.32,6.38-7.41,10.36-12.13Zm-372.37,62.52c.87,10.1,6.87,32.89,21.61,31.43,5.44-.44,6.51-4.61,8-8.88,3.72-11,21.14-15.31,29.65-7.51,4.21,5.62,11.8,9.3,18.24,4.88,4-2.58,5.71-7.35,7.19-11.65,3.89-19,34.45-17.24,17.68-31.83-15.75-11.31-40.91-6.77-54.88-20.13-6.59-9-17.34-4.1-25.05.25-13.35,8.81-22.17,25.53-22.39,43.47Zm142.73,67.89c-1.61-8.11-2.19-16.61-5.13-24.2-3.5-10.95-22.39-34.49-28.28-12.79a89.85,89.85,0,0,0-.84,25.73c1.3,11.83.48,23.87,4.27,35.58,1.36,15-11,29.48-17.48,42.55-12.6,20.81-37.55,28.15-58,38.93-12.6,5.48-27.29,7.23-37.68,17-6.1,6.32,5.38,9,10.28,8.31,23.12-.85,44.86-5.73,63-21.45,21.71-17.18,43.57-35,53.79-61.66,7.24-15.41,17-30.17,16.17-48Z" transform="translate(0 0.28)"/>
<path d="M5831.61,221.11l-9.41-6.25c4.91-18.53,22-18.93,35.75-24.46-27.5-7.79-60.32,13-79.75,31.49-14.75,12.6-23.21,30.3-23,49.85,3.56,18,24.77,27.37,30.77,45.11,1.71,4.12,4.62,6.42,9.43,5.15,9.82-2.42,5.69-13.52,6-20.69.15-10.27-.3-20.64,1-30.77,2-20.65,16.47-34,29.2-49.43Zm-1039,304.15c-6.16-9.21-15.09-10.44-24.74-9.93-60.14,4.46-118.38-17.74-164.55-55.56-2.32,3.48-1.57,5.27,1.43,7.43,16.7,12,33.23,24.27,49.8,36.47.22.16.25.58,1,2.56-20.49-4.86-34.41-16.16-54.09-24.41,1,3.45,1,6.18,2.16,6.87,51.11,32.85,111.57,55.09,172.95,43.08,5.64-1,11.81-1.61,16-6.51Zm668.39-246c2.05,5.81,4.1,25.28,13.26,17.06,5.67-6.17,12.69-6.35,20.06-7,8.22-.78,16.16-3.84,24-6.27,18.23-5.65,18.13,17.39,28.1,5.89,5.72-7.72,17-13.8,17.05-24.21-.07-1-3.19-2.68-4.75-2.51-22.15,1.6-35.37-20.05-58.85-14a60.32,60.32,0,0,1-16.6-.11c-17-3.21-20.18,18.35-22.31,31.06ZM5146.7,248.2c-7.15,1.85-26.34-1.07-33.73,7.69-6.81,9.75-9.06,20.58-5.28,32.19,2.18,6.68,4.42,7.48,11.13,5.86,15.47-3.73,31-7.17,46.55-10.6a28,28,0,0,1,19.3,2.74c8.47,4.29,23.28-4.72,23.15-14.13-1-8.39-21.93-13.73-29-18-8.88-3.9-18.08-6.76-32.07-5.79ZM6016.11,129a910.68,910.68,0,0,1,92.25-69.35c-22.54,3.7-72.94,34.56-92.92,56.84-40.81-25.2-84.34-45.12-133.3-43.74-46.49,1.74-99.31,9.62-134.17,43.1,99.73-52.54,172.79-45.38,268.14,13.09ZM5462,477.17c21.61,11.9,74.92-21.93,93.42-35.9,22.8-18.51,36.12-42.14,40.67-71,2.17-20.38,7.68-45.43-6.37-62.65-6.06-8.07-19.32-3.39-17.51,6.9,4.34,24.64,17.28,34.17,7.83,62.63-11.48,37.65-35.93,72.63-75.95,83.1-9.93,4.28-40.76,5.78-42.09,16.95ZM5110.53,196.66c-13.55-4.68-28.2,13.39-38.89,20.19-8.69,6-8.84,16.6-11.88,25.66-8.68,20-1.11,55.17,24.54,56,6.31.65,8.56-1.16,9.49-7.3.86-14.41,8-32.24,3.9-45.94C5089.58,228.44,5104.43,212.1,5110.53,196.66Zm352.13.78c-19.55,3.16-33.44,15.75-45.26,30.44-9.89,15.65-6.57,35.87-3.54,53.21,2.79,14.83,18.24,15.24,30.24,21.33,4.36-16.48,1.8-32.89,8.68-48.91a15,15,0,0,0-1-11.21C5444.92,231.7,5459,211.55,5462.66,197.44Zm-360.83,278c16.53,10.09,29.31,1.09,44.59-3.48C5197,456,5239,416,5244.25,361.34c1.46-18.67.26-45.78-13.38-59.18-11.36-8.47-16.12,7.48-11,15.86,28.46,56.82-15.55,129.19-73.62,144.75-15.64,3.93-29.22,6-44.46,12.68ZM4631.07,332.88c-4.26,18.08,9.28,29.2,10.24,43.74-20.47-18.73-32.42-42-39-69.15-.19,14.95-4,30.95,5.73,44,13.32,15.92,19.31,39.24,40.57,46.92l4.42-6.55c4.05.35,7.18,3.48,10.4,5.68,14,11.49,31.26,14.16,48,18.16,3.6.08,9.4,1.45,10.11-3.34-2-8.78-19.37-13.58-26.74-18.27C4668.41,379.54,4655.21,350.61,4631.07,332.88ZM6527.19,60.43c-53.14,5.63-109,30.69-140.34,75.42-11.32,16.36-18,17-14.46,39.12,10.86-2.74,17-18,24.28-26,28.7-42.27,73.1-65.3,120.28-81.13,3.46-1.37,7.62-2.11,10.26-7.36Zm-1823.52,200c2.38,51.06,38.37,24.37,33.64,9.2-6-15.68-.7-29.93,2.7-44.64,2.68-7.62,3.67-25-8.94-16.68C4719.18,217.16,4706,246.06,4703.67,260.43Zm136.93,15.7c-.24-2.06.09-3.91-.61-4.47-8.15-6.54-14-15.85-24.76-19.3-15.3-5.52-31.07-2.82-44,6.67-36.11,18.7,1.53,31.8,22.92,25.42,15.41-4.33,30.22-9.64,46.55-8.36Zm1204.65,253.8c35,25.35,77.75,40.66,121.07,34.47,44.51-5.82,100.25-10.17,132.68-44.4C6218.29,566.23,6129.79,566.25,6045.25,529.93Zm-28-316.72V195.5c-29.76-28.61-64.89-49.14-105.48-57.59-20.78-4.32-62.76-11.59-78.87,4.94,8.28,3,16.15.88,24.52.32,63.76-9.17,118.28,24.66,159.85,69.94ZM6164,61.05c-56.05,7.76-108.71,40.44-139.73,87.78-6.87,5.66-7.54,12.53-5.65,21,5.56-1.66,7.6-6.52,10.41-10.29,32.84-46.94,82.46-76.63,135.5-95.73ZM4650.75,325.45c2.28-11-.5-21.82-1.46-32.8-3.35-23.63,3.35-46.11,11.25-68.16,6.41-22.22,21.49-38.66,37.07-55.05l-1.29-1.53c-45.36,25.82-62.88,79.51-58.3,129.44,1,10.15,2.83,21.07,10.34,28.72l2.43-.58ZM5665.37,167.76c34.38-48.34,83.43-81.86,138.35-102.56l-.31-2.16c-57.83,6.67-103.66,44.1-137.37,90.09C5662.21,157.59,5664.15,162.41,5665.37,167.76ZM4822,457.23c43.25-19.75,67.33-59.37,67.73-106.74.07-7.06-1.06-13.79-8.15-19-4.58,5.3-4.46,11.21-4.65,17.67,1.15,45.06-23.93,77.92-56.4,106l1.47,2.12ZM7515.47,455a368.69,368.69,0,0,1-80.61-81.79c-2,10.06-.76,19.49-.84,28.85a4.22,4.22,0,0,0,1.18,2.64c22.32,22.68,46.62,47.21,79.59,52.46l.68-2.16ZM5937,525.68c-86.14,43-142.59,36.74-232.12,13.78,33.09,19,70.38,30,108.7,24.58,43.11-3.54,88.61-10.39,124.34-36.61ZM4350.75,261.89c1.16,6.64,1.82,11.9,3.06,17,1.61,8.12,11.68,9.8,14.88,1.71,6.55-7.35,4.23-16.49,6.87-25.24.36-6.3,16.9-42.64,1.09-36.06C4363.49,229.25,4352.94,245.75,4350.75,261.89Zm82.58,23.58c8.32-3,17.09-5.25,24.75-9.48,4.76-3.66,12.71-15.91,4.4-20.64-12.93-10-35.69-5.06-42.63,8-5.17,9.69-2.63,22.21,13.48,22.2Zm-152.64,57.19c-3,6.18-1.14,10.78,1.45,14.27,11.17,15,18.93,33.72,36.69,42.26,13.29,6.39,26.32,15.37,44.74,14.91-4.21-11-13.52-12.9-22.71-17.67-14.39-4.67-24.24-15.81-34-26.59-8.37-6.63-16.2-13.72-21.59-23.15-.75-1.32-2.37-2.15-4.53-4Zm675-99.28c-8.1-3.21-11.71-8.8-15.53-14-20.92-28.77-51.95-51.78-87.52-57.35l-.72,1.89c48,23.36,75.68,36.59,103.71,84.36l17.63-67.54-1.35-1c-7,6.16-10.3,15.28-15,23.15-2.67,10-.67,18.81-1.24,30.54ZM7146.3,451c-3.82-8.63-11.31-12.16-16.8-17.55-5.7-5.6-11.78-10.82-17.31-16.58-12.8-12-18.59-25-32.32-37.47.95,10-2.19,20.51,1.71,27.74,19.35,17.33,37.3,39.95,64.77,43.86Zm-2660.61-5.48c31.41-18.23,47.42-50.56,49.09-86.21.16-3.72.79-9.2-4.76-9.28-5.26-.07-5.23,5.34-5.57,9.14-2.32,33.06-21.81,59.36-40.16,85l1.42,1.33Zm2302.39,3.09c-8.83-12.32-21.14-21-31-32s-19.45-22.64-29.84-34.8c-1.79,7.7-2.89,19.34.25,25.5,18.13,15.8,34.57,39.55,60.62,41.32Zm-2697-197.21c-17.24.27-24.28,6.66-24.11,20.35.11,8.76,4,12.23,12.5,10.85,4.57-.74,9.06-2,13.61-2.94,8.2-1.63,12.41-7.13,14.4-14.74,3.84-11.3-7.59-13.73-16.4-13.52Zm-83.56,33.45c8.26-10.58,19.56-49.65,17.9-61.54-13.66,4-20.89,18-26.41,29.83C3994.7,264,3997.72,277.38,4007.52,284.85Zm2421.31,161c-18.27-20.42-38.14-39.89-55.78-61-1.47,7.11-2.94,18.56.62,24,16.14,15.11,31.46,32.7,53.68,38.91.51-.65,1-1.31,1.48-2ZM4137.62,440.7c18.4-5.69,55.76-69.3,38.48-83.57-4.28.16-5.42,6.4-6.1,9.87-3.47,27.66-18.54,49.66-34.44,71.59C4135.62,438.69,4137.62,440.57,4137.62,440.7Zm173.8-241.21c-23.22,19.48-35.16,78.57-20.6,102.78,3.48-2.73,2.81-6.45,2.49-9.79C4289.64,260,4303.7,230.48,4311.42,199.49ZM3926.83,349c.82,19.59,62.56,76.91,79.61,60.77a41.55,41.55,0,0,0-17-11c-26.13-9.61-43.95-29.49-60.45-50.92l-2.17,1.12ZM6073,446.15l-55.24-59.27c.91,9-2.35,16.63,2.16,23.18,14.37,10.33,35.38,38.07,53.08,36.08ZM5664.58,389c-2.61,11.24-1.52,21.35,8.88,28.67,14.1,8.74,22.59,26.5,41,27-13-20.55-33.36-36.05-49.91-55.66Zm-93-246.38c35.91,17.31,64.42,34.87,91.64,63.84v-8.89c-27.4-23-53.63-54.17-91.64-54.93Zm-262.72,63.11c.72-5.49,2.16-9-1.5-11.65-18.21-13.32-36.28-26.84-54.76-39.77-14.09-9.55-29-15.23-46.3-16.22,40.59,17.62,74.25,32.38,102.56,67.64Zm-1358,5c-16.15,13.75-24.16,52.9-15.76,72ZM5665,123.57l63.52-51.52c-23.33,6.66-40.78,24.8-60.41,38.09C5662.57,113.82,5661.8,116.88,5665,123.57ZM7189.87,336.8c.43-19.93-25.28-15.56-26.73-1.36C7162.93,346.4,7190.67,354.11,7189.87,336.8Zm-1879,61.61c-2.18,6.28-1.14,10.25,4.14,14,4.76,3.41,8,8.89,12.44,12.82,9.7,7.42,18,17.72,30.08,21.11l1.17-1.93ZM6308.63,49.7l62.63,31.42V71.67c-20.61-8-39.73-19.78-62.63-22ZM6825.39,346c13.75.53,10.24-22.3-1.38-21.4-16.91.91-15.87,21.77,1.42,21.41Zm457,21.86c12.46-9.45,14.13-28.77,3.93-39.24-4.9,6.22-7.32,28.57-3.92,39.22Z" transform="translate(0 0.28)"/>
<path d="M6017.1,78.74c.69-4,1.64-7.19-2.72-8.92-14.62-5.22-28.63-12.77-43.61-16.7C5974.4,57.91,6005.2,75.06,6017.1,78.74ZM4273.66,372.85c-13.58-15.76-18.67-35.26-23.85-54.71l-2,.46c.25,1.95-.66,23.21.64,24.32,8,10.11,14.07,22.68,23.47,31.31ZM4517.9,179.09c7.91,7.95,17.69,10.72,25.87,16s16.57,10.76,23.75,15.44C4558.63,196.25,4533,179.18,4517.9,179.09ZM6931.68,331.22c-5,10.94-4,21.7-3.35,32.88C6939.81,359.37,6941.77,341.18,6931.68,331.22Zm-453.53,5.55c.93-12.8-18-11.93-18.67-1.29-.77,9.29,19.27,13.33,18.67,1.29Zm-2752.7-69.51c-.33,11.23,13.65,7.22,13-3.71C3738.52,253.53,3724.31,257.34,3725.45,267.26ZM6122,336.35c.33-8.5-15.14-8.29-14.19.15.65,8.5,14.43,8.95,14.19-.15ZM4602.06,242c5.49-11.18,7.78-21.56,6.51-30.18-11.87-2.35-4.94,23.27-6.19,30.5Zm1977.67,94.24c-5.26,8.33-4.79,15.5-2.9,23.44,7.34-6.22,8.17-12.24,2.9-23.49ZM4361.62,519c10.24,9.09,13.31,9.4,22.58,2.35C4376.92,518.06,4370.23,517.7,4361.62,519ZM3894.76,324.16c1,7.88-5.89,18.24,6.79,24.17C3901.65,339,3898.38,331.61,3894.76,324.16Zm1865.85,4.9c-19.84,17.12,20.32,17.6,0,0ZM5490.2,77.4l34.6-1.79C5513.1,73.49,5501.47,72.34,5490.2,77.4ZM4957,398.72c-3.81,13.12,7.18,12.19,12.48,15.91ZM4602.37,242.25l-9.06-2.85c.85,7.18.85,7.18,7.73,14.4l1-11.8.32.32ZM4201.77,198,4181,184.2C4184,191,4190.45,195.1,4201.77,198Zm2525,231.3L6725,417.4c-4.87,2.8-5.51,6.81-4.54,12.35,2.3-.22,4.4-.42,6.52-.64ZM4992,440l11.33,7.72,1.44-2-11-7.7-1.76,2ZM6240.2,34.48h-11.59v.6h12ZM4954.77,202.26c1.95-6.57-.39-8.33-7.26-8.18Zm-709.19,48.12c2.2-3.46,3-6.35-3.42-8.12ZM6225.81,352l1.4-5.66-1.4-.64a5.92,5.92,0,0,0-1.19,6.21c.39,0,.79.07,1.19.09Zm145.66,76.64V424l-1.41-.2-.86,4.89Zm-353.79,88.57,5,3,1-1.38-4.3-3.93-1.69,2.32Z" transform="translate(0 0.28)"/>
<path d="M7079.76,103.41c-1.34-3.87-2-2.94-7.05-3.42l5.46,4.92Zm345.56-1.62,7.16,5C7432.64,101.05,7432.64,101.05,7425.32,101.79Z" transform="translate(0 0.28)"/>
<path d="M7788.91,111.31l-2.13-9.11-28.66-12-1.11,2c8.83,5.64,21.25,20.06,32.09,18.87Z" transform="translate(0 0.28)"/>
</g>
</svg>
