<svg xmlns="http://www.w3.org/2000/svg" width="630" height="10620" viewBox="0 0 630 10620">
<rect x="0" width="630" height="10620" fill="#fff"/>
<g>
<path d="M.05,7182.11c2.4-4.28,5.44-8.33,7.08-12.88,11.88-33.83,33.53-60.55,54.7-89l11.43-1c-4.78-21.18-18.47-39.52-24.83-60.38-34.1-101.24-7.91-221.51,70.11-295.58-54.06-77.51-61.5-184.44-8.12-264.23,24-30.38,42.46-74.82,85.81-79.16,4.55-.5,9-1.9,11.64-6.22-.83-.84-1.28-1.65-1.63-1.6-7.84,1-12.15-3.26-17.06-9-45-48.77-71.48-123.41-50.14-188.14,7.74,3.95,8.68,5.49,7.89,13.77-12.9,70.68,11.43,141.46,71.65,182.62l-2,2.48,23-2.89c-.25-4.87-4.49-6.77-7.66-9.2-34.21-27.94-60.36-67.66-65.54-111.75-1.92-28.35-7.37-62.69,16.55-83.67,2.16,7.64,1.08,13.25-.1,19.11-6.47,32.29-7.05,64.14,7.49,94.86,16.19,37.51,45.87,65.26,78.59,88.51,2.61,2,6.7,2.76,10.12,2.81,18.66.26,37.33.22,56,.06a21.46,21.46,0,0,1,13.07,3.69c39.06,17.82,71.08,44,79.3,88.38,2.18,15.71,11.06,30.9,5.49,46.88l-6.37-19.14c-3.57,4.36-2.51,8.07-2.5,11.39,0,11.83-3.84,48.7-18.08,50.79,1.32-9.47,6.41-21.33-7.44-21.3-11.13-1.17-5.46-15.45-6.25-22.93,1.13-22.38-3.06-50.29-25.09-61.75a86.89,86.89,0,0,1,6.19,23.68l-2,1.56c-9.32-2.83-14.06-11.77-20.15-18.68-14.8-18.43-33.82-26-57.25-22.76-38-.42-74.81,6.21-105.44,30.12-19.46,15.77-40.67,37.89-39.57,64.74.58,27.85-8.26,57.09,1.36,84.25l14,1.6c1.19-33.06-5.37-69.58,19.72-96.19,9.88,38.73-21.12,60.22,9.42,122.73,16,34.11,43.29,58.88,73.94,79.6,6.32,6.5,13.77,8,22.56,7.66,14.64-.6,29.33-.36,44,0,26.18,6.18,50.44,23.68,69.66,42.18a81.35,81.35,0,0,1,22.87,40.26c3.9,20,15.29,51.13,7.26,70.08l-7.08-17.71c-6,19.25-5.5,39-22.65,53.77-2.19-9.45,2.9-18.59-8.2-21.55-17.05-4.11,12.22-52.37-22.55-85.56-1.73,9.21,5.75,16.72-.65,24.95-26.3-21.2-33.36-48-75.1-44.5-52.92-4.06-108.18,13.29-136.73,60.89-4.53,6.6-5.73,14.35-6.11,22.69.65,14.77-18.22,80.06,3.09,81.23,14.13,1.12-3.44-59,29.72-87.63l5.67,11.14c22.06-28.59,46.86-66.06,88.11-60.3a21.7,21.7,0,0,1,13.23,6c7.45,9.09,33.42,24.79,34,33.94,1.33,8.55-6,12.48-13.47,11.24-17.8-3.24-35.19.71-52.67,2.92-18.74,2-29.94,17.82-40.43,31.69-16.58,19.31-15.94-22.14-30.47,39.66l-7.51-11.63c-11.33,62.95,49.89,128.19,104.24,149.88,17.07,1.12,35-1.48,51.78,1.19,31.9,14.49,63.3,32.22,81,63.74,13.63,25.83,14,56.12,18.62,84.37.62,4.28.5,8.68-4.08,12-8.34-3.39-3.59-12.89-9-18.23-9.23,15.44-7.08,42.83-26.38,49.19-1.64-7.53,2.27-16.49-6.87-19.77C376.57,7247.48,408,7196,376,7168.2c-2.59,7,3.12,14.29-2.33,20.67-18.14-2.93-24.88-45.69-74.37-45.69-49.14-3.25-101.74,8.67-132,50.68-5.93,7.91-10.1,16.27-8.84,26.75.15,17.88-20.66,68.71-1.95,79.41,12.38,4.15,1.46-59.27,32.5-84.28l5.87,8.05c4.66-1.08,6.72-6.09,9.83-9.34,18.77-23.79,44.26-49.86,77.14-45.53,15.73,1.17,27.92,21.15,41.09,30,8.33,5.14,12.32,22.71-1.06,23.2-15.66-.8-28.65-3.91-44.8,3,13.7,5.48,24.36,11.27,36.82,18.31,9.57,5.72,11.87,18.49-.58,25.65-10,5.77-10.93,13.6-4.75,23.8,15.08,23.7-13,19.94-23.49,33.94-12,9.9-6.92,27.4-19.87,20.12-12.13-5.34-13.5-19-17.93-29.83-2.91-5.87-5.8-12.49-10.6-16.53-9.16-7.71-10.19-16.85-7.54-27,4.73-22.83,23.53-34.31,41.68-47.24-26.44-5.41-40.31,20.23-53.84,37.71-2,2.67-4.63,4.79-8.47,4.11-14.12-2.84-12.15,24.16-15.27,33.16l-8.71-8.8c-4.47,58.9,43,108.11,92.15,133.44,7.62,8.2,17.36,9.18,27.46,7.77,51.61-2.68,101.14,32.66,124.45,77.43,12.55,27.81,11.57,58.64,22.59,86.86,5.35-13.89,8.71-24.47,14.29-37.54,5-12.89,7.84-5.54,18-2.78,7-44.12-21.91-84.23-52.49-112.95-6.26-6.21-11.22-14-22.88-11,6.21-7.33,25.94-16.18,37.9-17.11a186,186,0,0,0-15,15l1,1.94q21.27,0,42.53-.07a5.75,5.75,0,0,0,3.54-1.5c49.58-42.09,89.41-113.2,89.2-179.2l-2.48-.36c-13.26,57.07-33.35,120.29-86.94,151.71,20-23.56,39.15-43.54,51.55-71.74,38.17-80.66,25.27-176.92-23.22-250.33,101.77-92.47,114.32-238.48,52.23-356.44,9.3,1.9,16.79-1.21,22.67-8.66l-1.29,8.17h11.84c11.6-15.2,22.13-30.9,29.47-48.59,1.58-3.82,3.49-8.17,8.84-8.47v18c-11.95,7.78-17,21.42-25,32.7-3.54,5.45-3.47,10.8-1.28,16.9q7,19.63,13,39.63c4.37,13,4.57,27.59,13.32,38.77v110c-7.52,4.16-7.55,13.73-10.15,21.08C607,6997.16,579,7044.3,542,7082.7c63.77,109.33,43.48,254.38-46.95,342.95-9.74,6.59-2.19,13.79,3.05,21.09,61.62,83.76,47.87,202.37-12.82,282.5,6.24,2.06,9-1.13,11.89-3.68,74-78.73,60.53-204,3.91-288.68,104.51-85.34,120.39-242.54,53.92-356.49l15-1c19.52-28.65,39.91-58.41,50.76-91.88,1.74-5.05,2.68-11.25,9.12-13.34v26c-8.62,1.89-13.53,22.69-19.86,29.94-10.72,16.91-23.09,31.19-32.34,49.27h12.85c13.35-20.59,20.94-46.51,39.43-63.23v22c-8.91-.25-17.94,24.52-24.19,31.5-4.47,6.58-5.52,12.79-2.16,20.37,8.75,19.78,14.7,40.48,18.92,61.7,1.33,5.34,2.63,11,7.4,14.37v108c-6.22,3.34-5.88,10.06-7.69,15.51-5.84,17.64-10.17,35.86-17.12,53-11.55,28.56-28.69,53.93-48.59,77.43-3.28,3.88-7.53,7.33-8,13.26H567.8c22.39-29,40.88-60.08,52.76-94.81,1.84-5.41,2.83-11.89,9.42-14.42v30c-9.44,2.43-7.5,10.69-10.37,17.48l10.37-3.4v22c-14.27,12.51-20.49,30.09-30.61,46.25,10.13,22.62,20.77,46,22.66,71.15.66,7.59,2.75,14.77,7.91,20.61v94c-6.59,5-6.37,12.91-7.7,19.81-7.85,56.28-37.72,104-75.52,145.44H560.9c15.57-23,32.72-44,43.23-69.92,7.89-14.06,14.29-47.31,25.8-55.36v40l-3.37,2.51,3.37,3.49v62c-7,3.61-9,10-10.55,17.28l10.55.72v64l-9.3-5.59c.44,10.14.9,33.49,9.3,39.59v86c-1.61,2.66-4.1,5.15-4.69,8-3.36,16.41-6.27,32.91-9.34,49.38,5.34-6.07,7.25-12.9,14-17.4v116c-5.44,2.57-7.62,7.33-9.24,13.15l9.24.85v76l-7.11-1.89c-.27,7.21.28,30.89,7.11,33.89v68c-1.22,1.43-3.25,2.71-3.53,4.3-1.21,12.23-6.18,24.59-3.53,36.79l7.06-3.1v230c-1.8.92-5.1,1.73-5.18,2.78-.83,11.42-1.16,22.88,5.18,33.23v34c-5.33,12-5.83,25-6.39,37.88-.18,4.19,2.16,6,6.39,4.13v250c-8.42-2-5.11,12.16-5.37,16.92a234.61,234.61,0,0,1,0,58.73c.51,6.69-4.66,21.71,5.41,22.42q.09,786.82.09,1573.82H.05V9150.17c8.39-.23.3-13.39,0-18v-154c2.91-5.33,5.47-10.67,0-16v-68c4.21-4.81,4.21-5.62,0-8v-84c3.08.2,5.59-.79,4.76-4.3-8.27-3.78-3.74-168.62-4.76-177.7,3.15-5.33,5.79-10.67,0-16v-64l6.57-12H.05v-72l7,4.62c-.62-10.33-2-19-7-26.63v-174c4.39-5.19,5.15-10.93,3.21-17.5l-3.21,1.5v-62a181.82,181.82,0,0,0,24.42-39.5c-7.34-4.12-8.87,16.94-24.45,25.49v-60l8.28,8.2c-.51-12-3-21.48-8.28-30.2v-184a36.52,36.52,0,0,0,5.69-22.68L0,7882.15v-56a255.44,255.44,0,0,0,24.39-35.64l-8.89-8.45c-2.12,10.46-6.26,19.79-15.5,26.09v-50l9.06,9.62c-1.83-11.18-1.74-22.55-9.06-31.62v-60c10.22,37.57,15.8,75.83,33.56,111.34l18.08.89A408.06,408.06,0,0,0,15.8,7852.8l1.09.48,45.37-64.9L75.12,7787c-71.24-114.21-52.55-264.49,45-356.53-59.83-82.63-61.19-197.16-.47-279.87,4.29-7.41,10.55-14.15,12.1-22.77l-1.94-1.28c-38.91,31.35-50,81.51-67.85,125.73l-2.73-.4c-.21-3.73-1.15-7.59-.49-11.15,3.92-21.48,8.53-42.78,15.23-63.56-2.87.13-4.47.89-5.12,2.14C26.47,7253.6,40,7347.89,80.82,7420c4,6.67,8.6,14.12,2.05,20.77C31.66,7497.18,2.61,7570.29,0,7646.15v-102c6.91-14.15,11.08-29.53,17.91-43.64,12.11-24.21,28.47-45.62,45.52-66.31l11.63-1.2c-10.63-24.36-23.95-46.19-30.8-71.93-26.81-99.77-3-214.06,75.8-284.17C45.6,6970.19,68.54,6862,142.29,6762.84l-1.64-1.47c-45,29.68-59.82,82.42-78.42,129.72l-2.19-.67c-2-28.77,15.16-55.34,20.25-83.27C15.77,6880.44,40,7000.47,85.66,7077.8c-13.22,7.33-20.54,22-30.84,32.78-28,31.63-40.11,70.83-54.82,109.49v-38ZM113.91,9186.27c5.42,15.18,6.27,16.33,13.09,16.74-3-7-7.51-12.25-12.88-16.93C91.35,9146,81.93,9103.9,74.9,9058.52c-6.55,12.76-2.05,27.31-6.91,39.44-18.65,3.43,16,78.51,24.86,87.34-3.27-15-11.25-28.47-10.64-44.32C93.36,9155.93,102.46,9171.65,113.91,9186.27Zm-2.79-1397.14,13.1-2.59c-53.08-73.17-63.18-163.93-28.5-246.91l-2.48-.82c-14.35,29.78-19.19,62.92-31.48,93.45l-2.61-.12-5.25-14.91-2.12.11c-9.43,59.72,10.43,117.09,40.21,168.09C-1.54,7889-22.77,8014.81,35.06,8142.34H53.78c-5.56,15.45-17.79,25.95-23,42.55,10.28-12.82,19.48-23.73,28-35.17,3.63-4.89,7.33-8.78,13.74-9C7,8011.79,19.87,7900.26,111.34,7788.87A2.75,2.75,0,0,1,111.12,7789.13Zm85-1063.13c3.42,5.2,3.42,5.2,9.61.21h-9.81c-40.24-48.73-73.42-110.18-63.67-175.62,6.89-33.22,11.25-70.48,35.9-95.89,23.35-24.62,50.88-42.43,84.1-51.53l1-14.27c-163.06,14.76-215.63,203.4-125.41,325.72,5.29,7.67,8.35,15.14,1.45,23.46-.65.78-.53,2.2-1.19,5.27,11.36-5.89,20.19-17.9,31.16-17.73,6.32.26,13.2-1.46,18.85.51,6.51,2.28,12.06-1.74,18-.16ZM340.84,7753.7c21.14-3.79,43.2-3.68,61.76-17,37.31-20.61,82.57-55.21,84.37-101.48-17.59,16.15-23.18,40.64-44.22,53.6-31.05,21.79-64.55,48.84-105,39.1-26.15-5.15-36.46-14.89-49.91-37.71-13.14,4.17-1.09,19.09-13.07,26.12,3.73,12.5,15.45,16,24.12,22.78-27-3.9-47.51-28.15-56.45-53.92-1.84-5.62-3.77-11.74-7.46-16.12-8.79-10.47-9.93-22.13-8.07-34.77,1.53-10.4,5.72-19.76,10.93-28.77,1.69-2.92,4.5-5.63,3.2-11.05-18.57,12.18-23.66,35-33.81,53.45-7.46,13.12,2.05,26.31,1,40.08l-12.45-4.37c0,48.57,84.87,108.56,131,104.25,55.53,14.44,102.84,53.21,112.73,112.25,4,15.67,4.53,30.74,12.34,45.44,4.25-11.88,6.52-19.9,11.45-30.6,5.67-11.36,5.9-11.24,18.48-8.81,6.9-48.08-31.42-86-62-117.8H406.05c-.22,3.65,2.83,5.22,4.95,7.61,13.49,11.23,24.05,24.95,33,39.83,3.71,8.21,17.42,27.55,10.39,35.42-22.53-32.45-49.36-59.78-82.23-81.19,38.14-14.08,78.32-27.22,105.78-58.38,2.2-2.52,5.65-5,2.91-10.18-10.23,5.39-18.82,12.45-28,19.25-32.58,24.55-77,43.4-117.32,27.78l9.32-7.09c-1.37-2.63-2.54-4.88-4-7.74ZM199.05,8045.53C203.37,8091,280.52,8142,323.74,8142c57,13.8,104,52.2,116.37,111.5,2.56,10.59,4.84,19.82,10.5,29.63,35.76-44.14-36.81-108.81-72-131.85-3.6-2.25-8.23-3.7-9.44-7.57,21.41-7.55,99-35,99.95-59-44.64,32.68-96.21,57.25-151.29,37l15.8-7.23-6-11.48c26.74,1.9,50.83.16,74.56-13.06,35.35-18.76,73.68-48.15,80.52-89.46l-2.1-.76c-15.82,19.77-28.62,41.64-52,53.6-37.72,31.27-105.87,49.49-136-1.17-4-8.31-11.58-5.51-10.61,3.2,1.53,6.82.27,13-4.4,19.19,8.57,10.67,20.3,15.35,31.75,21.92-1.84,1.37-2.89,1.62-3.78,1.34-28.36-8.79-50.71-24.47-62-53.28a162.66,162.66,0,0,0-10.75-21.29c-14.61-23.79-4.44-47.82,7.18-70.13-18.45,4-22.07,36.12-30.39,50.8-7.74,15.59,2.56,30.16,4.64,46.2-5.44-1.55-9.39-2.71-15.22-4.42Zm27.66-1292.91c-36.37,1.79-66.63,27.91-92.35,51.53-73,78.55-57.28,201.93,6.55,281.18,11.51-10,39.73-4.11,57.23-5.53-53.31-56.46-83.41-133.71-60.57-210.3,8.65-47.44,45.39-76.76,82.86-102.52,4.62-3.39,8-6.95,6.32-14.34ZM209.79,7113c-29.54,4.07-49.95,26.47-70.94,45.24-74,72.58-62.67,198.26-.61,275h60.47C167.94,7399,141.8,7360,131.63,7314.57c-6.95-52.38-1.39-113.36,37.81-152.44,11.59-11.89,24.25-22.77,36.85-33.62,5.11-4.4,6.47-8.73,3.46-15.52ZM96.51,8144c-97,90.19-109.38,234.35-56.88,351.18H50.75v-12.71l2-.88,8.15,10.55-7,14.08,1.43.92,14.89-14c-62.27-115.31-47.81-253.66,41-351-7.44.89-9.59-2.88-11.35-7.51-4.61-11.08-10.79-17.9-11.22-31.88,11.1,12.8,19,25.33,26.61,38.62,4.25.59,5,.56,10.18-.73-42.2-54.08-54.27-121.52-49-188.21-7.36,12.33-6.86,27.51-15.13,40.13l-7.33-7c-9.57,56,13.33,110.82,42.59,158.41ZM157,7504.39c-80.83,70-79.49,202.77-14.25,282.74h57.7c-11-16.32-25.77-29.24-38.67-44.09-50.08-55-47.72-152.43-5.42-211.2,5.72-8.64,7.51-16.53.7-27.49Zm289.53,954-2-2.6c-40.85,29.15-117,37.28-156,12.2,10.6-2.45,21.24,2.81,33.16-2-9.78-9.06-18-12.78-29.42-17.69-30.51-11.39-45.08-36.91-58.45-64.94-13.6-23.19-9.37-45.84.92-69.79-15,6.65-15.81,31.63-21.5,45.42-9.9,42.76,29.11,78.48,59.83,102.1-18.14-1.23-31.62-17.41-43.22-30-7.14-7-12.18-19.9-24-18.54,1.11,15.45,14,24.75,23.36,35.45,28.31,28,63.27,41.41,101.44,49.78,61,20.29,97.9,55.71,113.52,118.84,1.24,3.12,3.7,5.76,5.69,8.73,15.47-11.74,7.26-32.83-1.6-46.75-20.56-35.58-50-60.75-85.17-81.71,25.33-8.51,46.28-18,70-28.86C438,8465.72,442.08,8461.65,446.53,8458.39ZM148.27,7869.71c-48,44.85-57.32,115.26-46.7,177.35,3.37,35.48,22.44,65.86,42.84,94H201c-10.11-14-21.87-25.71-35.06-36.62a59,59,0,0,1-16.68-18.29c-31.66-55.57-33.59-128.21-2.95-184.91C153.79,7889.63,155.6,7882.8,148.27,7869.71Zm-13,378.77-2.29-1c-43.3,54-34.17,125-17.59,187.58,3.66,21.43,20.88,42.64,32.44,60.46h52.32c.71-.38,1-1.61,1.31-2.34-7.25-6.76-13.74-15.19-23.89-18.31-6.53-2-11.06-5.78-15.07-10.76-40-53.15-49.28-126.29-25.6-188.68,3-7.52,6-14.86-.51-22.2C135.45,8252.15,135.6,8250.08,135.27,8248.48Zm70.44-684.43c24-25.52,58-57.73,95.2-37.87,5.48,3.08,11.86,5.34,14.12-1.53,5.67-11.83,5.88-15.35.54-18.51-46.8-14.15-103.71-4.52-137.12,33.08-3.62,4-7.5,8.13-6.74,13.93,1.49,13.88-8.61,24.65-11.36,37.69-1.69,10.43-6.58,20.55-2.44,31,6.84-3.19,7.65-8.78,9.34-13.58,4.87-13.83,9.54-27.71,18.46-39.64,6.75-9,8.82-9.59,20-4.6Zm92.59,16.1c4.17,8.2,12.33,10.82,18.87,16.67,24.74,13.17-4.7,34.07,15.13,34.68q19.41-1.08,38.69-3.78c6.59-.93,9.67-4.87,8.8-11.17-2.1-21.72,14.15-40.44,8.25-62.47-.81-4.37-1.48-9.07-6.88-12.3-8.68,26.29-12.84,5.87-24.68-2.77-6.25,10.29-11.24,12.83-22.83,13.86,12.06,37.7-11.08,22.11-35.36,27.21Zm123.75,16.51c-4.07,8.79-23.47,47.93-34.11,41.05-17.64-7.35-25.39,21.65-56.85,10.69-9.51-3-10.95-1.46-10.89,8.61,3,19.07-29.41,9.92-27.31,29.2,29.8,2.3,59.69-1,89.46-2.53,7.65-.58,15.35-3.06,19.91-10,9-16.66,25.7-31.9,25.67-51.67C427.18,7614.35,424.51,7606.83,422.05,7596.66ZM161.21,7969.5c7.52-10.32,9.58-19.79,15-30.48,4.24-5.41,16.11-31.87,24.13-25.8,6.69,5.14,9.93.47,14.2-3.39,18.1-14.73,35-38.07,61-35.48,8.82.68,17.56,3,26.22,5.07,7.51,1.8,10.24.67,13-6.68,6.29-13.12-11.47-14.85-20.47-16.64-38.85-4.58-82,3.47-110.36,31.91-10.68,8.56-9.89,23.13-14.51,35.08C166.69,7936.48,151.9,7957.55,161.21,7969.5Zm195.18-71.66c-3.83,3.42-6.25,9.15-12.9,9.42-5.62.24-7.1,3.91-6,9.1,6.62,28-20.72,14.2-37.42,17.94l-.84,2c5.74,5.69,12.62,10,19.45,14.22,23.95,13.16-3.28,34.34,18.62,33.59,9.63-.39,19.25-1.22,28.83-2.32,6.74-.77,8.76-3.36,10.43-10.12,4.2-24.63,19.75-49.55,6.44-73.95q-4.41,6.95-8.79,13.91c-9.12-1.86-8.7-13.24-17.88-13.84Zm63.43,60.81c-10.47,13.29-16,39.41-37.42,35-4.86-1.36-9.21.15-13.15,3-26.19,21.07-46.2-5.86-46.52,15.23.87,18.39-28,10.19-28.07,23.89-.42,11,77,0,88.37.11,20.19-1.27,29.3-28.13,40-42.75,6.34-11.67.32-21.63-3.16-34.48ZM83.36,8526,81,8524.87c-65.78,68.68-87.09,180.73-52.47,269.26l6-8.57,13.6,21.32C18.4,8712.76,25.45,8608.31,83.36,8526Zm326.37,302.51c-61.93,19-134.6,8.76-179.86-41.27-4-4.22-8.12-7.16-14-8.59,8.11,30.29,62,58.07,91.59,65.1,50.91,13.7,102.27,40.58,124.31,91,4.18,5.83,13.94,54.4,23.47,35,9.83-45.66-62.36-102.44-99.92-121.34,19.67-5.71,38.31-9.54,54.4-19.94Zm-241.44,5.35,1-1c-37-54.62-56.79-117.29-40.22-182.92,2.24-8-2.21-12.93-8.18-17.65-38.27,69.69-5.15,152.91,30.92,216.62h12.58c-2.75-8.46-10.55-13.85-9.58-24.11,5.13,3.44,9.33,6.24,13.53,9Zm-2.55-533.09c14.58-4.93,22.91-41.62,39.44-37.84,22.67,1.15,36.93-43.32,84-34.54,10.69,2.33,21.47-.29,13-12.55-33.36-13.29-82.51-1.82-109.94,20.85-12.69,9.2-11.67,25.62-18.59,38.65-4.15,8.88-7.51,14.84-7.89,25.52Zm217.4-42.13c-6.31,6-8.45,16.06-17,6.49-4.29-3.78-7.93-4.15-12.27-.47-5.38,3.55-12.21,4.46-12.77,12.28-1.36,18.14-17.4,11.45-30.44,13.14-4.54,15.28,21.88,12.51,22.87,36.26-.13,13.31,20.77,6.11,29.09,5.83,3.17-.65,7.45-3,8.49-5.69q8.78-22.24,15.84-45.1c2.28-7.38.9-15-3.82-22.74ZM416.46,8322c-11.39,12.82-19.54,31-38.53,30.85a26.65,26.65,0,0,0-12.32,3.18c-19.5,12.8-34.58-1.13-39.32,12.89-2,5.56-5.84,8.38-11.55,9.75-4.3,1-10.49,2-9.73,8,.7,5.57,6.62,6,11.21,6,11.61.1,23.26.24,34.83-.57,15.23-1.75,33-1.59,44.77-12.83,7.51-7.9,14-16.82,20.29-25.79,6.62-10.25,2.5-19,.38-31.5Zm-129.75,90.52c.33,4.52,1.29,9,.84,13.4-1.23,14.48,16.32,16.62,26.28,21.44,55.9,22.13,116.55-11.79,151.14-56.1,4.55-6.54,9.58-13.13,9.58-21.48l-2.42-1.19c-11.71,11.33-21.69,25.24-34.48,35.08-27.53,18.15-58.43,37.2-92.77,33.75-17.51-1.36-32.47-9.07-45.83-20.17C295.84,8414.58,292.88,8411,286.71,8412.52ZM55.05,8362.6c-1.06,48.28,17,90.1,40.48,130.67,1.66,3,3.84,3.23,7.18.68-4.33-9.84-9.18-19.73-13.49-29.64-3.78-9.15-3.69-9.19-2-16.63,9.64,15,19,29,27.76,43.51,2.64,4.37,5.17,5.53,9.72,3.76-15.88-28.84-34.5-56.73-40.65-90.25a316.18,316.18,0,0,1-8.37-66.27c-.08-3.19,1-7-3-10.1-5.17,12.57-3.56,26.2-9.59,37.94C60.78,8365.22,59.05,8364.39,55.05,8362.6Zm435.16-574c66.36,92.83,59.34,187.48,6.65,284.49l2,1.18c72.68-79.74,55.41-200.68-.22-285.17,21.26-25.8,45.48-49,59.47-79.55-21,28.31-41.51,55.48-67.87,79.05ZM176.27,8635.72l1.91,1.31c9.48-9.85,16.61-25.21,32.91-23,3,.45,6.91-1.81,9.66-3.83,23.24-19.7,36.83-31.21,68.86-30.37,12.63-4.08.53-13.79-7.28-13.08-33.3-2.24-67.65,4.21-92.49,28.25-2.45,2.54-13.55,36.51-13.62,40.71Zm135.61,13.5c8.37,10.84,21.86,15.37,25.52,29.83,2.93,8.38,14.08,4.29,20.77,4.45,5-.48,8.92-2.87,11-7.53,5.17-11.53,10.66-23,15-34.78,1.88-8.52,3.15-15.1-2.89-23.42-3.73,6.57-6.82,12.15-14.54,8.29-9.32-4.2-17.79-.86-22.35,8.15-8.43,21.47-20.78,2.94-32.48,15ZM154.4,9170.86l2.35-1c-28.69-50.23-41.45-103.42-30.35-161.49l-6.78,1.77-3.05-4.73c-21.93,42.5-8,122.77,26.46,167.42l2.27-7.71,9.1,5.7Zm257.52-485.57c-10.91,9.55-18.54,22.43-33,24.65-13.76.88-25.43,10.29-39.59,8.9a3.79,3.79,0,0,0-2.76,1,62.58,62.58,0,0,1-26.51,16.64c-8.67,5.6,6.87,10,11.76,9.36,24.47-1.94,56.42,2.7,74.15-17.78,12.86-12.95,20.94-22,16-42.77ZM464.5,8736c-50.05,45.85-111.13,80-172.79,32.28l-1.84,1.39c4.89,12.25,4.93,23.83,19.48,28.08,52.13,22.37,111.07-3.53,146.76-43.94,3.89-4.34,7.83-8.79,8.4-17.81ZM181.68,8984.6c29.84-28.94,18.22-11.05,40.82-22,23.84-19.23,31.48-27,63.29-29.58,5-2.09,5.63-7,.64-9.57-25.11-6.86-50.88.93-74.54,10-22.84,9.17-25.89,29.71-31.37,49.27-.08.21.3.54,1.16,1.85Zm200.6-8.67c-5.18,4.13-8.27,9-15.21,6.54-9.1-2.85-16.74-.67-21.42,7.34-10.18,19.19-28.34,3.52-30.61,13.59,1.9,9,17.57,13.6,21.43,24.36,6.1,11.82,25.07,12.25,31.85.59,6.69-14.86,24.2-36.08,14-52.41ZM75.47,8700.53l-3-.05c-3.67,9.31-2.16,27.65-7.56,34-6,.31-4.89,4.55-4.84,7.94,1.46,38.19,20.54,72,38.45,104.75.67,1.19,2.67,1.63,4,2.42-7.71-19.22-17.67-36.94-19.66-57.61,14.89,15.4,23.33,36.35,35.28,54.1,2.09,3.52,4.18,4.55,9,2-34.78-43.24-46.84-94.15-51.7-147.58Zm334.82,342c-13.32,10.83-22.78,23.14-40.88,24.35-17.73,4.71-35.44,9.78-50.65,20.62-3.28,1.77-9,1.18-8.42,6.63.6,5.14,6,4.9,9.69,4.9,11.29,0,22.61-.32,33.88-1.07C382.71,9097.3,416.13,9075.66,410.29,9042.53ZM226.91,8683.11l-2.4-.5c-7.15,24.88-17.36,51.78-1.41,75.66,17.55,29.32,46.1,61.56,83,58.46l1.52-2.53c-24-15.09-51.31-28.07-63.88-55.12-13.63-22.92-25.87-49-16.91-76Zm67.57,441.59-2.29,1.84c4.62,7.8,6,19.24,15.12,23.07,35.09,16.42,75.27,10.45,108-9,15.27-10,38.57-24.79,44.22-42.75-4.72.33-6.4,2.32-9.53,5C408.49,9142,343.35,9163,294.43,9124.71Zm-260.41-8.3c-10.9-67.12-5.11-132.07,21.15-195.07-32.11,39-54,145.67-31.75,191.55l4.67-5.28,5.93,8.78ZM242,6725.42c-1.72-5.38-5.6-6.65-9.46-9.9-33.4-21.29-46.74-58.76-66.15-91.51-7.25,9.23-13.3,11.4-7.72,23.39,11,28,28.31,51.81,52.48,69.89,9.61,8.91,18.58,9.68,30.85,8.13ZM221.51,9055.27c-17.21,32.75,4.15,62.21,24.76,86.92,6.31,10.6,45.57,33.61,55.73,24.59-18-14.14-39.35-23.91-52.26-43.19-14.67-21.09-23.05-42.81-28.26-68.3ZM568.66,7665.05l2.61.64c29.65-74.6,16.5-160.48-23.69-228.77-2-3.32-4.12-3.89-7.79-1.47C581.42,7507.12,585.71,7585.31,568.66,7665.05ZM242.05,7079.71l1-2.64c-38.21-26.6-46.16-43.68-68.72-82.16-9-9.89-12.85,6.87-10,13.63,4.18,14.32,12.16,26.75,22.44,37.28,11.12,11.38,23.29,21.74,35.08,32.46C227.8,7081.35,235.44,7079,242.05,7079.71ZM392.22,9189.57c-48.45,4.3-101.69,1.85-142.15-29.65-9.32-7.6-17.8-16.27-28.5-22l-1.83,2c39.36,51.8,110.37,77,172.51,49.61Zm10.56-1047.19c25.29,24.35,46.85,50.19,57.47,84.11,3.62,7.55,7.59,19.92,16.37,22.33,7.55-40.86-34.3-79.89-60.07-106.41ZM512.66,8401l2.43,1.44c52.44-79,30.3-182.32-18.34-257.48l5.22-9.55-2.11-1.68-11.11,8.93c60.7,73.5,61.69,174.32,24,258.34ZM242.2,7433.76l1.05-2.46c-14.77-12.27-31.62-22.22-42.45-38.54-8.72-12.11-15.07-25.88-24.14-37.78-3.36-4.26-8.33-1.56-8.82,2.7.5,5.82.5,12.37,3.25,17.18,12.22,23.19,32.7,40,52,57.14C228.58,7435.49,236,7433.12,242.2,7433.76Zm160,1063.11c24.53,21.69,43.76,45.8,55.14,76.64,2.73,7.76,5.93,15,12.79,20l2.28-.85c2.73-31.28-21.23-58.66-41.94-79.67-10.64-7-12.79-21.25-28.31-16.1Zm138-709.47c-.52,4.86,1.84,6.63,3.6,10.53,32.38,56.3,38.61,121.81,32.57,185.31,19.24-65,4.42-143.79-36.18-195.85ZM401.55,8850.87c23.09,20.22,41.62,42.18,52.95,70.9,4.19,7.68,6.11,16.44,14.43,20.93,3.14-6.13,1.6-11.26.22-16.24-7.22-29.59-31.38-48.66-50.85-70.15C413.86,8851,409.78,8848.52,401.55,8850.87Zm-40.34,497.84c-9,.85-17,8.73-24.85,13-2.73,1.75-3.09,4.53-.9,6.78,18.44,21.64,25.38,13.71,38.66-6.71C380.92,9348.71,371.2,9350.27,361.21,9348.71Zm-154.74-38.95c8.92-.38,17.92.36,25.86-4.41,10.18-7.07,21.36-11.9,29-22.17-15.7-6.41-60.28,4-54.86,26.58Zm187.7,107.87c-12.59,3.63-22.45,9.8-35.27,12.32-8.19,3.46-17.93,6.53-22.21,15.23C353.78,9452.89,395.62,9441.46,394.17,9417.63Zm41.59-1632.82.9,3c9.92-1.22,26.61,3.14,34.36-3,10.28-13.41,23.1-25.31,31.11-40.21-20.55,16.53-41.87,30.83-66.37,40.2ZM361.39,9705.17c-9.38.73-15.61,7.57-22.57,13-3.45,9.88,14.39,19,21.14,12.92,9.09-8.59,24.28-24.34,1.4-25.9ZM210.8,9659.58c16.73,2.2,37.82-7.66,44.72-20.49C239.92,9631.6,213.56,9643.34,210.8,9659.58Zm131.46,137.63c12,6.65,47-.25,47.69-20.92-1.74-.26-2.79-.75-3.59-.49-11,3.59-22.14,7-33,11.07C348.52,9788.72,343.69,9791.35,342.26,9797.21ZM466.88,8141.56c8.4-12.53,20.13-22.42,26.77-36.17-12.69,8.23-24.6,17-37.6,24.58-5.79,3.7-13.42,4.66-18.15,11.59Zm-276.21-402-2.17,1.6c6.5,18,24.38,28.29,37.27,41.07,5.39,6.81,11.15,6,18.16,3.68-8.8-8.27-18.75-14.22-27.51-22.51-9.13-7.2-15.06-19.06-25.75-23.84Zm140.81,1760.8-.68,2.39c16.08,14.2,66.32-1.8,81.3-14C383.12,9499.47,361.74,9502.62,331.48,9500.36ZM616.82,7377.88c-12.63,18.35-27,35.46-39.45,55.15,4.76.7,5.65.92,9.44.38,11-18.15,25.12-34.26,30-55.53ZM228.51,9454.17c-.66,17.72,17.56,41.59,32.79,43.94C260,9493.3,236.17,9461.13,228.51,9454.17ZM546.35,7125.6c-1.13-17.22-10.6-30.91-18-45.75l-9.46.47A252,252,0,0,0,546.35,7125.6ZM246.6,8140.8c-9.83-7.29-17.89-13.07-25.72-19.12-7.58-5.86-13.44-14-23.65-19,4.15,17,20.11,21.08,29.73,33.15C232.1,8142.17,237.51,8142.54,246.6,8140.8Zm114.7,1922.5c-5.25,2.27-10.32,3.94-14.85,6.56-5.55,3.22-5.06,8.47.6,11.42,6.58,3.42,15.49.81,20-6.29S367.87,10066.1,361.3,10063.3Zm179.27-1426c-2.68,29.38-6,58.66-13.51,87.3,12.17-27.88,17-56.93,13.51-87.33Zm-98.34,660.78c1.78-6.53,1.84-9-3.11-15.33-11-12.43-19.44-27.12-33.12-36.84,11.24,16.11,21.47,29.13,29.29,46.27,1.52,2.8,2.71,6.23,6.94,5.94Zm-194.53,698c-15.41-7.45-40.44,10.63-24.3,14.55C232.39,10011.7,243.23,10005.44,247.7,9996.08Zm192-1502.94.89,2.64c26.34,1.2,19.11-1.68,35.59-20.21l-1.58-1.82-34.9,19.39Zm147.35-397.71-37.68,45.76h9.52C567.31,8125.19,581.14,8112.67,587.05,8095.43ZM232.38,9815.9c-.69,11,12.4,28.11,23.49,30.78C252.92,9839.07,238.8,9820.57,232.38,9815.9Zm147.59,321c-12.49-.3-24.74,5.17-28.34,12.64,13,2.53,24.43-2.54,28.37-12.64Zm82.57-1300.76c-9.07,3.89-17.34,5.67-23.67,12.65,17.54,2.48,18.24,2.13,23.67-12.65Zm-9.07,367.14c3-4.47,3-4.47,3.11-9.13-9.5,1.53-12.45,3-17.91,9.13Zm-111.33,653.2q11.13,7,21.71,0ZM232.45,8486.4c3,10.48,3.06,10.53,14.23,7.37ZM436.27,9641.31c-.56-7.44-.95-8.1-7.73-13.06C430.64,9636.68,430.64,9636.68,436.27,9641.31ZM186.82,8848.59l-7.89-7C178.24,8847.29,179.05,8851.21,186.82,8848.59ZM487.54,8497l4.67,4.14,3.76-9.34-8.43,5.2Zm114.64-701.23,1.75-.55c-1.35-3.35,0-7.36-5.24-6.8l3.49,7.35ZM101.31,9203.63l2.31-.95-2.46-4.74-1.3.51ZM64,8851.63,62.89,8850c-4.36,1.06-3.17,2-4.11,7.55Z" transform="translate(0.29)"/>
<path d="M.05,6826.1c2.66-4.48,6-8.7,7.87-13.5,12.56-32.36,33.74-58.75,54.14-86.49l9.6-.75c.55-6.71-3.06-11.7-5.63-16.86-13-26.12-21.84-53.64-27.61-82.15-16.58-91.49,13.69-190.37,78.43-257.18-58.08-83.09-59.45-202,6.13-281.37,17.9-22.83,35.21-48.74,64.59-57.3a70.41,70.41,0,0,0,10.21-4c12.95-7.26,27.57-8.54,42.06-9.37-33.93-33.64-69.38-70.43-73.56-121-1.27-26.89-7-58,12.92-79.73l2.34.75c-9.14,60.11-2.32,113.52,40.48,159.31,14.4,14.46,35.13,38.36,55.81,41.18q30,.26,60,0c51.66,13.73,89.75,61,91,115.3l-2.69-6.52-3,1.38c.71,20.76,3.54,41.91-10.48,60.36-1.66-10.82.72-15.92-12.39-17.06-16-2.63,7.47-52.17-35.49-84.32.63,10.89,10.35,17.85,5.63,29.1-4.75-3.35-9.67-4.85-12.38-9.73-11.5-22.63-33.25-28.13-55.28-33.11-66.09-.76-128,26.39-159.32,86.88,6.64-62.83,66.88-105.45,125.35-111.74.92-5.62,1.52-9.7,2.3-15-38.69-9.88-119,27.7-143.79,58.93-58.93,78-59.27,181.09-6,262.05,4.88,8.21,12.91,16.86,4.52,25.62C28.63,6492.2,8.42,6589.13,82.27,6722.45c-43.16,37.49-64.14,87.06-82.2,139.61v-36Z" transform="translate(0.29)"/>
<path d="M630.05,6576.1c-6.51,2.77-7,9.28-9,14.75-5.77,15.59-10.73,31.52-17.14,46.83-12.09,29.8-30.25,56.35-50.35,81.19-2.4,4.79-5.74,7.88-12.9,7.25,41,72.94,57.22,168.84,15.42,243.81,7.27-26,22.5-61.16,10.37-87.21-12.36,63.17-22.08,102.56-66.28,151.85l-2.71-2.26c71.45-87.86,72.33-212.94,10.08-306.12,9.1.94,11.35-5.84,15.25-10.48,87.81-95.54,97.4-229.43,38.81-342.41l18.65-4.94c2,7,8.66,2.09,13.7,3.54,10.1-13.78,20.52-27.1,27.24-42.9,1.61-3.77,2.13-9.69,8.8-8.92v16c-12.45,5.57-16,19.37-24,29.41-4.41,6.21-3.42,12-1.29,18.68,5.58,17.4,10.58,35,15.88,52.49,2.21,6.36,2.88,13.86,9.38,17.43v122Zm-110.3,150.12c4.55,14.36,27.43,54.69,34.31,60.06-1.56-23.22-13.57-41.17-23.69-60.06Z" transform="translate(0.29)"/>
<path d="M630.05,6226.09c-5.91,1.66-6.41,7.3-8.11,11.72-5.51,14.28-10.21,28.88-15.92,43.07-11.95,31.08-29.69,58.71-51.31,84-2.52,4.68-5.76,8-12.82,7.29,32.42,59.86,51.07,131.24,30.86,197.92,1.08-21.82,4.81-43.68-3-67.14-9.74,27.94-8.64,55.16-15.74,83.37-7,27.27-19.4,57.42-41.1,75.24,57.28-90.5,53.26-198.17-1.85-288.59l7.87-1.29,41,82.13c7.3-22.51-15.7-61.6-26.6-81.59l-11.75-.84c86.54-104,106.29-232.65,41.17-353.23,8.46,1.34,14.78-3.48,22.55-.65,5.85,2.13,11.91.65,15.68-6.6,5.65-10.87,12.53-21.09,19-31.54,2.65-4.31,3.64-10.18,10-11.15v16c-11.57.42-20.76,26.59-27.74,35.19,6.19,19.93,12.17,39.27,18.23,58.6,1.78,6.27,3.5,12.61,9.51,16.19Z" transform="translate(0.29)"/>
<path d="M630.05,5870.08c-1.87,2.61-4.35,5-5.5,7.88-15.84,45.1-31.37,90.41-64.55,126.22-5.81,5.56-6.47,14.63-16.85,14.52,22.67,45.18,42,92.09,37.48,143.53h-2.18c-9.79-49.58-12.47-101.5-42.92-144.12l-11.37-1c84.69-104.92,104.6-232,40.33-352.78h37.39c6.26,19.47,12.33,38.82,18.77,58.06,1.94,5.76,2.64,12.61,9.4,15.67Z" transform="translate(0.29)"/>
<path d="M630.05,5524.07c-5.83,1.12-6.09,6.54-7.74,10.58-5.93,14.46-11,29.28-17.34,43.57-13.47,34.13-36.79,59.93-60.87,87.16,19.15,40.36,40.5,83.11,36.11,129.1-9.32-22.16-9.31-47-15.84-70.07-6.24-22.39-15.61-44.58-30.24-62.72,83.63-96.21,95.77-239,36.56-350.69,3.34-1.62,6.37-1.22,10.22-1.19,2.91,5.29,4.8,7.64,10.19,11.88l.95-11.37h10.34c6.45,18.53,12.78,37.08,19.4,55.52,1.86,5.16,2.53,11.22,8.26,14.24v144Zm0-352c-6.08.83-6.08,6.41-7.7,10.38-17.34,51.14-37.55,88.12-75.58,126.9H534.66c82.84-99,96.57-238.52,37.27-352.72l9-1a58.14,58.14,0,0,0,11.79,16.64c5-5.21-.49-10.74,2-16h9.33c5.88,17,11.76,34.29,17.78,51.48,1.8,5.25,2.81,11.05,8.22,14.25Zm0-354c-6.44,3.12-7.59,9.75-10.13,15.42-10.39,21.93-16.15,43-32.42,62.22-2-6.76.71-10.42,1.7-14.23,5.53-21.24,12-42.26,16.7-63.68,9.72-43.09,6.55-85,4.09-129,15.13,10.64,12,44.61,16,62.35.58,4.55-.18,9.49,4,12.89Z" transform="translate(0.29)"/>
<path d="M.05,7358.12c9.36,24.92,17.28,49.77,26.21,75.33H50.05c-14.58,25.92-31.29,48.73-40.9,77.12-1.84,5-6,9.05-9.08,13.54v-54c9.65-10.48,17.33-22.3,25.27-35.77-8.35.56-10.74-4.06-12.43-9.79C9.77,7414,6.54,7403.26.07,7394.11v-36Zm0-348c8.84,19.08,14.53,39.45,22.13,59.05,2.49,6.73,5.15,13.27,1,20.92,9.42-.17,9.9-8.51,17.66-10.95l1.73,1.65c-11.94,21.13-25.43,41.35-34.51,64-2.06,4.7-5.34,8.87-8.06,13.29v-48c9.27-8.25,18.28-16.69,23.88-29.74-13.91.71-11-14.25-16.14-22.58-2.29-5.34-5.13-10.44-7.74-15.64Z" transform="translate(0.29)"/>
<path d="M630.05,7434.12v60c-14.86-14.91-17.15-39.41-24.43-57.09,6.76-8,16.44-30.62,24.39-30.9v12c-7.46,2-12,6.46-12.17,15.14Zm-630-680c8-3.92,11.59-11.66,21.3-12.74,4.79-.71,8.89-7.2,12.93-11.47,1.74-1.84,2.2-5.11,5.87-3.51-10.21,25.28-26.34,51.19-40.1,75.69v-48Zm0-286c2.64-3.62,6-6.9,7.8-10.91,13.53-31.14,34.61-57.24,53.53-85.09h8.06c-1,6.85-13.81,16.37-18,23.24C25.87,6425.81,14,6463.62.09,6500.12v-32Z" transform="translate(0.29)"/>
<path d="M.05,6398.09c4.87-2.52,9-5.91,15.43-5.66,3.77.15,7.7-3.94,13-6.94A368,368,0,0,1,.08,6442.1Z" transform="translate(0.29)"/>
<path d="M.05,6040.08c8.48,1.07,15.27-1.79,23.39-4.65,0,.46.56,1.77.14,2.63-8.14,14.35-13.12,31.33-23.53,44Zm630,610c-6.39-.92-7.24,4.74-9.52,8.35-8,12.59-15.63,25.37-23.52,38a15.32,15.32,0,0,1-6.56,5.89c11.48-20.39,23.2-40.59,30.49-63,1.72-5.05,2.64-11.21,9.07-13.28v24Zm-630,14c9.38,19.68,15.76,40.18,22.69,60.92l-8.6.59c-3.92-11.44-7.06-21.82-14.11-31.48v-30Z" transform="translate(0.29)"/>
<path d="M.05,5686.07l12.42,1.2,8.58-5.27c0,2.09.38,3.4-.06,4.31-7.18,13-11.87,28-20.88,39.77v-40Zm630,1432c-1.51-1.19-3.75-2.06-4.41-3.61-4.52-10.68-8.74-21.5-12.94-32.31-.28-.71.4-1.79.72-3l16.63.92Zm-630-802c7.78,17.54,13.82,35.88,20.15,54-14.82,5.83-6.78-11.74-20.08-25.95v-28Z" transform="translate(0.29)"/>
<path d="M.05,5966.08c7.27,16.49,12.68,33,18.72,50.25-5.15,2.39-7.31,1.27-9.12-3.74-2.55-7.06-6.34-13.67-9.6-20.47Zm630,792c-8.51-4-11.82-22-17.26-32h17.26Zm-630-646a156.65,156.65,0,0,0,21.44-34.27c.76,1.25,1.31,1.77,1.21,2C14.94,6099.11,9,6119.33,0,6138v-26Zm630-1408.1c-10.51-3.83-9-27.1-9.15-38.13l9.15,4.13ZM.05,7414.12c13.36,15.49,15.22,25.37,0,38Z" transform="translate(0.29)"/>
<path d="M630.05,6398.09c-9-6.1-10.1-16.08-13.86-26h13.86Z" transform="translate(0.29)"/>
<path d="M630.05,6298.09c-8.3-.92-12.16,12.15-17.24,18.17,4.09-8.62,9.07-37.65,17.24-38.17Z" transform="translate(0.29)"/>
<path d="M630.05,5944.08l-10.79,6.29c1.92-9.37,2.62-18.37,10.79-24.29Zm0,94c-6.92-4.24-8.51-11.41-11-20h11Z" transform="translate(0.29)"/>
<path d="M.05,5758.07l8-5.7c.29,10.86-3,19.5-8,27.7Z" transform="translate(0.29)"/>
<path d="M630.05,5680.07c-7.18-2.41-7.49-9.08-9.69-14.8l9.69-5.2Z" transform="translate(0.29)"/>
<path d="M.05,7064.11c5.57,2.64,7.19,7.71,8.3,12.83l-8.3,9.17Z" transform="translate(0.29)"/>
<path d="M630.05,4466c-3.55-.22-7-1.27-6.73-5.42.3-3.91.33-9,6.73-8.58Z" transform="translate(0.29)"/>
<path d="M630.05,7066.11h-8c.21-5.48,1.93-9.39,8-10Zm-630-352,6.9,9.31-6.9,4.69Z" transform="translate(0.29)"/>
<path d="M.05,5632.07c1.28,3.53,2.83,7,3.62,10.65.18.82-2.34,2.22-3.62,3.35Z" transform="translate(0.29)"/>
<path d="M630.05,6714.1c-1.68-.61-4.62-1-4.8-1.88-.69-3.41,1.55-5.35,4.8-6.12Zm0-2386.1c-4.81-5.62-4.81-7,0-10Zm0,1304-4.21-2.49,4.21-5.44Zm0,732-3.7-3.89,3.7-2Z" transform="translate(0.29)"/>
<path d="M.05,5280.06c2.65,4,4.14,8,0,12Zm630,316c-4.89-4-4.89-4.39,0-8Zm-457.24-94.85c7.74,67,17.46,115.69,78.43,154,9.66,8.3,20.57,9,32.45,8.67,18.31-.55,36.66-.05,55-.21,12.41.22,21.93,10.34,33,15.14,28.51,17.9,51.83,49.34,52.91,82.86-6.24,3-3.6,7.52-3,11.95,2.4,17.7,5.71,38.24-5.93,53.54-6.42-22-20.36-6.25-21.35-23.6-.86-23.75-3.95-48.14-22-65.46-5.91-6.11-11.09-13.5-19.28-16.68,5.35,12.36,18.43,20.78,17.87,36-10.2,5.43-17.08-21.5-36.89-29.3-12.81-4.4-26.54-10.79-40.3-10.25-64.85,6.35-106.92,23.16-146.55,76.64,11.07-59.41,71.53-97.27,128.74-100.51l2-17c-50.72-7.88-96.49,20.81-139.63,42.54,7.2-13.8,16.67-25.81,30.54-32.62,24.32-9.9,47.17-26.31,74.62-22.66-.1-6.65-4.85-8.48-8.11-11.34-48-34.73-81.36-92-64.32-152.18.6.16,1.2.34,1.81.52Zm239.9,1577.94c5.6-7.14,12.72-9.31,21.66-10.21l-3.55,9.88c12.32,2.07,25,.39,37.44,1,11.8,1.23,12.36-4.74,21.4-7.95,3,12.35,10.15,20.83,16.59,31.2,37.51,64.77,40.46,155.47,3.76,221.15-22.88,35.26-51.92,68.66-93.09,82.39-6.12,2.47-12.92,2.7-20.39-2.37,9.52-8.74,20.14-13.49,27.79-23.93,24.46-27.26,53.08-51.26,66.53-86.47a108.43,108.43,0,0,0,6.76-62.64c-2.59-56.12-13.64-99.32-57.13-137.44C431.78,7086.58,426.33,7075.83,412.71,7079.15ZM429.15,6727c20.55-2.73,39,.76,59.79-3.54,72.55,91.65,60.78,243.9-38.41,312.42-10.65,8.48-24.59,11.8-37.95,10.73-1.25-5.22,2.17-6.31,4.45-7.83,9.3-6.18,16.46-14.17,22.82-23.38,24.13-30.47,51-59.85,59.29-99.24,6.06-36.16-.37-74.31-10.46-109.28-11.74-32.05-33.54-58.15-59.19-80.15l-.2.23Zm-254-1586.15c4,28.06-.29,58.85,11.46,85.11,16.14,27.9,32,57,60.56,74,11,8.15,22.66,10.63,36.08,10,17.29-.86,34.65-.17,52-.24a18,18,0,0,1,11.1,3.31c22.8,14.89,64.42,35.66,64.32,66.92,0,13.24,7.49,25.49,10.41,38.2,1.86,7.86,2.14,18.52-6.9,22-5.6,3.47-13.53-14.64-17.21-18.53-13.38-22.83-24.12-48.25-49.92-59.73-1,7.09-5,6.58-9.61,5.75-16-2.87-32.11-5.5-48.2-8-51.68-6.33-94.22,29.21-130.54,61.35,1.05-18.33,19.81-34.35,32.8-45.37,42.88-31.24,70.05-38.36,122.42-30.5-2.6-12.33,7.61-12.58,13.69-17.21-1.22-8.93-51.64-13.91-61.49-15.51-26.27-.57-50.36,10.58-76.08,16.05,3.28-8,10-9,15.12-11.45,14.29-10.38,20.5-6.5,37.47-7.25-1.42-6.28-5.71-8.48-9.1-11.43-47.87-34.92-83.42-98.8-60.75-157.78.81.14,1.59.26,2.38.37ZM434.28,6372.42h58.51c60.87,89.35,59.7,221.83-25.08,295.9-9.15,8.74-19,13.32-32.23,13.56,31.1-57.41,84.65-111.58,66-182.41-8-52.74-26.5-91.67-67.18-127.1Zm59.54-354.27c53.35,85.67,61.26,203-10.19,280.93-8.64,8.7-17.76,16.16-30.78,18,8.8-25.55,24-48.34,35.25-73,38.74-74.49,11.56-168.43-47.82-224,.27-.61.57-1.67,1.19-1.93h52.35ZM460,5956.52c22.56-59,63.91-117.78,41.78-183.63-9.55-41.18-28.14-78.8-60.31-107,6.73-2.57,34.49-3.25,51.28-1.48,49.77,77.94,62.23,183.39,6.34,261.63-10.13,13.07-20.94,27-37.21,32.61l-1.89-2.09ZM329.18,4973.07c-13.76-11-30.17-9.78-45.62-16.52,18.06-1.85,34.62-.26,52.57-.91a20.57,20.57,0,0,1,12.9,4.06c20.9,12.74,40.75,26.36,55.44,46.36a42,42,0,0,1,9.79,27.63c.22,15.21,12.07,31.37,5.86,46.41-3.36,6.44-9.3,6.85-13.3.76-12.54-19.44-23.37-40.15-39.24-57.2-8.52-10.92-22.58-6.09-34.2-10.53-43.37-10.49-65.5-14.32-107.94,4.09-25.63,11.79-47.54,30.84-66.51,51.59-.81,1-2.09,1.53-4.63,1.63,20-53.08,88.29-89.35,143.54-81.64,21.26,2.46,11.81-7.32,31.36-15.75Z" transform="translate(0.29)"/>
<path d="M437.55,7286.79a97.64,97.64,0,0,0,19.14-36.41c3-11.92,5.4-24.28,13.25-34.09,20-19.7,16,77.16-14.67,99.85-14.95,15.3-30.83,29.36-49.12,40.64-30.27,25.22-87.58,27.53-108.58-9.68-3.84-10,10.25-10.14,16.73-10.74,22.63-.49,45.26-.55,67.89-1.08,18.45-.78,37.45-12.76,41.65-31,.93-9.27,3.62-15.44,11-23.9ZM330.4,6983.43c14.63,0,29.34-1,43.86.25,45.37,3,71.72-51.82,83.92-88.44,3.12-11.77,4.93-25.73,16.64-32.34,12.78,14.71,4.67,37.76,2.3,55.14-9.16,41.23-47.47,68.84-81,90.72-29.25,17.21-75.11,18.64-96-11.84-9.72-17.18,21-12.56,30.25-15C330.37,6982.42,330.39,6982.92,330.4,6983.43Zm-102.92-57.92c4.41-12,7.73-25.23,18.12-33.56,27.12-22.9,33.87-22.06,65-4.59,12.51,7,11.52,18.8-.86,26.59-13.73,7.88-7.88,19.22-1.12,29.65,3.36,7.88.68,14.86-7.37,17.64-29.39,8.5-23.11,38.13-37.06,29.19-12.24-6.67-13.65-21.53-17.61-33.52-4.05-17.86-16.08-14.71-19.15-31.4ZM500.25,5557.9c-3.63-7-2.5-14-1.08-20.62,26.17-78.13,9.06-167.83-49.42-227.16,15.76-.33,27.43-.45,42-.36,44.21,71.86,70.65,180.16,8.55,248.15Zm.42-354.76c-3.14-9.32-1.31-17.49.41-25.52,26-73.38,5.45-166.59-51.83-221.18,3.55-1.15,38.61-.53,43.1-.67,44.79,69.26,62.89,161.64,19.94,235.46-2.51,4.62-5.19,9.21-11.6,12ZM278.87,6521.93c15.42.78,56.92,20.15,29.55,35.86-12.34,4.7-15.11,14.88-6.74,24.83,7.85,5.89,8.26,20.76-2.77,24.26-25.44,5.77-23.62,35.89-37,25.85-13.46-8.89-11.58-26.63-16.52-40.3-1.47-5.2-4.2-9.71-9.25-12.46-9.06-4.78-6.3-16.57-3.23-24.19,9.34-18.07,25.41-31.34,46-33.82Zm50.39,108c18.69.9,33.64,1.46,48.56,2.43,6.15.4,12,0,17.39-3.06,31-15,33.58-23.75,49.37-52.26A125.68,125.68,0,0,0,460,6540.4c1.54-6.72,11.5-36.73,19.66-21.93,3.46,20.13-.86,41.6-7.76,60.68-8.1,19.53-25.29,33.24-39.29,48.5-32.14,32.23-95.68,61-129.93,17.23-11.3-16.47,20.49-13.42,26.61-15Z" transform="translate(0.29)"/>
<path d="M215.27,6548.22l-5.71-6.31c-12.78-1-13.63,28.07-18.09,37.77-25.5-42.4,41.92-129.39,90.35-116.91a14,14,0,0,1,8.22,4.94c8.18,10.3,17.57,18.84,29.65,24.43,5.83,2.7,7.55,7.4,6.07,13.22-1.28,5-4.65,7.54-11.74,6.48-31.19-3.52-67.28-.26-87.36,26.71-3,3.81-5.58,8.38-11.42,9.66Zm63.21-378.62c16.45-1.2,53.21,18,27.08,31.44-11.94,4-15.62,20.09-6.7,28.9,8,6.08,7.63,20-2.87,23.27-10.41,3.74-18.61,9.8-23.13,20.52-2.42,5.73-7.23,6.35-12.28,2.44-15.49-11.8-7.91-45.73-23.6-56.31-8.38-4.45-4.88-15.82-1.89-22.48C245.37,6181,259.4,6170.18,278.48,6169.6Zm73.8,143.66c-9.1-1.67-18.55-2.32-27.18-5.35-6.65-2.33-12.44-7.39-18.24-11.73-8.82-6.47-4.82-17.51,5.87-18,24.46-4.54,50.67,7.21,74.88,1.91,11.35-5.42,22.65-11.32,32.92-18.52,19.49-16.65,36.87-56.68,43.33-81.78,1.64-5.9,5.94-14.28,12.48-14.8,3.47,1.75,4.93,8.87,4.47,12.92,1,37.85-18.38,65.57-44.07,91.6-12.91,16.09-31.8,23.57-49.42,32.89C376.87,6310.27,365.18,6312.8,352.28,6313.26Z" transform="translate(0.29)"/>
<path d="M219.05,6188.76l-5.6-9.14c-18.31,2.71-16.57,24-22.46,37.25l-2.24-.25c-10-44.95,46.1-125,94.74-104.22,7.72,6.72,14.9,14,22.7,20.66,5.84,4.68,19.86,6.44,17.7,16-3.45,20.57-57.47-10.85-92.71,29.36-3.32,3.55-7.41,6.38-12.13,10.36Zm62.53-372.37c10.1.87,32.89,6.87,31.43,21.61-.44,5.44-4.61,6.51-8.88,8-11,3.72-15.31,21.14-7.51,29.65,5.62,4.21,9.3,11.8,4.88,18.24-2.58,4-7.35,5.71-11.65,7.19-19,3.89-17.24,34.45-31.83,17.68-11.31-15.75-6.78-40.91-20.14-54.88-9-6.59-4.1-17.34.25-25.05,8.82-13.35,25.54-22.17,43.48-22.39Zm67.9,142.73c-8.11-1.61-16.61-2.19-24.2-5.13-10.95-3.49-34.51-22.39-12.8-28.28a89.92,89.92,0,0,1,25.74-.84c11.83,1.3,23.87.48,35.58,4.27,15,1.37,29.49-11,42.56-17.48,20.81-12.6,28.15-37.55,38.93-58,5.5-12.6,7.24-27.28,17-37.69,6.32-6.1,9,5.38,8.31,10.28-.85,23.12-5.73,44.86-21.45,63-17.19,21.7-35,43.57-61.67,53.79-15.41,7.23-30.18,17-48,16.17Z" transform="translate(0.29)"/>
<path d="M221.13,5831.61l-6.25-9.41c-18.53,4.91-18.93,22-24.46,35.75-7.79-27.5,13-60.32,31.49-79.75,12.59-14.74,30.31-23.21,49.86-23,18,3.56,27.36,24.77,45.12,30.77,4.12,1.71,6.42,4.62,5.15,9.43-2.41,9.82-13.53,5.69-20.7,6-10.27.15-20.64-.3-30.77,1-20.65,2-34,16.46-49.44,29.2Zm304.19-1039c-9.21-6.16-10.44-15.09-9.93-24.74,4.46-60.14-17.74-118.38-55.56-164.55,3.48-2.32,5.27-1.57,7.43,1.43,12,16.7,24.27,33.23,36.47,49.8.16.22.58.25,2.56,1-4.86-20.49-16.16-34.41-24.41-54.09,3.45,1,6.18,1,6.87,2.16,32.85,51.11,55.09,111.57,43.08,172.95-1,5.64-1.61,11.81-6.52,16ZM279.32,5461c5.81,2.05,25.28,4.1,17.06,13.26-6.17,5.67-6.35,12.69-7,20.06-.78,8.22-3.84,16.16-6.27,24-5.65,18.23,17.39,18.13,5.89,28.1-7.72,5.72-13.8,17-24.21,17.05-1-.07-2.68-3.19-2.51-4.75,1.6-22.15-20-35.37-14-58.85a60.72,60.72,0,0,0-.11-16.6c-3.21-17,18.35-20.18,31.06-22.31Zm-31.06-314.3c1.85-7.15-1.07-26.34,7.69-33.73,9.75-6.81,20.58-9.06,32.19-5.28,6.68,2.18,7.48,4.42,5.86,11.13-3.73,15.47-7.17,31-10.6,46.55a28,28,0,0,0,2.74,19.3c4.29,8.47-4.72,23.28-14.13,23.15-8.39-1-13.73-21.93-18-29-3.9-8.88-6.76-18.08-5.79-32.07ZM129.05,6016.11a907.06,907.06,0,0,0-69.36,92.25c3.7-22.54,34.56-72.94,56.85-92.92-25.21-40.81-45.14-84.34-43.74-133.3,1.74-46.49,9.62-99.31,43.11-134.17C63.33,5848,70.46,5920.43,129,6016.11ZM477.23,5462c11.9,21.61-21.93,74.92-35.91,93.42-18.51,22.8-42.14,36.12-71,40.67-20.39,2.17-45.44,7.68-62.66-6.37-8.07-6.06-3.39-19.32,6.9-17.51,24.65,4.33,34.17,17.29,62.64,7.83,37.66-11.48,72.63-35.93,83.12-75.95,4.28-9.93,5.78-40.76,16.95-42.09ZM196.68,5110.53c-4.68-13.55,13.39-28.2,20.19-38.89,6-8.69,16.6-8.84,25.66-11.88,20-8.67,55.17-1.12,56,24.54.65,6.31-1.16,8.56-7.3,9.49-14.41.86-32.25,8-45.95,3.9C228.46,5089.58,212.12,5104.43,196.68,5110.53Zm.78,352.13c3.16-19.55,15.75-33.44,30.44-45.26,15.66-9.89,35.89-6.57,53.22-3.54,14.83,2.79,15.24,18.24,21.33,30.24-16.48,4.36-32.89,1.8-48.91,8.68a15.07,15.07,0,0,1-11.22-1C231.72,5444.92,211.57,5459,197.46,5462.66Zm278-360.83c10.09,16.53,1.08,29.31-3.48,44.59-16,50.62-55.93,92.53-110.64,97.83-18.67,1.46-45.78.26-59.18-13.38-8.47-11.37,7.49-16.11,15.87-11,56.83,28.46,129.18-15.56,144.76-73.62,3.93-15.64,6-29.22,12.68-44.46ZM332.88,4631.07c18.08-4.26,29.2,9.28,43.74,10.24-18.73-20.47-42-32.42-69.16-39,15-.19,31-4,44,5.73,15.92,13.32,39.24,19.32,46.93,40.57l-6.55,4.42c.35,4.05,3.49,7.18,5.68,10.4,6.91,5.26,26,56.32,14.82,58.11-8.78-2-13.59-19.37-18.27-26.74C379.54,4668.41,350.62,4655.21,332.88,4631.07ZM60.43,6527.19c5.63-53.14,30.7-109,75.42-140.34,16.36-11.32,17-18,39.12-14.46-2.74,10.86-18,17-26,24.28-42.27,28.7-65.32,73.09-81.14,120.28-1.37,3.46-2.11,7.62-7.36,10.26Zm200-1823.52c51.06,2.38,24.37,38.37,9.2,33.64-15.68-6-29.94-.7-44.65,2.7-7.62,2.68-25,3.67-16.68-8.94C217.16,4719.18,246.06,4706,260.43,4703.67Zm15.73,136.93c-2.06-.24-3.91.09-4.47-.61-6.54-8.15-15.85-14-19.3-24.76-5.52-15.3-2.82-31.07,6.67-44,18.7-36.11,31.8,1.53,25.42,22.92-4.33,15.41-9.64,30.22-8.36,46.55ZM530,6045.25c25.35,35,40.66,77.75,34.47,121.07-6,45.13-9.94,99.61-44.4,132.73C566.35,6218.22,566.31,6129.89,530,6045.25Zm-316.77-28H195.52c-28.61-29.77-49.15-64.89-57.59-105.48-4.32-20.78-11.59-62.76,4.94-78.87,3,8.28.88,16.15.32,24.52-9.2,63.77,24.65,118.27,69.95,159.85ZM61.05,6164c7.76-56.05,40.45-108.71,87.79-139.73,5.66-6.87,12.53-7.54,21-5.65-1.66,5.56-6.52,7.6-10.29,10.41-46.94,32.84-76.64,82.46-95.74,135.5ZM325.49,4650.75c-11,2.28-21.83-.5-32.81-1.46-23.62-3.35-46.12,3.35-68.17,11.25-22.23,6.41-38.66,21.5-55.06,37.07l-1.53-1.29c25.83-45.36,79.53-62.88,129.46-58.3,10.15,1,21.08,2.83,28.73,10.34l-.58,2.43ZM167.77,5665.37c-48.34,34.38-81.87,83.43-102.57,138.35l-2.16-.31c6.66-57.83,44.1-103.66,90.1-137.37C157.6,5662.21,162.42,5664.15,167.77,5665.37ZM457.29,4822c-19.78,43.25-59.37,67.33-106.81,67.73-7.06.07-13.79-1.06-19-8.15,5.3-4.58,11.21-4.46,17.67-4.65,45.07,1.15,77.93-23.93,106-56.4l2.13,1.47ZM455,7515.47a368.73,368.73,0,0,0-81.8-80.61c10.06-2,19.5-.76,28.86-.84a4.22,4.22,0,0,1,2.64,1.18c22.68,22.32,47.2,46.62,52.47,79.59l-2.17.68ZM525.75,5937c43-86.14,36.74-142.59,13.78-232.12,19,33.09,30,70.39,24.58,108.7-3.54,43.11-10.39,88.61-36.61,124.34ZM261.92,4350.75c6.64,1.16,11.9,1.82,17,3.06,8.12,1.61,9.8,11.68,1.71,14.88-7.35,6.55-16.49,4.23-25.24,6.87-6.29.36-42.65,16.9-36.07,1.09C229.27,4363.49,245.78,4352.94,261.92,4350.75Zm23.58,82.58c-3,8.32-5.25,17.09-9.48,24.75-3.66,4.76-15.91,12.71-20.64,4.4-10-12.92-5-35.69,7.95-42.63,9.69-5.17,22.21-2.63,22.2,13.48Zm57.2-152.64c6.18-3,10.78-1.14,14.27,1.45,15,11.17,33.73,18.93,42.27,36.69,6.39,13.29,15.37,26.32,14.91,44.74-11-4.21-12.9-13.52-17.67-22.71-4.68-14.39-15.82-24.24-26.6-34-6.63-8.37-13.72-16.2-23.15-21.59-1.32-.75-2.15-2.37-4-4.53Zm-99.3,675c-3.21-8.1-8.8-11.71-14.05-15.53-28.78-20.92-51.76-51.94-57.36-87.52l1.89-.72c23.4,48,36.58,75.67,84.38,103.71l-67.55,17.63-1-1.35c6.16-7,15.27-10.3,23.15-15,10-2.67,18.81-.67,30.54-1.24ZM451.05,7146.3c-8.63-3.82-12.16-11.31-17.55-16.8-5.6-5.7-10.82-11.78-16.58-17.31-12-12.8-25-18.59-37.48-32.32,10,.95,20.51-2.2,27.75,1.71,17.33,19.37,39.95,37.27,43.86,64.72Zm-5.48-2660.61c-18.23,31.41-50.56,47.42-86.21,49.09-3.72.16-9.2.79-9.28-4.76-.07-5.26,5.34-5.23,9.14-5.57,33.06-2.32,59.37-21.8,85-40.16l1.33,1.42Zm3.09,2302.39c-12.32-8.83-21-21.14-32-31s-22.64-19.45-34.81-29.84c7.71-1.79,19.34-2.89,25.5.25,15.8,18.13,39.55,34.57,41.32,60.62Zm-197.23-2697c.27-17.24,6.66-24.28,20.35-24.11,8.76.11,12.23,4,10.85,12.5-.74,4.57-2,9.06-2.94,13.61-1.63,8.2-7.13,12.41-14.74,14.4-11.29,3.84-13.74-7.59-13.52-16.4Zm33.45-83.56c-10.58,8.26-49.66,19.56-61.55,17.9,4-13.66,18-20.89,29.84-26.41,10.86-4.31,24.24-1.29,31.71,8.51Zm161,2421.31c-20.43-18.27-39.88-38.15-61-55.78,7.13-1.48,18.56-2.94,24.05.62,15.11,16.14,32.7,31.46,38.91,53.68-.65.51-1.31,1-2,1.48Zm-5.15-2291.21c-5.69,18.39-69.31,55.76-83.58,38.48.17-4.3,6.43-5.43,9.92-6.1,27.67-3.47,49.67-18.54,71.6-34.44Zm-241.24,173.8c19.48-23.22,78.58-35.16,102.79-20.6-2.73,3.48-6.45,2.81-9.79,2.49-32.49-3.67-62,10.38-93,18.11Zm149.58-384.59c19.59.83,76.91,62.55,60.77,79.61a41.44,41.44,0,0,1-11-17c-9.61-26.13-29.5-43.95-50.93-60.45l1.12-2.17ZM446.2,6073.05l-59.27-55.24c9,.91,16.63-2.35,23.18,2.16,10.33,14.37,38.07,35.38,36.08,53.08ZM389,5664.58c11.24-2.61,21.35-1.52,28.67,8.88,8.74,14.1,26.5,22.59,27,41-20.55-13-36.05-33.36-55.66-49.91Zm-246.42-93c17.31,35.91,34.87,64.42,63.84,91.64h-8.89c-23-27.4-54.18-53.63-54.94-91.64Zm63.12-262.72c-5.49.72-9,2.16-11.65-1.5-13.32-18.21-26.85-36.28-39.78-54.76-9.55-14.09-15.23-29-16.22-46.3,17.61,40.59,32.38,74.25,67.65,102.56Zm5-1358c13.75-16.15,52.91-24.16,72-15.76ZM123.58,5665l-51.53,63.52c6.67-23.33,24.8-40.79,38.1-60.41C113.83,5662.57,116.89,5661.8,123.58,5665ZM336.84,7189.87c-19.93.43-15.56-25.28-1.36-26.73C346.44,7162.93,354.15,7190.67,336.84,7189.87Zm61.62-1879c6.28-2.18,10.25-1.14,14,4.14,3.41,4.76,8.89,8,12.82,12.44,7.42,9.7,17.72,18,21.11,30.08l-1.93,1.17-46-47.83ZM49.7,6308.63l31.42,62.63H71.67c-8-20.61-19.78-39.73-22-62.63Zm296.35,516.76c.53,13.75-22.3,10.24-21.4-1.38.91-16.91,21.77-15.88,21.41,1.42Zm21.86,457c-9.45,12.46-28.77,14.13-39.24,3.93,6.22-4.9,28.57-7.32,39.22-3.92Z" transform="translate(0.29)"/>
<path d="M78.74,6017.1c-4,.69-7.19,1.64-8.92-2.72-5.22-14.62-12.77-28.63-16.7-43.61C57.91,5974.4,75.06,6005.2,78.74,6017.1ZM372.89,4273.66c-15.76-13.58-35.26-18.67-54.71-23.85l.46-2c1.95.25,23.21-.66,24.32.64,10.11,8,22.68,14.07,31.31,23.47ZM179.11,4517.9c7.95,7.91,10.72,17.69,16,25.87s10.76,16.57,15.44,23.75C196.27,4558.63,179.2,4533,179.11,4517.9ZM331.26,6931.68c10.94-5,21.7-4,32.88-3.35C359.41,6939.81,341.22,6941.77,331.26,6931.68Zm5.55-453.53c-12.8.93-11.93-18-1.29-18.67,9.29-.77,13.33,19.27,1.29,18.67Zm-69.52-2752.7c11.23-.33,7.22,13.65-3.71,13C253.55,3738.52,257.39,3724.31,267.29,3725.45ZM336.39,6122c-8.5.33-8.29-15.14.15-14.19,8.5.65,8.95,14.43-.15,14.19ZM242,4602.06c-11.18,5.49-21.56,7.78-30.18,6.51-2.35-11.87,23.27-4.94,30.5-6.19Zm94.28,1977.67c8.33-5.26,15.5-4.79,23.44-2.9-6.22,7.34-12.24,8.17-23.49,2.9ZM519.05,4361.62c9.1,10.24,9.41,13.31,2.35,22.58C518.12,4376.92,517.76,4370.23,519.05,4361.62ZM324.19,3894.76c7.88,1,18.24-5.89,24.17,6.79C339,3901.65,331.64,3898.38,324.19,3894.76Zm4.9,1865.85c17.12-19.84,17.6,20.32,0,0ZM77.4,5490.2l-1.79,34.6C73.49,5513.1,72.34,5501.47,77.4,5490.2ZM398.77,4957c13.12-3.81,12.19,7.18,15.91,12.48Zm-156.5-354.63-2.85-9.06c7.19.85,7.19.85,14.41,7.73L242,4602l.32.32Zm-44.22-400.6L184.25,4181c6.75,3,10.9,9.45,13.8,20.77Zm231.33,2525-11.9-1.78c2.8-4.87,6.81-5.51,12.35-4.54-.22,2.3-.42,4.4-.64,6.52ZM440,4992l7.72,11.33-2,1.44-7.7-11,2-1.76ZM34.47,6240.2v-11.59h.6v12ZM202.28,4954.77c-6.57,1.95-8.33-.39-8.18-7.26Zm48.13-709.19c-3.46,2.2-6.36,3-8.13-3.42ZM352.05,6225.81l-5.66,1.4-.64-1.4a5.92,5.92,0,0,1,6.21-1.19c0,.39.07.79.09,1.19Zm76.65,145.66h-4.65l-.2-1.41,4.89-.86-.05,2.27Zm88.58-353.79,3,5-1.38,1-3.93-4.3,2.32-1.69Z" transform="translate(0.29)"/>
<path d="M103.41,7079.76c-3.87-1.34-2.94-2-3.42-7.05l4.92,5.46-1.5,1.59Zm-1.62,345.56,5,7.16C101.05,7432.64,101.05,7432.64,101.79,7425.32Z" transform="translate(0.29)"/>
<path d="M111.32,7788.91l-9.12-2.13-12-28.66,2-1.11c5.64,8.83,20.07,21.24,18.88,32.09Z" transform="translate(0.29)"/>
</g>
</svg>
