<svg xmlns="http://www.w3.org/2000/svg" width="500" height="280" viewBox="0 0 500 280">
<path d="M56.67,70.25c0-8-4.63-14.52-14.86-14.52H40.57c-.28,0-.42.07-.42.28v47.14c0,.2.14.28.42.28h6.22c.13,0,.13.61,0,.61H25c-.14,0-.14-.61,0-.61h6.22c.28,0,.41-.07.41-.28V56c0-.21-.14-.28-.41-.28H29.93c-10.23,0-14.65,6.5-14.65,14.52,0,.14-.28.14-.28,0V54.91a.22.22,0,0,1,.21-.21h41.6c.14,0,.14.14.14.21V70.25c0,.14-.28.14-.28,0"/>
<path d="M78.79,104c-.14,0-.14-.61,0-.61h3.8c.28,0,.49-.07.49-.28V81c0-4.91-3.09-6.41-5.44-6.41-4.49,0-6.59,2-7.56,5.17v23.43c0,.21.14.28.42.28h3.8c.14,0,.14.61,0,.61H59.65c-.14,0-.14-.61,0-.61h3.8c.28,0,.41-.07.41-.28V53.46c0-.21-.14-.28-.41-.28h-3.8c-.14,0-.14-.78,0-.78H69.88c.14,0,.2.57.2.71V79a7.85,7.85,0,0,1,7.81-5.39c7,0,11.34,4.21,11.34,11.54v18c0,.21.14.28.48.28h3.8c.14,0,.14.61,0,.61Z"/>
<path d="M123.17,87.25H103.4V89c0,8.29.76,11.13,2.9,13.13a6.91,6.91,0,0,0,4.77,1.59,13.34,13.34,0,0,0,11.33-6.43c.07-.07.28.35.21.49a13.78,13.78,0,0,1-11.54,6.57c-7.95,0-14.17-6.91-14.17-15.34s6.22-15.34,14.17-15.34c8.64,0,12.3,8.22,12.3,13.41,0,.13-.07.19-.2.19M115,75.91a5.38,5.38,0,0,0-3.94-1.42,7.41,7.41,0,0,0-4.77,1.42c-1.93,1.61-2.7,4.88-2.83,10.26h13.89c-.14-5.38-.76-8.66-2.35-10.26"/>
<path d="M262.8,52.79c-6,0-9.41-4.08-9.41-7.53,0-4.39,2.51-4.71,2.51-7.85s-2.51-5-5.65-5c-4.4,0-11.61,1.26-17.89,15.38a51.62,51.62,0,0,1,10.35,30.44c0,27.93-23.22,50.53-51.78,50.53a52.47,52.47,0,0,1-39.54-18.2c-6,4.08-10.36,9.73-10.36,21,0,17.89,7.85,23.54,28.87,23.54H206c41.43,0,62.45,14.12,62.45,49,0,38.91-42,59.31-75.32,59.31-42.68,0-71.24-19.45-71.24-43,0-17.26,13.81-36.09,32-40.8-16.63-4.71-25.73-15.69-25.73-31.38,0-18.52,8.16-29.19,22.6-38.6a49.78,49.78,0,0,1-11.3-31.38c0-27.93,23.22-50.21,51.47-50.21,16.63,0,30.75,6.9,40.17,18.83,5.33-11,13.81-18.84,26.05-18.84,7.53,0,15.38,4.39,15.38,13.81,0,5.33-4.4,11-9.74,11m-46.13,128.3H167.09a41.53,41.53,0,0,1-10.67-1.2c-7.85,4.8-13.49,16.81-13.49,34.82,0,32.12,18.2,44.12,50.21,44.12,30.12,0,59.31-14.71,59.31-43.22,0-18.92-12.55-34.52-35.78-34.52M206.94,36.36c-4.39-3.84-9.41-4.73-16-4.73-6.28,0-11.3.89-15.69,4.73-6.9,6.21-9.73,19.22-9.73,41.69,0,25.43,2.83,35.18,9.73,41.39,4.39,3.84,9.41,5,15.69,5,6.59,0,11.61-1.18,16-5,6.9-6.21,9.73-16,9.73-41.39,0-22.47-2.82-35.48-9.73-41.69"/>
<path d="M277.43,165.93c-.63,0-.63-2.68,0-2.68h17.26c1.25,0,1.88-.31,1.88-1.25V33.33c0-.94-.63-1.25-1.88-1.25H277.43c-.63,0-.63-2.91,0-2.91h46.76c.63,0,.63,2,.63,2.6V162c0,.94.63,1.25,2.2,1.25h17.26c.63,0,.63,2.68,0,2.68Z"/>
<path d="M420.56,167.33c-36.09,0-65.27-31.38-65.27-69.67S384.48,28,420.56,28c36.4,0,65.59,31.38,65.59,69.67S457,167.33,420.56,167.33M442.67,39c-5.92-5.1-13.08-6.9-22.11-6.9-8.72,0-16.19,1.8-21.8,6.9-9.65,8.71-14,27-14,58.55,0,36,4.36,49.84,14,58.55,5.61,5.11,13.08,6.91,21.8,6.91,9,0,16.2-1.8,22.11-6.91,9.65-8.71,14-22.52,14-58.55,0-31.53-4.36-49.84-14-58.55"/>
<path d="M346.3,39.33c-.24,0-.38-.2-.15-.29,12.88-4.85,29-14.95,33.12-22.1,2.24-3.9,6.62-1.09,7.85,1.32S387,22,383.56,25.32c-5.5,5.37-22.47,11.8-37.26,14"/>
<path d="M298.59,198.82h-1.53V184.14h5.46c3.28,0,5.59,1.79,5.59,4.69,0,2.39-1.62,4.06-4.08,4.53l4.7,5.46h-1.92l-4.58-5.33h-3.64Zm8-10c0-2.05-1.7-3.28-4.1-3.28h-3.89v6.54h3.89C304.88,192.09,306.58,190.85,306.58,188.83Z"/>
<path d="M320.85,198.82V184.14h1.53v14.68Z"/>
<path d="M341,198.93l-6.78-14.79h1.68l5.81,12.74,5.81-12.74h1.68l-6.78,14.79Z"/>
<path d="M370.4,190.81v1.42h-7.8v5.18h8.66v1.4H361.07V184.13h10.19v1.4H362.6v5.27h7.8Z"/>
<path d="M385.48,198.82H384V184.14h5.46c3.28,0,5.59,1.79,5.59,4.69,0,2.39-1.62,4.06-4.08,4.53l4.7,5.46H393.7l-4.57-5.33h-3.65Zm8-10c0-2.05-1.7-3.28-4.1-3.28h-3.89v6.54h3.89C391.76,192.09,393.47,190.85,393.47,188.83Z"/>
<path d="M418.51,188.11H417c-.35-1.79-1.64-3-4.13-3-2.22,0-3.69,1.08-3.69,2.79,0,1.34,1.08,2.16,3,2.5l2.22.43c2.59.5,4.08,1.73,4.08,3.82,0,2.67-2.18,4.44-5.46,4.44-3.52,0-5.76-1.83-6.1-5h1.51c.37,2.29,2,3.63,4.66,3.63,2.33,0,3.82-1.14,3.82-2.89,0-1.23-.84-2.16-2.76-2.5l-2.55-.5c-2.7-.5-4.06-1.86-4.06-3.84,0-2.53,2.09-4.21,5.22-4.21C415.75,183.82,418.15,185.22,418.51,188.11Z"/>
<path d="M431.23,198.82V184.14h1.53v14.68Z"/>
<path d="M458.94,191.37c0,4.38-3.2,7.45-7.73,7.45h-5.09V184.14h5.09C455.74,184.14,458.94,187.14,458.94,191.37Zm-1.58,0c0-3.39-2.55-5.83-6.16-5.83h-3.56v11.87h3.56A5.86,5.86,0,0,0,457.36,191.37Z"/>
<path d="M480.9,190.81v1.42h-7.8v5.18h8.66v1.4H471.57V184.13h10.19v1.4H473.1v5.27h7.8Z"/>
</svg>
