<svg xmlns="http://www.w3.org/2000/svg" width="500" height="280" viewBox="0 0 500 280">
<g class="gio">
<path data-name="G" d="M262.8,52.79c-6,0-9.41-4.08-9.41-7.53,0-4.39,2.51-4.71,2.51-7.85s-2.51-5-5.65-5c-4.4,0-11.61,1.26-17.89,15.38a51.62,51.62,0,0,1,10.35,30.44c0,27.93-23.22,50.53-51.78,50.53a52.47,52.47,0,0,1-39.54-18.2c-6,4.08-10.36,9.73-10.36,21,0,17.89,7.85,23.54,28.87,23.54H206c41.43,0,62.45,14.12,62.45,49,0,38.91-42,59.31-75.32,59.31-42.68,0-71.24-19.45-71.24-43,0-17.26,13.81-36.09,32-40.8-16.63-4.71-25.73-15.69-25.73-31.38,0-18.52,8.16-29.19,22.6-38.6a49.78,49.78,0,0,1-11.3-31.38c0-27.93,23.22-50.21,51.47-50.21,16.63,0,30.75,6.9,40.17,18.83,5.33-11,13.81-18.84,26.05-18.84,7.53,0,15.38,4.39,15.38,13.81,0,5.33-4.4,11-9.74,11m-46.13,128.3H167.09a41.53,41.53,0,0,1-10.67-1.2c-7.85,4.8-13.49,16.81-13.49,34.82,0,32.12,18.2,44.12,50.21,44.12,30.12,0,59.31-14.71,59.31-43.22,0-18.92-12.55-34.52-35.78-34.52M206.94,36.36c-4.39-3.84-9.41-4.73-16-4.73-6.28,0-11.3.89-15.69,4.73-6.9,6.21-9.73,19.22-9.73,41.69,0,25.43,2.83,35.18,9.73,41.39,4.39,3.84,9.41,5,15.69,5,6.59,0,11.61-1.18,16-5,6.9-6.21,9.73-16,9.73-41.39,0-22.47-2.82-35.48-9.73-41.69"/>
<path data-name="I-3"  d="M277.43,165.93c-.63,0-.63-2.68,0-2.68h17.26c1.25,0,1.88-.31,1.88-1.25V33.33c0-.94-.63-1.25-1.88-1.25H277.43c-.63,0-.63-2.91,0-2.91h46.76c.63,0,.63,2,.63,2.6V162c0,.94.63,1.25,2.2,1.25h17.26c.63,0,.63,2.68,0,2.68Z"/>
<path data-name="O" d="M420.56,167.33c-36.09,0-65.27-31.38-65.27-69.67S384.48,28,420.56,28c36.4,0,65.59,31.38,65.59,69.67S457,167.33,420.56,167.33M442.67,39c-5.92-5.1-13.08-6.9-22.11-6.9-8.72,0-16.19,1.8-21.8,6.9-9.65,8.71-14,27-14,58.55,0,36,4.36,49.84,14,58.55,5.61,5.11,13.08,6.91,21.8,6.91,9,0,16.2-1.8,22.11-6.91,9.65-8.71,14-22.52,14-58.55,0-31.53-4.36-49.84-14-58.55"/>
<path data-name="S-2" d="M346.3,39.33c-.24,0-.38-.2-.15-.29,12.88-4.85,29-14.95,33.12-22.1,2.24-3.9,6.62-1.09,7.85,1.32S387,22,383.56,25.32c-5.5,5.37-22.47,11.8-37.26,14"/>
</g>
</svg>
