<svg xmlns="http://www.w3.org/2000/svg" x="0px" y="0px" width="140px" height="140px" viewBox="0 0 140 140">
<path fill="#fff" d="M96.8,77.9c-4.2-4.9-11.7-3.8-17.3-3.7c-3.3-3.8-5.8-8.1-7.9-13c6.6-24.6-11.2-27.6-2.8-2.7
c-2.2,6.9-5,13.4-8.3,19.6c-27.4,10.9-10.9,25.5,3,0.6l0,0c4.8-1.8,10.2-2.6,15.5-3.4C82.2,79.3,95.8,86.7,96.8,77.9z M58.9,81.7
c-10.6,19.2-18.7,6.8,0.6-0.7C59.2,81.2,59.1,81.4,58.9,81.7z M68.2,50.9c-0.5-14.3,5-5,1.4,5.9C69,55,68.6,52.5,68.2,50.9z
M73.8,75.2c-3.1,0.5-6.1,1.3-9,2.1c2.6-3.7,4.9-8.9,6.2-13.4c1.8,3.8,4.1,7.8,7,10.9C76.7,74.7,75.3,74.9,73.8,75.2z M95,79.2
c-4.4,3.4-10.4-0.6-14.1-3.7C85.4,75.5,92.1,75.1,95,79.2z"/>
<linearGradient id="SVGID_1_" gradientUnits="userSpaceOnUse" x1="110" y1="110" x2="30" y2="30" gradientTransform="matrix(1 0 0 -1 0 140)">
<stop  offset="0" style="stop-color:#fff"/>
<stop  offset="1" style="stop-color:#fff;stop-opacity:0"/>
</linearGradient>
<circle fill="none" stroke="url(#SVGID_1_)" stroke-width="2" stroke-miterlimit="10" cx="70" cy="70" r="60"/>
</svg>
