<svg  xmlns="http://www.w3.org/2000/svg"  x="0px" y="0px" width="350px" height="280px" viewBox="0 0 350 280">
<path fill="#FFFFFF" d="M202.7,9.6C80.7-1.4,30.9,41,8.6,116c-22.3,75,7.4,126.4,93.2,151.9c85.8,25.6,203.8,2.4,223.6-79.9
c11.7-48.7,19.4-101.9,10.7-114.7C313.2,50.7,264.3,17.1,202.7,9.6z"/>
<path fill="#F8E4BF" d="M202.7,9.6C80.7-1.4,42.7,37.2,20.3,112.2c-22.3,75,6.6,117.2,92.4,142.8c85.8,25.6,192.8,15.3,212.6-67
c11.7-48.7,19.4-101.9,10.7-114.7C313.2,50.7,264.3,17.1,202.7,9.6z"/>
<g>
<path fill="#467084" d="M180,105.6c-3,0-4.7-2.1-4.7-3.8c0-2.2,1.3-2.4,1.3-4c0-1.6-1.3-2.5-2.8-2.5c-2.2,0-5.9,0.6-9,7.8
c3.2,4.3,5.2,9.7,5.2,15.4c0,14.1-11.7,25.5-26.1,25.5c-7.9,0-15.2-3.6-19.9-9.2c-3,2.1-5.2,4.9-5.2,10.6c0,9,4,11.9,14.6,11.9
h18.2c20.9,0,31.5,7.1,31.5,24.7c0,19.6-21.2,29.9-38,29.9c-21.5,0-35.9-9.8-35.9-21.7c0-8.7,7-18.2,16.1-20.6
c-8.4-2.4-13-7.9-13-15.8c0-9.3,4.1-14.7,11.4-19.5c-3.5-4.3-5.7-9.8-5.7-15.8c0-14.1,11.7-25.3,26-25.3c8.4,0,15.5,3.5,20.3,9.5
c2.7-5.5,7-9.5,13.1-9.5c3.8,0,7.8,2.2,7.8,7C184.9,102.7,182.7,105.6,180,105.6 M156.8,170.3h-25c-1.9,0-3.6-0.2-5.4-0.6
c-4,2.4-6.8,8.5-6.8,17.6c0,16.2,9.2,22.3,25.3,22.3c15.2,0,29.9-7.4,29.9-21.8C174.8,178.2,168.5,170.3,156.8,170.3 M151.9,97.3
c-2.2-1.9-4.7-2.4-8.1-2.4c-3.2,0-5.7,0.4-7.9,2.4c-3.5,3.1-4.9,9.7-4.9,21c0,12.8,1.4,17.8,4.9,20.9c2.2,1.9,4.7,2.5,7.9,2.5
c3.3,0,5.9-0.6,8.1-2.5c3.5-3.1,4.9-8.1,4.9-20.9C156.8,107,155.3,100.4,151.9,97.3"/>
<path fill="#467084" d="M187.4,162.6c-0.3,0-0.3-1.4,0-1.4h8.7c0.6,0,0.9-0.2,0.9-0.6V95.7c0-0.5-0.3-0.6-0.9-0.6h-8.7
c-0.3,0-0.3-1.5,0-1.5H211c0.3,0,0.3,1,0.3,1.3v65.7c0,0.5,0.3,0.6,1.1,0.6h8.7c0.3,0,0.3,1.4,0,1.4H187.4z"/>
<path fill="#467084" d="M259.6,163.3c-18.2,0-32.9-15.8-32.9-35.1c0-19.3,14.7-35.1,32.9-35.1c18.4,0,33.1,15.8,33.1,35.1
C292.7,147.5,278,163.3,259.6,163.3 M270.8,98.6c-3-2.6-6.6-3.5-11.2-3.5c-4.4,0-8.2,0.9-11,3.5c-4.9,4.4-7.1,13.6-7.1,29.5
c0,18.2,2.2,25.1,7.1,29.5c2.8,2.6,6.6,3.5,11,3.5c4.6,0,8.2-0.9,11.2-3.5c4.9-4.4,7.1-11.4,7.1-29.5
C277.8,112.2,275.6,103,270.8,98.6"/>
<path fill="#467084" d="M76,114.4c0-4-2.3-7.3-7.5-7.3h-0.6c-0.1,0-0.2,0-0.2,0.1V131c0,0.1,0.1,0.1,0.2,0.1h3.1
c0.1,0,0.1,0.3,0,0.3H60c-0.1,0-0.1-0.3,0-0.3h3.1c0.1,0,0.2,0,0.2-0.1v-23.8c0-0.1-0.1-0.1-0.2-0.1h-0.6c-5.2,0-7.4,3.3-7.4,7.3
c0,0.1-0.1,0.1-0.1,0v-7.7c0,0,0-0.1,0.1-0.1h21c0.1,0,0.1,0.1,0.1,0.1v7.7C76.2,114.4,76,114.4,76,114.4"/>
<path fill="#467084" d="M87.2,131.4c-0.1,0-0.1-0.3,0-0.3h1.9c0.1,0,0.2,0,0.2-0.1v-11.2c0-2.5-1.6-3.2-2.7-3.2
c-2.3,0-3.3,1-3.8,2.6V131c0,0.1,0.1,0.1,0.2,0.1h1.9c0.1,0,0.1,0.3,0,0.3h-7.4c-0.1,0-0.1-0.3,0-0.3h1.9c0.1,0,0.2,0,0.2-0.1
v-25.1c0-0.1-0.1-0.1-0.2-0.1h-1.9c-0.1,0-0.1-0.4,0-0.4h5.2c0.1,0,0.1,0.3,0.1,0.4v13.1c0.6-2,2.4-2.7,3.9-2.7
c3.6,0,5.7,2.1,5.7,5.8v9.1c0,0.1,0.1,0.1,0.2,0.1h1.9c0.1,0,0.1,0.3,0,0.3H87.2z"/>
<path fill="#467084" d="M109.6,123h-10v0.9c0,4.2,0.4,5.6,1.5,6.6c0.7,0.6,1.5,0.8,2.4,0.8c2.5,0,4.5-1.3,5.7-3.2
c0,0,0.1,0.2,0.1,0.2c-1.3,2-3.4,3.3-5.8,3.3c-4,0-7.1-3.5-7.1-7.7c0-4.3,3.1-7.7,7.1-7.7c4.4,0,6.2,4.1,6.2,6.8
C109.7,122.9,109.7,123,109.6,123 M105.5,117.2c-0.6-0.5-1.2-0.7-2-0.7c-0.9,0-1.7,0.2-2.4,0.7c-1,0.8-1.4,2.5-1.4,5.2h7
C106.6,119.7,106.3,118,105.5,117.2"/>
<path fill="#467084" d="M222.2,98.8c-0.1,0-0.2-0.1-0.1-0.1c6.5-2.4,14.6-7.5,16.7-11.2c1.1-2,3.3-0.5,4,0.7
c0.6,1.2-0.1,1.9-1.8,3.6C238.2,94.4,229.6,97.7,222.2,98.8"/>
<path fill="#467084" d="M198.8,179.3h-1.9v-7.5h3.3c1.9,0,3.1,1,3.1,2.6c0,1-0.5,1.9-1.4,2.3l1.9,2.5h-2.2l-1.6-2.2h-1.2V179.3z
M201.4,174.4c0-0.6-0.6-1-1.3-1h-1.4v2h1.4C200.9,175.4,201.4,175,201.4,174.4z"/>
<path fill="#467084" d="M208.1,179.3v-7.5h1.9v7.5H208.1z"/>
<path fill="#467084" d="M217.4,179.3l-3.2-7.5h2l2.1,5.1l2.1-5.1h2l-3.2,7.5H217.4z"/>
<path fill="#467084" d="M231.8,174.8v1.6h-3.3v1.3h3.8v1.6h-5.6v-7.5h5.6v1.6h-3.8v1.4H231.8z"/>
<path fill="#467084" d="M239.1,179.3h-1.9v-7.5h3.3c1.9,0,3.1,1,3.1,2.6c0,1-0.5,1.9-1.4,2.3l1.9,2.5h-2.2l-1.6-2.2h-1.2V179.3z
M241.8,174.4c0-0.6-0.6-1-1.3-1h-1.4v2h1.4C241.2,175.4,241.8,175,241.8,174.4z"/>
<path fill="#467084" d="M256.4,174.1h-1.9c-0.1-0.6-0.4-0.9-1.2-0.9c-0.6,0-1.1,0.3-1.1,0.7c0,0.4,0.3,0.6,0.9,0.7l1,0.2
c1.4,0.3,2.2,0.8,2.2,2.1c0,1.5-1.2,2.4-3.1,2.4c-1.7,0-3.2-0.8-3.4-2.6h1.9c0.1,0.7,0.7,1.1,1.6,1.1c0.7,0,1.1-0.3,1.1-0.7
c0-0.3-0.2-0.5-0.8-0.6l-1.2-0.3c-1.5-0.3-2.2-1-2.2-2.2c0-1.5,1.2-2.4,3-2.4C254.4,171.6,256.2,172.1,256.4,174.1z"/>
<path fill="#467084" d="M261.3,179.3v-7.5h1.9v7.5H261.3z"/>
<path fill="#467084" d="M275,175.5c0,2.2-1.7,3.8-4,3.8h-3v-7.5h3C273.3,171.8,275,173.3,275,175.5z M273.1,175.5
c0-1.2-0.9-2-2.1-2h-1.1v4.1h1.1C272.2,177.6,273.1,176.7,273.1,175.5z"/>
<path fill="#467084" d="M285.2,174.8v1.6h-3.3v1.3h3.8v1.6H280v-7.5h5.6v1.6h-3.8v1.4H285.2z"/>
</g>
</svg>
