<svg xmlns="http://www.w3.org/2000/svg" x="0px" y="0px" width="500px" height="280px" viewBox="0 0 500 280">
<g class="riverside">
<path data-name="R" d="M298.59,198.82h-1.53V184.14h5.46c3.28,0,5.59,1.79,5.59,4.69,0,2.39-1.62,4.06-4.08,4.53l4.7,5.46h-1.92l-4.58-5.33h-3.64Zm8-10c0-2.05-1.7-3.28-4.1-3.28h-3.89v6.54h3.89C304.88,192.09,306.58,190.85,306.58,188.83Z" fill="#fff"/>
<path data-name="I" d="M320.85,198.82V184.14h1.53v14.68Z" fill="#fff"/>
<path data-name="V" d="M341,198.93l-6.78-14.79h1.68l5.81,12.74,5.81-12.74h1.68l-6.78,14.79Z" fill="#fff"/>
<path data-name="E" d="M370.4,190.81v1.42h-7.8v5.18h8.66v1.4H361.07V184.13h10.19v1.4H362.6v5.27h7.8Z" fill="#fff"/>
<path data-name="R" d="M385.48,198.82H384V184.14h5.46c3.28,0,5.59,1.79,5.59,4.69,0,2.39-1.62,4.06-4.08,4.53l4.7,5.46H393.7l-4.57-5.33h-3.65Zm8-10c0-2.05-1.7-3.28-4.1-3.28h-3.89v6.54h3.89C391.76,192.09,393.47,190.85,393.47,188.83Z" fill="#fff"/>
<path data-name="S" d="M418.51,188.11H417c-.35-1.79-1.64-3-4.13-3-2.22,0-3.69,1.08-3.69,2.79,0,1.34,1.08,2.16,3,2.5l2.22.43c2.59.5,4.08,1.73,4.08,3.82,0,2.67-2.18,4.44-5.46,4.44-3.52,0-5.76-1.83-6.1-5h1.51c.37,2.29,2,3.63,4.66,3.63,2.33,0,3.82-1.14,3.82-2.89,0-1.23-.84-2.16-2.76-2.5l-2.55-.5c-2.7-.5-4.06-1.86-4.06-3.84,0-2.53,2.09-4.21,5.22-4.21C415.75,183.82,418.15,185.22,418.51,188.11Z" fill="#fff"/>
<path data-name="I-2" d="M431.23,198.82V184.14h1.53v14.68Z" fill="#fff"/>
<path data-name="D" d="M458.94,191.37c0,4.38-3.2,7.45-7.73,7.45h-5.09V184.14h5.09C455.74,184.14,458.94,187.14,458.94,191.37Zm-1.58,0c0-3.39-2.55-5.83-6.16-5.83h-3.56v11.87h3.56A5.86,5.86,0,0,0,457.36,191.37Z" fill="#fff"/>
<path data-name="E-2" d="M480.9,190.81v1.42h-7.8v5.18h8.66v1.4H471.57V184.13h10.19v1.4H473.1v5.27h7.8Z" fill="#fff"/>
</g>
</svg>
