<svg xmlns="http://www.w3.org/2000/svg" x="0px" y="0px" width="500px" height="280px" viewBox="0 0 500 280">
<linearGradient id="SVGID_1_" gradientUnits="userSpaceOnUse" x1="128" y1="240" x2="292" y2="28" gradientTransform="matrix(1 0 0 -1 0 281)">
<stop  offset="0" style="stop-color:#000000;stop-opacity:0"/>
<stop  offset="1" style="stop-color:#000000;stop-opacity:0.3"/>
</linearGradient>
<linearGradient id="SVGID_2_" gradientUnits="userSpaceOnUse" x1="288" y1="260" x2="320" y2="130" gradientTransform="matrix(1 0 0 -1 0 281)">
<stop  offset="0" style="stop-color:#000000;stop-opacity:0"/>
<stop  offset="1" style="stop-color:#000000;stop-opacity:0.3"/>
</linearGradient>
<linearGradient id="SVGID_3_" gradientUnits="userSpaceOnUse" x1="392" y1="234" x2="458" y2="144" gradientTransform="matrix(1 0 0 -1 0 281)">
<stop  offset="0" style="stop-color:#000000;stop-opacity:0"/>
<stop  offset="1" style="stop-color:#000000;stop-opacity:0.3"/>
</linearGradient>
<linearGradient id="SVGID_4_" gradientUnits="userSpaceOnUse" x1="380" y1="270" x2="370" y2="222" gradientTransform="matrix(1 0 0 -1 0 281)">
<stop  offset="0" style="stop-color:#000000;stop-opacity:0"/>
<stop  offset="1" style="stop-color:#000000;stop-opacity:0.3"/>
</linearGradient>
<path opacity="0.3" fill="url(#SVGID_1_)"  d="M275.25,59.99c-5.73,0.2-8.79-3.65-8.57-7
c0.28-4.27,2.72-4.65,2.93-7.7c0.2-3.05-2.09-4.8-5.12-4.71c-4.25,0.13-11.32,1.57-18.32,15.53c5.54,8.04,8.8,18.27,8.08,29.24
c-1.8,27.09-25.78,50.06-53.75,51.41c-15.5,0.75-29.38-5.65-38.09-16.02c-6.22,4.29-10.98,10.06-11.68,21.2
c-1.11,17.62,6.4,22.76,27.33,21.65l35.55-1.89c40.24-2.14,59.52,10.36,57.27,43.78c-2.5,37.24-44.26,59.67-76.7,62.03
c-42.21,3.07-69.63-13.93-68.19-37.05c1.06-16.98,16.11-36.34,34.61-42.01c-16.35-3.67-24.82-13.97-23.85-29.45
c1.14-18.28,10.02-29.21,25.08-39.15c-6.39-8.05-10.11-18.72-9.37-30.51c1.74-27.65,26.39-50.45,54.41-51.29
c16.36-0.49,29.73,5.85,38.14,17.19c5.89-10.88,14.6-18.77,26.41-19.12c7.24-0.22,14.48,3.81,13.87,12.93
C284.95,54.21,280.37,59.82,275.25,59.99 M222.39,186.35l-48.76,2.82c-3.74,0.22-7.15,0.12-10.53-0.56
c-8.13,5.16-14.52,17.27-15.63,34.93c-1.98,31.43,15.41,41.86,47.01,39.59c29.4-2.11,58.51-18.23,60.33-45.59
C256.02,199.36,244.92,185.05,222.39,186.35 M222.09,45.77c-4.07-3.63-8.95-4.35-15.44-4.16c-6.2,0.19-11.23,1.22-15.83,5.14
c-7.25,6.34-10.88,19.27-12.29,41.41c-1.59,25.01,0.6,34.47,7.06,40.25c4.11,3.56,8.99,4.48,15.18,4.18
c6.48-0.31,11.48-1.7,16.03-5.64c7.15-6.36,10.53-15.98,12.15-40.76C230.38,64.26,228.45,51.64,222.09,45.77"/>
<path opacity="0.3" fill="url(#SVGID_2_)"  d="
M281.91,168.44c-0.6,0.03-0.43-2.54,0.17-2.57l16.41-0.9c1.19-0.06,1.8-0.4,1.86-1.3l8.41-123.54c0.06-0.9-0.52-1.19-1.7-1.16
l-16.45,0.5c-0.6,0.02-0.41-2.8,0.19-2.82l44.32-1.34c0.59-0.02,0.46,1.87,0.42,2.48l-8.58,124.42c-0.06,0.9,0.51,1.16,1.98,1.08
l16.11-0.88c0.59-0.03,0.41,2.51-0.18,2.54L281.91,168.44z"/>
<path opacity="0.3" fill="url(#SVGID_3_)"  d="
M428.2,167.28c-32.89,1.82-57.73-26.4-55.19-62.73c2.55-36.42,31.62-67.14,64.6-68.13c32.84-0.98,56.71,27.47,54.08,63.06
C489.07,134.99,460.96,165.47,428.2,167.28 M456.86,46.13c-4.99-4.63-11.34-6.12-19.53-5.87c-7.93,0.24-14.87,2.16-20.33,7.14
c-9.43,8.54-14.67,26.02-16.78,55.85c-2.41,34.01,0.66,46.82,8.91,54.55c4.77,4.52,11.45,5.84,19.36,5.4
c8.17-0.45,14.75-2.48,20.42-7.53c9.25-8.56,14.09-21.62,16.55-55.21C467.61,71.02,464.95,54.01,456.86,46.13"/>
<path opacity="0.3" fill="url(#SVGID_4_)"  d="
M355.15,44.42c-0.23,0.04-0.34-0.18-0.12-0.27c12.3-5,27.91-15.07,32.18-21.98c2.32-3.77,6.16-1.2,7.14,1.05
c0.94,2.18-0.4,3.56-3.75,6.8C385.17,35.28,369.05,41.87,355.15,44.42"/>
</svg>
