<svg xmlns="http://www.w3.org/2000/svg" x="0px" y="0px"	 width="700px" height="300px" viewBox="0 0 700 300">
<path opacity="0.1" fill="#FFFFFF" d="M185.7,111.9c1-2.4,3.1-4.9,3.6-7.5c2-1.6,11.5-19.7,11.1-28.1c0-7.9-10-13.1-17.8-7.5
c-24,17.3-47.9,41.6-66.4,62.5c-0.3,0.3-1.1,1.1-2.5,1.9c-0.5,0.5-0.2-0.9-0.3-1.1c7.3-16.7,46.1-66,24.2-78.6
c-8.5-1.8-10-0.4-17,4.7c-37.6,33.6-73,80.4-100.8,123.1l-0.6,0.3v-0.3l-0.3-0.3c8.7-24.9,60.4-118.8,79.2-125.6
c4.3-0.4,2.1-5.4,0.3-6.9C86.4,38.8,77.1,50.9,67,66.9c-23.2,35.7-56.3,84.4-65.8,125.3c-1.6,8.3,6.3,16.8,14.2,16.9
c5.6,0.7,16.7-24.2,18.9-24.4c0.8-2.1,9-13.8,8.6-13.9c19.2-26.6,39.1-52.8,61.4-77c9-9.5,12.1-12.3,24.7-24.2c0.3,0,0.6,0,0.8,0.3
c-4.4,22.4-45.5,71.5-36.4,84.7c4.2,4,11.4,9.1,15.8,2.5c22.1-22.8,47.4-54.2,75-73.1c-4.8,19.2-79.1,122.3-37.2,120.9
C139.4,181.2,174.6,135.2,185.7,111.9z"/>
<path opacity="0.1" fill="#FFFFFF" d="M319,195.3c7.8-26.1,19.5-49.4,34.4-70.3c0.3,0,0.3,0,0.3-0.3c0.3-1.1,1.1-1.9,2.5-2.2
c9.6-2.1,25.9-7.9,35-6.9c6,0.7,9.2-4.9,3.1-7.5c-7.9-5.2-19.7-1.7-28.3-1.1c-0.3,0.3-0.3,0.3-0.6,0c-1.9-0.4-0.2-1.6,0-2.5
c8.1-11.8,15.2-24.5,23.3-35.3c1.4,0.1,3.7,0.1,3.9-1.4c2.2-2,5.2-6.9,4.4-10.3c2.3-4.4-11.5-14.3-12.8-6.7
c-12.6,20.1-25.2,38.3-37.8,59.2c-9.3,6.2-21.7,5.5-33.9,7.2c-10.3-15-53.8,18.3-54.8,30.3c-10.8,9.1-24.2,22-35.2,27.8
c-4.6-7.4,12.9-38.3,14.4-38.9c1.9-1.3,0.4-4.9-0.3-6.4c-1.2-4-5.2-3.8-9.7-4.4c-2.2,0-1.2,4.2-3.6,2.8c-19.2-6.1-57.6,24-55.6,43.9
c9.6,18.1,24.8,8.4,41.7-6.4c-1.2,9.1,5.8,20.4,15,20.6c13.3-2.5,25-15.8,37.3-27.2c7.8,9.9,28.3,1.5,36.6,5.8
c-9.6,7.6-37.2,17.9-43.3,10.8c-0.1-1.1-1,0.4-2.2,0c-2.5,0.7-2.3,1.6-2.2,3.9c-0.2,3.6,2.3,3,3.6,5.3c2.3,4.5,12.8,5.7,17.8,3.6
c7.5,0.6,25.8-8.7,32.5-12.5c10.3-6.4,7.9-15-1.7-20.8c-6-3.8-15.2-2.4-23.3-3.3c-2.8,1.3-9.4,0.3-10.8,0.2c4-10,33.7-32,43.1-25.4
c0.9,0.1-5.4,11.1-4.5,11c-0.3,0.8,8.2-4.8,10.8-10.2c1.4,0.2,7.1,0.1,8.4,0.2c3.4,0,10.9-1.9,8.1,1.1
c-8.5,13.5-34.2,60.1-26.4,74.7l0.3,0.6c-1.5,2.8,2.5,5.4,3.6,6.9c0.8-0.8,2.2,0.6,4.2,0.6c0.3,0,0.6,0,0.8,0.3
c0.9,0.1,1.5-2.3,0.8-2.8C316.6,205.2,318.5,198.6,319,195.3z M217.3,139.4c-67.3,69.6-27.5,3.8,0-0.8V139.4z"/>
<path opacity="0.1" fill="#FFFFFF" d="M434,158.6c5.7-5.4,25.3-34.2,23.3-10.6c0.3,0.3,0.3,0.6,0.3,0.8c-0.6,0.9,1.5,5,3.3,3.3
c0.3,0.3,0.8,0.3,1.1-0.3c5.1-2.3,5-5.2,5.6-10.3c1.4-7.6-5.3-13.4-12.8-12.5c-8.8,3.7-16.3,11.9-22.8,19.4h-0.6
c-0.3-0.3-0.3-0.6-0.3-0.8c0.9-1.3,2.4-4.2,3.1-5.6c-0.5-1,1.2-2.6,1.9-3.3c0.1-1.7,6.8-12.7,8.9-12.8c0.3,0.3,1.1-0.3,1.9-1.1
c0.3,0,0.3-0.6,0-0.8c-1.3-4.5-2.7-3.3-5.6-5.3c-8.4-3.4-10.6,5-14.2,10.6c-3.2,4.4-5.2,10.6-8.2,15.2c-13,3.6-51.3,48.2-62.9,35
c0-0.7-0.3-1.5-0.6-1.7c-0.5-2-0.4-6.6,0.8-7.2c2.5-16.3,10.7,13.8,42.5-24.7v-0.3l1.9-1.9c-0.1-1.1,1.7-2.3,1.9-3.3
c6.3-8.7-5.8-18.9-12.5-18.1c-13.3,0-26.9,10.6-41.1,31.4c-0.3,0-0.3,0.3-0.3,0.6c-15.3,22.2,7.2,48.8,31.7,33.1
c0.5,0.1,0.9-0.9,1.4-0.8c0,0,0.6,0,0.6,0c2.2-1.8,7.2-2.7,7.8-5c5.5-2.7,13.3-10,18.2-15.4c-4.1,9.9-8.1,23.1,5.2,22.9
c4.2-3.6,1.4-5.6,2.2-6.4c6.2-10.3,10.1-14.6,17.5-23.9C433.7,158.9,433.7,158.6,434,158.6z M377.9,142.2c7.2-6.2,11.8-9.2,14.7-9.2
c-1.6,5.8-23.1,26.9-29.2,24.2C365.9,153.3,370.9,148.3,377.9,142.2z"/>
<path opacity="0.1" fill="#FFFFFF" d="M534.6,138.3c-8.3-33.8-40.1-5.7-52.2,12.5c-0.8,0-0.6-1.1-0.3-1.1c5.6-11,8.3-18,13.1-26.9
c1.2-2.7,6.3-9.5,6.1-12.2c-0.7-2-4.8-8.2-7.5-7.2c-0.6-0.8-2.2-0.5-3.1-0.3c-5,12.7-20.3,44.4-26.7,57c0.3,0.3,0,0.8-0.3,0.8
c-4.2,14.4-45,85.8-28.9,87c-0.3,0-0.6,0.3-0.3,0.6c0.1,0.6,2.1,0.2,2.5,0.3c8.7-5,30.5-64.8,37.2-62.8
C499.2,206.9,534.7,162,534.6,138.3z M522.9,140c-3.8,15.4-24.2,42.8-41.7,42.8c-3.6-1.8-5.7-3.5-2.2-7.2
C480.9,170.7,530.3,111.1,522.9,140z"/>
<path opacity="0.1" fill="#FFFFFF" d="M562.4,133.3c0-0.3,0-0.6,0.3-0.6c7-9.4,6.6-14.2,13.3-25c1.9-3.4,4-6.7,5.6-10.6c0-0.3,0.3-0.3,0.6,0h0.3
c0.4-4.2,6.7-10.3,7.8-14.2c13.5,5.1,12.8-23.3-1.4-19.4c-24.5,34.2-56.3,94.4-67.2,139.2c3.3,7.7,13.8,8.3,17,0
c-0.4-2.9,0.2-5.9,0-8.6c2.3-3.5-2.6-3.8,0-7.8C544.6,166.9,553.9,151.6,562.4,133.3z"/>
<path opacity="0.1" fill="#FFFFFF" d="M694.9,173.1c-1.2,1.2-3.2-1.4-4.2-0.3c-0.3,0-0.6,0-0.6-0.3c-8.6-10.4,17.8-38.4-9.4-40
c-3.8,0-15.5,9.6-18.1,12.2h-0.6c3.3-7.1,9.5-18.4,12.8-22.2c0.8-0.6,0.8-1.1,0-1.9c-0.3-1.1-2.5-3.1-2.8-3.9
c-6.4-2.2-8.9-1.2-11.7,5c-3.7,4.8-8.8,15.6-12.5,21.7c-2.4,5.4-9.5,9.6-13.9,13.3c-7.7,7.7-16.9,14.7-24.2,18.6
c-4.6-7.2,13-38.5,14.4-38.9c1.9-1.3,0.4-4.9-0.3-6.4c-1.2-4-5.2-3.8-9.7-4.4c-2.2,0-1.2,4.2-3.6,2.8c-19.2-6.1-57.6,24-55.6,43.9
c9.6,18.1,24.8,8.4,41.7-6.4c-1.2,9.1,5.8,20.4,15,20.6c5.3,0.2,13.2-5.8,18.5-10.3c-4.2,6.8-6.2,13.5,3.5,14.7
c12.2-3,10.1-25.9,38.6-41.1c-0.3-0.6,5.3-3.3,8.1-4.4c-0.2,3.9-4.6,14.7-3.3,20c1.2,8.7,4.8,13.7,12.2,14.4
c1.7-0.3,5.1,2.2,6.4,0.8c0.3-0.8,0.6-0.8,1.4-0.6c0.6,0.3,0.8,0,1.1-0.6C699.5,176.1,700,172.9,694.9,173.1z M604.6,139.4
c-67.3,69.7-27.5,3.8,0-0.8V139.4z"/>
</svg>
