<svg xmlns="http://www.w3.org/2000/svg" x="0px" y="0px" width="700px" height="300px" viewBox="0 0 700 300">
<g opacity="0.1">
<path fill="#FFFFFF" d="M211.2,87.7c12.3,15.8,25.3-7.5,7.5-11.5C209.4,76.1,207.9,80.3,211.2,87.7z"/>
<path fill="#FFFFFF" d="M315.8,141c-19.2-67.7-86.5,35-62.2-8.6c9.7-15.6,21.7-41.2,33.7-56.5c6.8-6.1-4.8-16.1-10.1-16.6
c-28.9,39.3-29,53.5-55.5,94.3c0.6,3.4-12.1,11.1-14.2,13.3c-21.1,15.9-18.3,17-34.5,24.8c-3.9-17.3,25.2-41.8,27-57.9
c-2.6-6.3-13.5-14.5-18-5.4c-3.5,5-4.4,11.5-12,10.8c-24,11-42.7,24-65.2,35.6c-90.2,54-87.2,37.8-41.6-38.9
c11.5-24,96.6-127.5,51-132.1c-9.6,31.5-36.7,71.5-56.6,102.9c-19.7,35.2-83.6,117.7-6.4,117.7c39.5-13.7,65.3-34.6,102.4-56.5
c16.3-14.9-4.5,14.4,3,23.4c8.7,19.4,31.7,14.9,45.7,3c-7.4,9.2,5.7,21,13.1,15.4c23.3-31.1,10.6-19.9,38.2-11.2
C280.4,201,316.1,167.3,315.8,141z M300.4,141c0.7,17.1-61.3,67.7-59.3,36C247,167.8,308,107.9,300.4,141z"/>
<path fill="#FFFFFF" d="M379.9,153.6c25.6,6.2,13.8-64.7-35.2-3.6c-2.5,0.2-0.1-2.5,0.4-3.2c3.7-7.5,4.8-10.1,10.5-18.7
c8.2-11,15.5-9.4,0.7-17.3c-14.1-2.7-19.3,18.8-25.5,27.7c-8,19.3-39.1,57.3-13.5,63.7c7.2,1.3,5.2-7.3,5.6-7.9
c3.5-5.4,12.4-18.3,15.4-21.2C349.2,164.8,380.7,112,379.9,153.6z"/>
<path fill="#FFFFFF" d="M559.2,153.6c25.7,6.1,13.7-64.6-35.2-3.6c-3.1-0.3,2.5-5.8,2.6-7.6c0.4-1.6,1.2-3.8,3-5
c0.2-5.9,12.5-16.5,14.6-19.1c-2.3-7.4-12.7-9.7-18.4-5.8c-5.7,7.4-11.6,17.7-15.7,25.9c-4.8,10.3-24.1,19.9-30.8,28.4
c-52.8,46.3-14.6-21.4-6.4-32.7c5.9-9.8-11.8-19.5-17.6-10.1c-29-12.8-111.3,55.3-57.8,69.1c7.7,5.3,40.1-25.9,38.3-16.6
c0,10.4,9.8,22.3,20.3,22.3c12-0.8,22.1-11.6,33.9-20.3c-3.3,9.1-6.7,22.4,5.4,23.6c7.8,2,6.6-6.8,6.7-7.9c0,0,6.8-10.1,6.8-10.1
c12.3-16.2,24.7-29.9,39.7-44.3C561.6,131,556.1,147.4,559.2,153.6z M446.3,138.1c-15.8,18.3-76.9,67.9-34.9,20.5
C421.1,148.6,440.3,133.8,446.3,138.1z"/>
<path fill="#FFFFFF" d="M679.2,195c-11.5-11-30.6-3.3-41.2,5c3.2-16.2,40.1-78.3,4.9-76.3c-8.1,4.8-75.9,73.3-58.9,47.1
c11.5-17.5,25.1-31.5,39-48.9c2.1-4.6-7.9-8.9-10.5-9.4c-5.1,3.3-16.1,18.1-21,22.3c-8.5,10.8-25.7,31.8-27.7,41.7
c-0.6,29.5,25.6,18.6,39.4,3.2c10.6-10.2,21.9-20.5,33-30.2c8.4-10.3,0.2,10.7-0.8,15.5c-4.5,11.9-11.6,34.1-18,44.6
c-2.2,27.6-79.4,67.4-50.6,87.1c29-16.7,46.3-57.7,72.4-77.7c9.9-7.9,21.2-21.1,35.6-19.1C678.5,206.6,686.4,199.4,679.2,195z"/>
</g>
</svg>
