<svg xmlns="http://www.w3.org/2000/svg" x="0px" y="0px" width="700px" height="300px" viewBox="0 0 700 300">
<path opacity="0.3" fill="#fff" d="M43.4,98.3c39.1-16.5,116.9-38.7,141.1-0.5c15.3-23.8-47-31.9-65-31.6
C99.6,65.8,9.6,75.9,43.4,98.3z"/>
<path opacity="0.3" fill="#fff" d="M106.5,205.9c-9-0.8-13.1-2.2-27.8-2.4c-2.6-2.5-30.7,6-20-5.7
c19.2-31.5,38.5-69.6,61.5-101.4c7.2-6.5,0.4-13-7.3-15.4c-11.9,14.6-43.3,69-56.4,89.8c-24.3,47.6-20.6,26.8-53.7,46.9
c-1.4,0.9-1.3,2.9,0,3.5c6.3,13.9,22.4-3.4,32.9-1.9C42.7,216.1,142.7,218.5,106.5,205.9z"/>
<path opacity="0.3" fill="#fff" d="M312.9,164.6c10.9-2.3,9.3-23.2-3.2-22.7c-6.5-3-27.3,24.1-24,16.5
c3.2-6.1,7.4-17.3,14.3-20.5c-0.2-5.8-9.2-8.4-13.2-5.1c-4.1,5.5-8.4,13.3-11.3,19.4c-5.8,1.4-25.2,15.8-21,2.4
c-5.9-26.4-40.6-7.5-47.5,10.8c-9.4,5.7-25.7,9.7-36.4,11.1c-3.1-4.1,10.6-20,13.5-25.4c4.1-7.1,15.7-27.4,20.5-34
c1-0.8,9.2-15.5,10.5-15.4c4.2-3,16.4-11.2,5.1-13.5c-2.8-0.9-11.4-2.5-14,0.3c0.2,1.5-30.1,50.2-30.8,51.8
c-8.4,13.1-14.8,24.5-22.9,39.1c-2.7,5.1,0.2,6.3-7.6,4.6c-6-8.2,6.2-25.5,2.7-32.4c-9.5-17.9-26.9,6.6-29.4,3.8
c3.5-7.9,11.3-17.2,11.9-21.9c-1.7-4.3-8.8-7.1-11.9-2.7c-5.2,8.6-12.3,20.2-16.7,29.9c-6.2,10.9-32.1,51-5.4,37.2
c5.3-8.5,11.2-21.4,18.1-26.4c2.9-0.8,28.3-25.9,18.9-4c-6.9,32.3,24.2,12.2,9.2,40.5c-12.8,80.9,56.3,15.6,40.5-22.7
c22.9-12.4,17.7,8.8,35.9,12.1c21.1-4.3,28.6-33.4,51.6-35.2c-7.1,15.8-20.9,35.6-2.5,37.9c7.9-18.7,21.2-32.1,35.6-46.9
C314.5,145.2,306,163.8,312.9,164.6z M176.7,192.7c-6.8,14.7-12.3,36.1-25.9,43.7c0.8-14.9,2.5-49.4,22.7-49.6
C176.8,186.8,176.9,189.7,176.7,192.7z M216.3,186.8c-3.4-5.4,3.5-12.7,7-18.9C241,154,225.3,184.6,216.3,186.8z M241.4,153.6
c-1.9,4.9-5.6,11.2-5.1,1.3C237.4,154.5,242.3,149,241.4,153.6z"/>
<path opacity="0.3" fill="#fff" d="M513.9,206.2c8.4-25.9,19.3-51.6,36.1-70.7c8.2-4.9,39.2-4.5,40.2-10.8
c-6.2-10.9-24-2.6-32.1-5.1c7.5-12.1,15.5-24.9,23.5-35.9c7.9-0.4,12.4-15.1,3-18.9c-7.4-9.1-24.4,31.4-30.5,37.5
c-14,26.3-23.3,28.1-53.4,27.8c-6.2,3.1,6,11.4,10.5,10.3c4.4,1.4,16.7-1.9,18.3,0.8c-10.3,16.2-34.5,37.8-50.7,45.1
c-1.4-17.7,17.6-33.6,14.6-43.4c-1.6-4.7-9.9-5.7-12.4-1.3c-30.7-12.9-59.4,53.2-78.5,49.4c-7.4-13.2,32.2-46.3,6.7-51.3
c-2.7-1.3-21.4,12-31.6,22.1c-1.4-1.6,1.8-7.6,1.3-11.6c-10.5-33.1-44.7,18.7-28.6-4.6c2.7-4.3,6.8-10.1,10.3-13.8
c-2.4-4.6-10-8.9-12.9-4c-17.8,27.3-52,65.5-24.8,76.6c12.3-15.7,23.2-36.2,38.6-49.6c12.4-10.8-9,27.4-10,36.1
c10.4,17,16.7-2.2,24.8-10.8c6.3-8.2,15.9-16,23.5-22.7c-3.3,11-16.6,40.7,9.2,43.2c5.7,0,15.1-7,19.1-13.2
c11.6,12.4,22.7,3.9,38.8-9.7c0.8,30.7,27.6,18.3,42.8,1.6c-4.7,11.3-10.2,27.8-6.6,37c1.7,4.2,6.8,8,10,4.9
C511.6,216.7,513.1,210,513.9,206.2z M474.5,152c-11.6,14-54.7,50.2-25.1,15.4C457.9,159,468.1,149.7,474.5,152z"/>
<path opacity="0.3" fill="#fff" d="M585.1,105.6c-12.5-0.9-5.1,15.7,4.6,12.1C593.8,114.5,589.7,104.9,585.1,105.6z"/>
<path opacity="0.3" fill="#fff" d="M694.1,184.6c-13.8,2.3-0.8-24-1.3-27.8c-1.3-20.9-22.4-7.7-30.5,0.3
c3.2-6.9,9.2-17.9,12.4-21.6c-5-16.6-16.2,0.2-20.5,10c-1.5,8.1-26.9,22.6-22.9,9.2c-2.4-14.1-8.5-10.9-18.6-12.7
c-21,0.9-35,38.5-51.5,44.2c-22.4,20,2.4-24,7.8-29.4c5.6-5.9,0.4-17.5-8.6-14.6c-11,18.3-38,54.9-4.9,59.6
c25-3.4,12.7-20.1,39.9-4.3c20.8-3.3,27.3-32.9,49.5-34.2c-6.9,10.8-29.7,48.4-4.2,34.7c10.4-19.5,17.9-30.1,39.4-40.5
C662.7,197.8,711.3,196.2,694.1,184.6z M593.2,186.8c-3.4-5.4,3.5-12.7,7-18.9C617.9,154,602.2,184.6,593.2,186.8z M618.3,153.6
c-1.9,4.9-5.6,11.2-5.1,1.3C614.2,154.5,619.1,149,618.3,153.6z"/>
</svg>
