<svg  xmlns="http://www.w3.org/2000/svg" x="0px" y="0px" width="700px"	height="300px" viewBox="0 0 700 300">
<path opacity="0.5" fill="#DABEA5" d="M332.7,147.4c6.5,4.2,34.1-22,17.8-26.2C329.8,96.4,297.2,147.6,332.7,147.4z"/>
<path opacity="0.5" fill="#DABEA5" d="M639.7,194.6c-31.3,3.3-93.3,61.3-116.3,22.1c30.7-12.5,50.2-23.2,78.6-53.9
c1.5-5.6-14.8-22-21.5-13.5c-11,13.3-60.9,52.1-79.1,52c-2.3,0.2-2.2-1.5-1.1-2.9c-3.7,1.9,13-21.2,12.4-21.2
c14.5-20.7,34.1-48,49-69.3c8.2-11.4,18.2-25.3,26.4-33.7c0.5-6-10.9-15.6-21-14.9c-35.8,41.3-75.2,100.8-104.5,147.3
c-11.5,14.3-6.7,37.5-21,32.3c-14-18.5,23.5-57.1-4.3-66.9c-19.2-14.4-63.4,36.7-44.1,8.7c6-15.4,18.9-23.4,18.8-31.8
c-6.3-12-23.6-11.4-28,1.9c-12.2,15.5-24.5,39-35,56.8c-20.9,13.5-45.2,36.3-57.6,40.9c-38.3,23.1,35.1-68.2,29.6-72.7
c-4.1-8.7-19.3-19.4-25.8-7.2c-5.8,7.7-5.8,15.1-17.2,14.4c-57.5,23-144.8,85.8-197,91.5c-13.6-11.2,16.6-46.1,28-69.3
c31.3-52.5,79-115.7,105-165.1c-0.5-4.8,5.4-9.6,4.8-14.4c-0.3-5.4-2.9-2.8-1.6-9.1c0.9-7.8-14.6-18.7-22.6-12.5
c-4.3,23.6-16.7,48.6-37.1,74.1c-34.9,58.4-86.6,117.2-105,179.6c20.6,98.5,150.6-13.2,201.9-36.1c23.7-20.1-6.5,18.5,4.3,31.3
c10.9,23.4,40.9,21.1,59.8,7.7c-0.7,6.4,10,10.2,13.9,10.1c32.8-18.3,25.5-54.6,90.5-78.9c-10.4,24.2-9.7,62.8,26.4,61.6
c1.7,6.6,8.2,27.9,23.1,30.8c15.6,1-16.6-17.8,5.9-51c3.9-8.7,6.4-17.3,17.2-11.1c21.8-1.4,38,28.3,60.3,25
C573,252.3,682,209.7,639.7,194.6z"/>
</svg>
