<svg  xmlns="http://www.w3.org/2000/svg" x="0px" y="0px" width="700px"	height="300px" viewBox="0 0 700 300">
<g id="location">
<path opacity="0.8" fill="#29647c" d="M190.8,224c-5.6-8.3-13-7.5-20.4-10.2c-17.4-5.7-34.9-27.4-48.6-36.6l-2.1-2.1
c27.8-19.3,75.9-39.3,79.8-69.3c-3.4-42.5-51.6-28.2-78.6-18.3l-0.3-1.5c7.2-11.8,10.9-17.5,16.2-22.8c-0.1-0.5,1-1,0.9-1.5
c2.6-4.1-10-15.5-12.6-9.3c-10.4,14.8-22.7,36.1-33,48.9c-7.4,7-39,21.4-40.2,27.6c2,17.4,7.9,13,18.3,4.5
c0.8,2.5-4.3,7.4-11.1,18.9c-17.3,31.4-45.5,65.7-30.3,93.2c3.6,8.7,15.6,12.6,12.6,2.4c-23-25.9,39.7-95.5,54-124.8
c15.3-22.5,81-45.8,94.8-25.8c-1.7,23.9-54.6,51.5-72,60c-14.3,6.7-32-1.6-44.4,9c-7.9,4.4-6.1,9.8-3.9,16.2
c5.3,14.2,24.6,0.9,34.2-2.7c19.1,6.5,68.7,70,87.9,44.4C191.6,224.2,191.2,224.4,190.8,224z"/>
<path opacity="0.8" fill="#29647c" d="M216.9,118.9c0,3.5,14.4,7.4,12.3,0.6c2.8-6.9-5.7-12.6-10.5-9.3h-2.1C214.8,113.4,215.9,115.7,216.9,118.9z"/>
<path opacity="0.8" fill="#29647c" d="M307.2,130c2.1-0.8,6.3-3.6,8.1-4.8c-1-4.2-4.1-3-5.4-5.4c-23.9-4.1-56.7,49.9-69.9,64.5h-0.3l-0.6-1.5
c3.1-11.3,12.3-37.2,19.8-51c0-3.9-7.5-7.5-11.4-7.5c-1.9-0.5-4.6,10.1-5.4,11.1c-6.3,12.3-10.6,27.1-14.8,38.8
c-7.5,5.5-27.8,23.2-31.1,24.8c-25.8,23.4,3.5-27.6,9-33.3c5.9-6.8-0.1-18.6-9.9-15.6c-13.9,20.5-43,67.8-0.9,65.7
c9.2-1.7,15.6-8.2,25.5-17c-2.5,9.7-4.2,18.1-5.1,25.4l0.6,0.6l-0.3,1.2c17.3,27.2,27.7-34.3,43.8-43.2c0-1.2,1.9-3.2,2.7-4.2
c0.6-1.5,8.3-9.3,8.4-11.4C282.2,152.7,301.8,132.5,307.2,130z"/>
<path opacity="0.8" fill="#29647c" d="M398.4,150.8c-12.7-4.1-22.9,11.9-31.2,20.1h-0.6c-0.3-0.3-0.3-0.6-0.3-0.9c1-1.4,2.6-4.5,3.3-6
c-0.5-1.1,1.3-2.8,2.1-3.6c0.1-1.9,7.3-13.8,9.6-13.8c0.3,0.3,1.2-0.3,2.1-1.2c-0.3-5.5-6.2-7.4-10.8-7.2
c-7.8,1.3-9.9,13.5-14.7,18.9c-0.9,3-2.9,6.7-4.6,9.6c-18.6,5.5-47.5,49-68,37.8c-0.1-0.8-0.4-1.6-0.6-1.8
c-0.6-4.7,0.9-16.9,6.9-12.9c1.1,0.5,4.8,0.8,5.7,1.2c11.1,0.6,28.6-14,34.2-22.8v-0.3l2.1-2.1c-0.1-1.2,1.8-2.5,2.1-3.6
c4.1-38-42.8-14.6-57.9,14.4c-0.3,0-0.3,0.3-0.3,0.6l-0.3,0.3c0,0.3,0,0.3-0.3,0.6c-16.5,22,11.3,52.5,34.8,34.8
c0.7-0.2,1.2-1.2,2.1-0.9c2.4-1.9,7.7-2.9,8.4-5.4c5.8-2.8,14.5-10.9,19.6-16.6c-2.7,7.7-6,14.2-3.4,19.6c0,4.4,4.8,4.5,8.1,5.1
h0.9c6.2-14.6,11.2-20.4,21.3-32.7c0.3,0,0.3-0.3,0.6-0.3c6.2-6.2,27.1-36.2,25.2-11.4c0.3,0.3,0.3,0.6,0.3,0.9
c-0.7,0.9,1.7,5.5,3.6,3.6c0.3,0.3,0.9,0.3,1.2-0.3C408.4,170.7,408.1,153.6,398.4,150.8z M308.7,164c7.8-6.7,12.8-10,15.9-9.9
c-1.7,6.3-24.9,29-31.5,26.1C295.8,176,301.2,170.6,308.7,164z"/>
<path opacity="0.8" fill="#29647c" d="M467.7,189.2c-1.3-4.6-5.6-9.1-9.3-11.1c-6.4-4.1-16.2-2.6-25.2-3.6c-2.8,1.4-13.5,0.3-12.6-0.3
c3.7-10.7,60.6-48.5,42.6-15c15.1-5.1,13.6-23.9-3.3-26.7c-36.2,3.7-82.6,62.7-14.1,54.6c27-0.3-34.3,22.4-41.4,13.2
c-10.1,7.9,12.7,18.8,20.7,13.8C437.5,211.9,465.1,204.6,467.7,189.2z"/>
<path opacity="0.8" fill="#29647c" d="M511.5,118.9c0,3.5,14.4,7.4,12.3,0.6c2.8-6.9-5.7-12.6-10.5-9.3h-2.1C509.4,113.4,510.5,115.7,511.5,118.9z"/>
<path opacity="0.8" fill="#29647c" d="M616.8,125.2c4.6-5.7,13.4-21.3,15.6-30.9c-0.4-3.8-2.4-8.7-4.8-8.7c-8.2-9.3-12.1,9.7-18.6,18
c-10.9,12.1-25,49.9-36.9,53.1c-35.6-32.7-53,30.5-81.3,42.3c-25.8,23.4,3.5-27.6,9-33.3c5.9-6.8-0.1-18.6-9.9-15.6
c-13.9,20.5-43,67.8-0.9,65.7c9.2-1.8,15.1-7.9,25.1-16.6c11.7,21.2,27.2,13.8,44.2-3.5c4-0.7-5.7,11.5,7.2,21
c1.6,3.4,9.9,4.1,9.6-0.3c0.1-3.7,4.5-8.7-2.4-8.1C562.7,198.3,607,138.4,616.8,125.2z M565.8,167c-10.4,11.7-26,28-39.3,33
c-4.9-10.2,21.3-47.1,36.9-39.9C567.6,161.9,570.5,163,565.8,167z"/>
<path opacity="0.8" fill="#29647c" d="M676.5,165.2c-17.2-0.8-53.2,52-73.2,39.3c-0.1-0.8-0.4-1.6-0.6-1.8c-0.6-4.7,0.9-16.9,6.9-12.9
c1.1,0.5,4.8,0.8,5.7,1.2c11.1,0.6,28.6-14,34.2-22.8v-0.3l2.1-2.1c-0.1-1.2,1.8-2.5,2.1-3.6c4.1-38-42.8-14.6-57.9,14.4
c-0.3,0-0.3,0.3-0.3,0.6l-0.3,0.3c0,0.3,0,0.3-0.3,0.6c-16.5,22,11.3,52.5,34.8,34.8c0.7-0.2,1.2-1.2,2.1-0.9
c2.4-1.9,7.7-2.9,8.4-5.4C645.9,202.7,687.1,171.8,676.5,165.2z M626.7,164c7.8-6.7,12.8-10,15.9-9.9c-1.7,6.3-24.9,29-31.5,26.1
C613.8,176,619.2,170.6,626.7,164z"/>
</g>
</svg>
