<svg  xmlns="http://www.w3.org/2000/svg" x="0px" y="0px" width="700px"	height="300px" viewBox="0 0 700 300">
<g id="contact" opacity="0.1">
<path fill="#FFFFFF" d="M147.7,148.6c11-2.9,40.1-9.4,7.7-9.6c-1.9,0.1-5-1.7-4.4-3.3c-8.4-23.8-24.7,9-41.8,8
c-5.1,2.8-13.1-4.2-17-0.3c-1,6.2,13.7,9.4,13.2,11.5c-5.5,4.7-17.3,15.9-22.5,20.3C-65.3,310,63.8,86.9,127.7,68.7
c19.9-5.2,1.4,27.4-2.5,30.2c-1.4,3.1,3.6,5.6,5.5,6.9c2.5-0.2,2.6-1,4.7,0c32.5-26.7-2.4-68.9-36.3-37.9
c-42.9,36.9-90.1,86-96.8,143.5c7.2,39.4,53.7,6.9,71.5-10.2c20.5-17.1,31.5-26.5,52.5-46.2c-10.2,24-34.3,49-42.9,76.7
c-0.6,4.3,6,8.2,9.3,8.2c6.5,1.1,7.9-7.6,6.3-13.7c-0.3-0.3-0.3-0.5,0-0.5C109.8,207.3,132.7,163,147.7,148.6z"/>
<path fill="#FFFFFF" d="M280.8,137.9c5.7,1,9-5.3,3-7.4c-7.8-5.1-19.5-1.7-28-1.1c-2,0.3-1.2-1.4-0.5-2.5
c8-11.7,15.1-24.3,23.1-34.9c5,0.6,8.6-7.1,8.2-11.5c2.3-4.3-11.4-14.2-12.6-6.6c-7.6,12-16.1,24.9-23.6,37.1
c-6.3,5.8-9.1,20.3-18.1,23.6c-10.3,3.7-24,5-36.3,4.7c-1.9,0-2.5,0.5-1.6,1.9c2.3,10.1,14.8,8.5,22.5,8.8c15.7-3,3.3,5.2-0.4,15.6
c-16.5,2.1-46.5,46.7-65.3,35.8c0-0.7-0.3-1.4-0.5-1.6c-0.6-4.3,0.8-15.5,6.3-11.8c1.1,0.5,4.4,0.8,5.2,1.1
c10.2,0.5,26.2-12.8,31.3-20.9v-0.3l1.9-1.9c-0.1-1.1,1.7-2.3,1.9-3.3c3.7-34.8-39.2-13.4-53.1,13.2c-0.3,0-0.3,0.3-0.3,0.5
l-0.3,0.3c0,0.3,0,0.3-0.3,0.5c-15.1,20.1,10.3,48.1,31.9,31.9c0.6-0.1,1.1-1.1,1.9-0.8c2.2-1.8,7.1-2.6,7.7-4.9
c7.4-3.5,14.9-12.7,22-18.6c-3.8,11.3-13.9,31.1-8.3,40.3l0.3,0.5c-1.5,2.7,2.5,5.4,3.6,6.9c0.7-0.6,3.3,0.5,4.9,0.8
c0.9,0.1,1.5-2.3,0.8-2.7c0.9-30.6,19.6-59.2,35.2-83.3C251.2,141.3,271.2,138.2,280.8,137.9z M172.5,164.3
c7.1-6.2,11.7-9.1,14.6-9.1c-1.6,5.8-22.9,26.6-28.9,23.9C160.6,175.3,165.6,170.4,172.5,164.3z"/>
<path fill="#FFFFFF" d="M319.5,123.1c0,3.2,13.2,6.8,11.3,0.5c2.5-6.3-5.2-11.6-9.6-8.5h-1.9C317.5,118,318.6,120.1,319.5,123.1z"/>
<path fill="#FFFFFF" d="M377.5,194.8c-1.2,1.2-3.2-1.4-4.1-0.3c-0.3,0-0.5,0-0.5-0.3c-6.7-12.8,15.4-40.1-9.3-39.6
c-3.7,0-15.3,9.5-17.9,12.1h-0.5c2.7-8.4,12.2-18.8,12.6-23.9c-0.3-1.1-2.5-3-2.7-3.8c-1.2-0.2-3.1-0.7-4.1-1.1
c-9.5,0.6-19.4,29.7-25.1,38.4c-6.2,4.9-23.4,19.5-25.2,20.2c-23.6,21.4,3.2-25.3,8.2-30.5c5.4-5.9-0.3-17.3-9.1-14.3
c-12.8,18.8-39.4,62.1-0.8,60.2c3.5,0.6,7.5-3.6,11-5.2c0,0.1,0,0.2,0,0.3c11.1,21.9,22.3-27.4,45.4-35.2
c18.9-15.7-9.2,27,16.8,29.7C380.5,205.6,386.3,195.5,377.5,194.8z"/>
<path fill="#FFFFFF" d="M431.9,216.8c7.7-25.8,19.3-48.9,34.1-69.5c7.8-6,27.9-9.1,37.4-9.3c5.7,1,9-5.3,3-7.4
c-7.8-5.1-19.5-1.7-28-1.1c-2,0.3-1.2-1.4-0.5-2.5c8-11.7,15.1-24.3,23.1-34.9c5,0.6,8.6-7.1,8.2-11.5c2.3-4.3-11.4-14.2-12.6-6.6
c-7.6,12-16.1,24.9-23.6,37.1c-6.3,5.8-9.1,20.3-18.1,23.6c-10.3,3.7-24,5-36.3,4.7c-1.9,0-2.5,0.5-1.6,1.9
c2.3,10.1,14.8,8.5,22.5,8.8c3.9,0.2,8.2-2,8.5,0.5c-3.9,3.8-8.9,16.1-13.7,24.5c-6,14-18.7,37.5-12.9,50l0.3,0.5
c-1.5,2.7,2.5,5.4,3.6,6.9c0.7-0.6,3.3,0.5,4.9,0.8c0.9,0.1,1.5-2.3,0.8-2.7C429.5,226.6,431.4,220.1,431.9,216.8z"/>
<path fill="#FFFFFF" d="M566.9,177.5c2.2-6.2,11.6-26.6-4.4-23.6c-5.9,10.3-25.8,30.6-34.4,38.2h-0.8c1.5-6.6,6.7-12.5,9.9-18.4
v-0.3c4.8-6.2,9.9-13.3,16.2-16.8c-6.1-15.7-19-3-24.9,6.7c-5.1,2.3-14.5,6.4-19.3,7.6c3.5-6.9-3.5-23.4-11.8-17.9
c-30.9-13.2-62,64.4-16.8,52.8c8.1-1.9,20.9-20.2,25-26.9c5.6-1.1,11-2.7,16-4.7c-22.6,39.6,14.3,38.9,31.9,9.4l0.3,0.3
c-0.5,8.4,3.6,20.5,13.2,20.1c4.2,0.6,3.4-6.7-0.3-6.9C561.4,193.9,565.6,182.4,566.9,177.5z M471.2,197c-3.8-7.7,7-17.5,11.8-25
c1.6,2.5,3.6,4.1,5.8,5.2C483.1,186.3,477,192.9,471.2,197z M496.8,163.2c-0.8,1.9-3,6-3.8,7.4c-1.4-1.1-1.6-3-1.4-6l4.4-3.3
C497.2,161.2,496.7,162.5,496.8,163.2z"/>
<path fill="#FFFFFF" d="M685.1,149.2c-13.7,4.4-23.1,21.9-34.1,31.9h-0.5v-0.5c14.2-24.3,32.1-51,47.6-75.9
c-0.8-10.2-10.5-11.1-13.5-1.6c-11.2,17-19.8,31.1-29.7,46.5c-8.5,21.4-31.9,44.1-49.5,45.9c-5.6,2.5-14.1,5.1-20.9,1.7
c-9.8-11.3,24.3-43.5,34.4-42.3c-0.9,8.4-29.1,23.3-13.5,32.7c12.7-7.8,24.8-25.9,22.5-36.8c-10.7-32.7-52.2,21-54.1,35.2
c-4.3,34.7,32.4,29,53.2,13.1c-7.2,11.2-6,28.6,8.7,20.5c7-9.1,28.8-37.8,37.9-45.1c0.8-0.9,1.8-2.8,3.3-2.7
c-2.9,20.7-11.3,31.1,3.6,41.2c6,2.1,9.8,0.5,8.8-5.5c-2.2-2.3-3.4-1.9-5.8-1.9c-2.6-3.4,0.4-8.3,0-11.5
C683.6,180.7,701.7,155.4,685.1,149.2z"/>
</g>
</svg>
