<svg  xmlns="http://www.w3.org/2000/svg" x="0px" y="0px" width="700px"	height="300px" viewBox="0 0 700 300">
<path fill="#dabea5" opacity="0.5" d="M644.4,194.5c-33.4,4.4-80,58.4-113,24.3c28.9-15.8,48.1-23,76.4-55.4c0-0.5,0-1,0.5-1
c1.1-5.5-13.9-22.3-20.6-13.6c-8.9,10.6-66.2,62.1-76.9,49.6h-1c25.2-39.8,54-86.7,83.6-123c0-0.5,1-1.9,1.5-2.4
c-16.3-33.7-31.2-2.8-47,19.9c-18.2,29.1-44.4,65.7-62.4,94c-9.1,3.7-22.8,9.2-30.5,11c6.8-12.8-7.3-41.5-22.2-31.6
c-30.1-13-56.5,29.7-87.7,31.6c6.8-12.8-7.3-41.5-22.2-31.6c-16.3-7.8-35.1,1.8-48.7,16c-57.6,18.6-141.4,88-193.7,92.9
c-16.2-9.8,33.6-75.9,41.8-96.8c19.5-26.4,40.8-66.7,58.8-90.9c12.9-20,19.7-39.6,26.8-49.1c-1.1-1.5,2.6-8.3,3.6-8.8
c0.3-2.9,2.6-9-1-10.2c4.5-9.6-11.2-24.6-21.2-17.5c-5.8,39.4-42.7,85.3-65.5,122C99.5,173.4-1.3,283.8,96.5,300
c57.4-14.2,93-46.7,147-75.9c0.6-2.8,3.4-1.7,4.9-3.5c-9.1,26,19.4,52.5,43.1,39c14.9-3.2,39-35.5,47-47.7
c9.8-1.8,19.3-4.3,28.1-7.6c-24.6,28.7,2.2,71.1,34.9,55.2c14.9-3.2,39-35.5,47-47.7c9.7-1.8,19.1-4.3,27.8-7.5
c-0.3,0.7-0.7,1.4-1,2.1h-0.5c-13.3,29.4-22.1,48.1,2.1,74.9c11.4,6.5,16.9,3.9,7.2-7.3c-7.5-17.1,3.9-38.9,12.9-54.9
c6.1,2.2,13.6,3.7,20.1,2.9c25.8,23.9,43.3,30,72.8,21.9C601.3,240.5,682.6,206.7,644.4,194.5z M274,244.1
c-7.1-13.7,13.4-31.1,22.2-44.2c3.1,4.4,6.7,7.3,10.8,9.2C296.1,225.1,284.8,236.8,274,244.1z M321.9,184.3
c-1.5,3.4-5.7,10.7-7.2,13.1c-2.6-1.9-3.1-5.3-2.6-10.7l8.3-5.8C322.7,180.8,321.8,183,321.9,184.3z M383.9,244.1
c-7.1-13.7,13.4-31.1,22.2-44.2c3.1,4.4,6.7,7.3,10.8,9.2C406,225.1,394.7,236.8,383.9,244.1z M431.8,184.3
c-1.5,3.4-5.7,10.7-7.2,13.1c-2.6-1.9-3.1-5.3-2.6-10.7l8.3-5.8C432.6,180.8,431.7,183,431.8,184.3z"/>
</svg>
