<svg xmlns="http://www.w3.org/2000/svg" x="0px" y="0px"	 width="700px" height="300px" viewBox="0 0 700 300">
<path opacity="0.1" fill="#FFFFFF" d="M103.5,251.3c-3.3,1.6-3.9-2-5.2,0c-8,4.4-3.7-16.8-3.9-20.5c7-34.4,19.2-62.6,32.9-88.5 
c8.6-27.6,69.8-118.1,25-119.7c-0.6,1.9-1.9-0.4-2.9-0.3c-8.1,0.6-26.3,19.7-31.9,26c-26.6,28.3-45.9,54.9-74.2,98.9 
c-2,3.3-4.9,5.5-8.5,6.8C24.1,158,13.7,164.2,3,172.9C-1,175.3,3.7,183,6.2,184c2.2-0.3,2.4,2.3,4.6,2c1,0.3,1.3-0.3,2.3,0 
c0.3,0,1,0,1-1c2.6-3.7,7.1-6.3,8.8-6.5v0.7c-3.2,4-10.1,18-13.3,23.7c-0.4,4.5,6.6,9.9,10.4,10.1c6.4-0.2,7-14,10.7-16.6
c4.7-9.3,12.3-20.1,17.6-29.6c2.5-6.5,63.6-30.2,61.8-23.7c-7.1,14.3-11.5,26-16.9,40c-8.8,27.2-22.2,57.6-3.9,74.8
c4.4,2.3,11.8,6.7,15.9,2.6c2.1-2.4,3.4-4.9,2.3-9.1C105.9,250,105.4,251.6,103.5,251.3z M109,130c-0.5-0.2-1.1-0.9-1.6-0.3
c-9.6,1.1-27.8,4-36.4,8.8c-0.2,0.1-0.8,0.4-1,0.3c-1-0.3-2.3,0.3-2.6,0.3c23.7-36.9,50.2-73.7,86.2-102.5c1,0.1,1.4-0.4,1.3,1.3
c-2.9,16.4-9.6,29.4-15.6,42.9c-3.4,8.2-11.1,22.9-14,29.6c-4.8,6.7-6,20.9-12.4,19.2C112.1,130.5,110,129.4,109,130z"/>
<path opacity="0.1" fill="#FFFFFF" d="M507.1,131.6c0.3,0,0.3,0,0.3-0.3c0.3-1.3,1.3-2.3,2.9-2.6c11.3-2.4,30.4-9.3,41-8.1
c5.4,1.3,11-5.4,4.9-7.8c-9.2-7.5-23.8-3-34.5-2.3c-0.3,0.3-0.3,0.3-0.7,0c-2.2-0.5-0.2-1.9,0-2.9c9.4-13.8,17.8-28.7,27.3-41.3
c1.6,0.1,4.3,0.1,4.6-1.6c2.5-2.4,6.1-8.1,5.2-12c2.8-5-13.7-16.9-15-7.8c-6.7,9.3-11.5,19.3-18.5,28.9 
c-8.9,13.9-16.9,25.2-25.7,40.3c-1.6,2.5-3.1,2-5.2,2.6c-10.8,4-24.3,5.3-37.4,5.7c-0.1-0.4-0.2-0.8-0.3-1.2
c4.6-11.7-9.3-20.8-17.4-15.5h-3.5c-1,0.6-1.1,2.3-1,3.5c-2.1,5.3,0.7,5.9,1.5,11c-0.1,3.3,8.1,7,14.3,7.2c2.5,5,8.4,6.9,13.6,7.2
c33.7,1.6,22.4-8.4,8.5,25.2c-8.4,5.4-33.5,27.6-38.1,30.1c0,3.6-1.6,2.6-5.2,3.9c-20.2,16,12.7-38.7,15-40
c-0.7-1.2,5.1-7.1,2.9-9.1c-2.4-4.8-7.7-10.6-13.7-7.8c-8.8,14.8-25,39-25.3,51.6c-0.8-0.4-1.9-0.6-3.3-0.6
c-1.4,1.4-3.7-1.6-4.9-0.3c-0.3,0-0.7,0-0.7-0.3c-10.2-11.2,20.8-45.1-11.1-46.8c-4.4-0.1-18.1,11.3-21.1,14.3H366
c3.9-8.4,11.1-21.6,15-26c1-0.7,1-1.3,0-2.3c-0.3-1.3-2.9-3.6-3.3-4.6c-7.5-2.6-10.4-1.4-13.7,5.9c-5.2,7.1-11.5,20.2-16.4,28.6
c-14.8,5.9-57.5,54.4-70.4,39.4c-0.1-0.8-0.4-1.7-0.7-2c-0.6-2.4-0.5-7.7,1-8.5c2.6-11.3,4.3-4.8,12.7-4.2c12,0.6,31-15.1,37.1-24.7
V156l2.3-2.3c-0.1-1.3,2-2.7,2.3-3.9c7.4-10.2-6.8-22.1-14.6-21.1c-15.6,0-31.6,12.4-48.1,36.8c-0.3,0-0.3,0.3-0.3,0.7l-0.3,0.3
c0,0.3,0,0.3-0.3,0.7v0.2c-41.6,50.2-46.6,28.7-21.5-13.9c3.3-5.5,4.9-9.1,4.9-10.7c-7.3-21.9-31.2,1.1-49.8,17.6H201
c4-14.1,3.1-25.8-14.6-28c-9.3,0.4-15.8,11.9-23.1,16.9c-1.1-0.5,3.8-6.2,3.9-6.8c0.3-1.1,1.9-1.3,2-2.3c3.4-5.1,8.1-11.8,12-15.9
c0.3-0.3,0-0.7-0.3-1.3c-5.2-4.6-11.2-9.4-15.3-3.6c-21.1,25.2-44.1,69-42.6,80.3c-0.6,4.3,12.6,17.2,15.9,9.1
c3.2-7.8,11.1-17,15.9-24.4c9.9-14,19.9-26.7,32.5-37.4c-0.9,11.8-10.3,30.1-16.9,44.6c0,1.3-1,3.3-0.3,3.9c1.3,2,7.7,9.8,12,8.8
c6.4-4.4,12.9-16.9,18.9-23.1c7.8-9.3,18.7-19,28-26.3c0-0.3,0-0.3,0.3-0.3c-3.8,11-10.4,24.4-9.8,36.1c-0.2,7,13.6,16.9,19.8,16.6
c7.5,0.1,18.7-9.4,24-16.9c4.1,20,27,25.1,42.3,14.6c0.5,0.1,1.1-1.1,1.6-1c0,0,0.7,0,0.7,0c2.6-2.1,8.4-3.1,9.1-5.9
c1-0.2,10.3-7.1,12.8-9c-4.6,8.1-10.4,18.1,2.8,19.7c14.2-3.5,11.9-30.3,45.2-48.1c-0.3-0.7,6.2-3.9,9.4-5.2
c-4.8,18.1-9.6,39.1,15.9,41.6c2.3,1.1,1.6-1.9,3.6-1c0.7,0.4,1.2-0.2,1.4-0.9c9.5,23.9,34,12.3,49.3-3.7c-2,8.6-5.4,15.7-5.2,24.4
c0,1.8-0.8,10.3,1.6,7.8l0.3,0.7c-1.8,3.2,2.9,6.3,4.2,8.1c1-1,2.6,0.7,4.9,0.7c0.3,0,0.7,0,1,0.3c1.1,0.2,1.7-2.7,1-3.3
C465.6,196.5,489.6,158,507.1,131.6z M302.5,151.8c8.4-7.3,13.9-10.8,17.2-10.7c-1.9,6.8-27,31.5-34.2,28.3 
C288.5,164.8,294.4,159,302.5,151.8z"/>
<path opacity="0.1" fill="#FFFFFF" d="M686.3,146.6c1,0.3,4.6-2.6,11.4-9.4c1.6-2.3,2-4.9,0.3-7.2c-4.9-8.1-9.8-12.4-15.3-12.4
c-15,0.4-50.6,24.4-54.4,39.6c-14.7,6.5-56,53.2-68.9,38.5c-0.1-0.8-0.4-1.7-0.7-2c-0.6-2.4-0.5-7.7,1-8.5
c2.6-11.3,4.3-4.8,12.7-4.2c12,0.6,31-15.1,37.1-24.7V156l2.3-2.3c-0.1-1.3,2-2.7,2.3-3.9c7.4-10.2-6.8-22.1-14.6-21.1
c-15.6,0-31.6,12.4-48.1,36.8c-0.3,0-0.3,0.3-0.3,0.7l-0.3,0.3c0,0.3,0,0.3-0.3,0.7c-0.1,1.3-0.9,1.7-1.3,2.4
c-7.5,6.1-24.1,20.1-25.4,20.3c0,3.6-1.6,2.6-5.2,3.9c-1.5,0.3-3.7,3-5.5,3.3c-4.5-5.8,16.1-37.6,20.2-42.6c0.7-1.5,0.5-2.3,2.6-5.5
c1.3-1.6,1.6-2.9,0.6-4.2c-2.4-4.8-7.7-10.6-13.7-7.8c-8.2,13.6-24.5,38.7-25,49.8c-2.5,13.9,10.7,25.2,24.1,21.5
c3.9,1.3,18.8-10,24.7-15.7c5,18.7,27.5,22.2,41.7,12.4c0.5,0.1,1.1-1.1,1.6-1c0,0,0.7,0,0.7,0c2.6-2.1,8.4-3.1,9.1-5.9
c11.6-6.1,20.9-18.8,32.7-27.6c6.6,13.8,45.6,1.8,43.1,9c-13.9,8.3-42.3,20.2-50.7,11.4c-3.2,0.7-5,0.6-4.6,4.9
c-0.2,4.2,2.7,3.5,4.2,6.2c14,14.1,44-2.7,58.9-10.4c11.8-6.3,8.9-18.7-2-24.4c-7-4.5-17.8-2.8-27.3-3.9c-3.2,1.5-14.4,0.4-13.7-0.3
c4.1-9.3,41.3-37.6,51.4-29.3C692.9,133.3,685.2,146.8,686.3,146.6z M584.9,151.8c8.4-7.3,13.9-10.8,17.2-10.7
c-1.9,6.8-27,31.5-34.2,28.3C570.9,164.8,576.7,159,584.9,151.8z"/>
</svg>
