<svg  xmlns="http://www.w3.org/2000/svg" x="0px" y="0px" width="700px"	height="300px" viewBox="0 0 700 300">
<g opacity="0.8">
<path fill="#fff" d="M314.5,262.5c12.5-42.1,31.5-79.7,55.6-113.4c9.5-8.8,48.2-15.5,61-15.2c9.4,1.6,14.6-8.7,4.9-12.1
c-12.8-8.3-31.7-2.7-45.7-1.8c-3.3,0.5-2-2.3-0.9-4c13-19.1,24.6-39.6,37.6-56.9c8.2,1,14.1-11.6,13.4-18.8
c3.7-7.1-18.5-23.1-20.6-10.8C407.3,49,393.6,70.1,381.3,90c-10.3,9.5-14.9,33.1-29.6,38.5c-15.1,5.4-34.4,7.8-52.9,7.6
c-2.2,0.4-12.2-1.6-9,3.1c5.2,20.2,35.1,13.3,49.3,13.4c3.6,2.8-8.2,12.9-11,21.9c-22.9,14.2-49.1,48.2-71.9,54.7
c-2.5-28.2,31-60.3,24.2-72.2c-2-6.4-8.4-6.2-15.7-7.2c-3.6,0-2,6.8-5.8,4.5c-19.7-4.9-36.5,4.6-56.5,18.8
c-22.6-0.3-58.6,29.7-79.3,40.3C17,274.5-1,285.6,64.4,169.8c17-24.4,35.4-61.4,51.1-83.8c11.2-18.4,17.1-36.4,23.3-45.3
c-1-1.4,2.3-7.7,3.1-8.1c0.2-2.6,2.3-8.3-0.9-9.4c3.9-8.6-9.6-22.7-18.4-16.1c-5,36.3-36.9,78.4-56.9,112.5
C45.2,164.8-43.4,265.9,42,281.8c50.3-13.3,80.8-43.1,127.7-69.9c0.4-1.1,1-1.8,1.9-2.1c-12.8,43.1,38,36,64.9,5.3
c3.1,53.5,44.1,29.6,71.1,2.6c-4.9,13-19.5,50-10.6,58.3l0.4,0.9c-2.5,4.5,4,8.7,5.8,11.2c1.2-1.1,5.4,0.8,8.1,1.3
c1.5,0.2,2.4-3.8,1.3-4.5C310.6,278.5,313.7,267.8,314.5,262.5z M249,172.4c-17.3,17.2-38.4,40.1-53.8,48.9
c-27.4,17,35.4-51,40.8-45.3c3.6-4,7.2-3.4,11.7-5.8c0.4,0,0.9,0.4,1.3,0.9V172.4z"/>
<path fill="#fff" d="M691.4,123.1c-12.7-10.3-32.8-4.1-47.5-3.1c-3.3,0.5-2-2.3-0.9-4c13-19.1,24.6-39.6,37.6-56.9
c8.2,1,14.1-11.6,13.4-18.8c3.7-7.1-18.5-23.1-20.6-10.8C661,49,647.2,70.1,634.9,90c-10.3,9.5-14.9,33.1-29.6,38.5
c-13.6,5.5-30.5,6.1-47.5,8c-23.1-22.4-80.3,26.2-88.4,47.9c-26.1,11.3-67.4,69.8-94.9,53c-0.1-1.2-0.6-2.4-0.9-2.7
c-1.2-6.7,1.8-25.6,10.3-19.3c1.7,0.8,7.2,1.3,8.5,1.8c16.6,0.8,42.7-20.8,51.1-34.1v-0.4l3.1-3.1c-0.2-1.8,2.8-3.8,3.1-5.4
c7.4-56.5-64.5-21.6-86.5,21.5c-0.4,0-0.4,0.4-0.4,0.9l-0.4,0.4c0,0.4,0,0.4-0.4,0.9c-24,34.2,15.5,77.7,52,52
c1-0.2,1.8-1.8,3.1-1.3c3.6-2.9,11.6-4.3,12.5-8.1c16-8.4,28.8-25.9,45-38c11.7,18.3,46.6,3.9,60.3,11.1
c-21.6,13.8-52.3,28-69.9,17.5c-0.2-1.5-6.2,0.8-6.7,1.8c-3.1,15.9,20.5,24.2,34.1,18.8c21.8-1.8,91.6-27.7,49.8-53.8
c-9.6-6.1-24.3-3.8-37.6-5.4c-4.4,1.9-19.9,0.7-18.8-0.4c10.9-15.9,50.3-49.2,70.9-40.2c-10.4,21.3-8.6,24.4,10.1,1.3
c4.5,2,32-3.6,26.6,2.1c-15,25.4-54.1,92.9-42.6,120.6l0.4,0.9c-2.5,4.5,4,8.7,5.8,11.2c1.2-1.1,5.4,0.8,8.1,1.3
c1.5,0.2,2.4-3.8,1.3-4.5c1.5-50,31.9-96.5,57.4-135.8c9.5-8.8,48.2-15.5,61-15.2C691.9,135.8,699.9,126.3,691.4,123.1z
M409.5,176.9c11.6-10.1,19.1-14.9,23.8-14.8c-2.6,9.4-37.3,43.4-47.1,39C390.2,194.9,398.3,186.8,409.5,176.9z"/>
</g>
</svg>
