<svg  xmlns="http://www.w3.org/2000/svg" x="0px" y="0px" width="700px"	height="300px" viewBox="0 0 700 300">
<path  opacity="0.8" fill="#578094" d="M428,95.9c19.1-6.1,4.4-17.2-8.2-12.9c-13,0.6-62.9,59.8-69.4,70.2c-21.2,33.9-4.6-11.8,3.9-31.4
c3.6-7,6.5-18,10.6-23.5c-15.3-21.7-18.5-3.4-25.1,11c-4.7,11.7-9.3,24.4-13.1,35.2c-19,4.7-76.8,76.9-88.5,42.9
c1.4-32.1,27,13,67.1-49.4c8.9-12.3-8.2-26.6-17.6-25.5c-15.9,0-32,10.6-48.6,31.5c-2.4-3.5-10.2-6-7.4-11.1
C311.5-16.6,129-16.5,60.1,74.7c-18.7,13.1-22,44.1-2.4,42.4c11.3-26.3,39.7-52.7,67.4-63.2c-18,32.2-41.3,68.8-56.1,104.3
c-9.3,9.8-28.3,18.3-39.2,27.5c-38.7,22.1-32.3,74.9,10.2,74.5c29.7,0.2,84-28.9,109.4-45.5c20.1-14.8,41.4-31.8,69-64.3
c27.1-6.4,0.1,14.9,3.5,32.2c12.8,56,73,13.9,96.2-12.7c-4.6,25.2-23.5,53.4,3.4,61.7c16.8-16.7,26-53.2,43.1-66.7
C377.6,143.7,416.6,102.1,428,95.9z M270,140.2c46.4-37.3-3.7,23.1-20,22C251.1,156.1,260.6,149.2,270,140.2z M58.6,235.1
C0,259.3,18.9,217,54.3,196.3C52,216.7,53.1,217,58.6,235.1z M86.4,226.9c-24.4,14.2-15.3-9.2-11-27.8c8.7-41.4,82.3-45.1,113.7-51
C175.4,179.8,120.8,207.4,86.4,226.9z M207.6,130c-65.3-12.4-139.4,52.4-92.5-16.1c11-19.2,18.4-31.8,22.4-37.7
c6.4-10.6,21.2-30.3,19.2-38.8C244.7,2.1,258.5,75.2,207.6,130z"/>
<path  opacity="0.8" fill="#578094" d="M514.7,127.6c12.9-20.9,21.9-44.2,35.7-64.7c5.3-14,16.3,6,16.9-22.4c-12.5-27.4-22.2-5.1-40.8,27.8
c-11.3,20.4-24.9,44-34.1,65.5c-5.1,14.7-44.1,35.7-56.9,49c-47.2,38-41.2-14.8-27.8-9c28.4,11.3,89.6-53.3,40-61.6
c-18.6-1-43.7,19.7-60.4,48.6c-19.5,28.6,17.6,65.5,46.7,43.1c60.4-34.7,35.8-47,23.1,21.6c6.3,14.9,27.2,8.4,23.9-7.5
c-0.1-1.5-0.1-4.1,0.4-5.5c2.3-2.6-3-5.7-1.2-8.2c0.5-0.4,5-14.3,5.5-15.3C494.5,165.9,504.6,150,514.7,127.6z M430,140.2
c47.4-38.7-5.7,26.3-20.4,21.2C413.1,155.9,420.1,148.8,430,140.2z"/>
<path  opacity="0.8" fill="#578094" d="M696.2,134.7c-12-50.9-59.7-0.7-74.1,16.1c9.6-21.5,18.6-36,27.1-55.3c-1.5-5-10.6-14.5-14.9-9.8
c-5.6,12.1-15.6,34.6-22.7,49.4c-4.2,8.2-22,11.3-29.4,14.5c5-14.8-5.4-30.6-20-26.3c-36-10.9-82.7,72.4-31,79.2
c18.4-1.1,36.9-26.9,45.9-41.6c35.5-10.9,21.9-4.8,12.2,20.8c-14.4,34.8-32.1,68.4-40.4,98.4c10.1,40.3,45.3-60.9,53.3-69.8
c8.5-18.1,15.5,1.7,29.4-0.8C661.8,208.4,696.1,164.3,696.2,134.7z M528,186.9c-4.9-7.8,5.1-18.5,10.2-27.5c1.2-1.2,5.5-5.5,6.7-8.2
C562.3,162.4,534.6,180,528,186.9z M564.5,138.6c-1.2,2.7-4.3,8.6-5.5,10.6C551.7,145.1,564.4,130.4,564.5,138.6z M679.8,137.1
c2.6,17.2-63.3,87.4-62,50.2C621.9,178.9,687.3,98.4,679.8,137.1z"/>
</svg>
