<svg xmlns="http://www.w3.org/2000/svg" x="0px" y="0px" width="700px" height="300px" viewBox="0 0 700 300">
<path opacity="1" fill="#fff" d="M109.7,202.5c9-0.4,11.3,10.2,3.6,8.4c-1.6-0.1-4.6,0-6.2,0.3c-15,2.3-44.8,2.5-62,4.2
l-0.3-0.3l-2.8,0.6l-0.3,0.3c-11.4,0.1-22.1,5.2-33.4,9c-4.6,0-3.2-5.1-7-7c-0.3,0-0.6-0.6-0.6-1.7l0.3-0.3c0-0.3,0-0.6,0.3-0.6
c6.7-7.7,19-10.5,31.4-12.1c4.7-0.8,20.8-30.5,25-37.3c13.6-21.5,46.3-78.5,58.7-93.5c3.4,0.8,11.5,6.2,11.5,9.3
c-2.1,4.4-6.7,10.8-9.3,14.9c-8.5,12.8-19.9,27.4-24.7,39.9c-0.8,0.9-1.7,1.8-2,3.1c-0.1,0.4-0.6,0.9-0.8,1.1
c-7.6,10.6-21,37.9-26.4,46c-0.7-0.6-8.2,12.9-7,13.2c0,0,23,0,23,0C96.1,200.2,100.3,201.6,109.7,202.5z M64.3,81.8
c-4.6,2.1-18.6,8.9-20.2,8.7C41,91,33,81.6,33.4,79c0.9-1.7,3.1-2.7,4.5-3.6c37.5-19,128-32.7,157.5,7.3c1.9,2.3-2.2,6.5-4.5,7.3
c-0.2-0.4-1.3-0.3-2-0.3c-5.5-5.2-0.9-12.7-12.1-15.2C137.6,63.9,106.7,69.3,64.3,81.8z"/>
<path opacity="1" fill="#fff" d="M153.5,180.6c0.3,0,0.6,0,0.8-0.3c5.1-0.1,4.6,3.1,3.4,6.5c-0.3,0.6-0.6,0.8-1.1,0.6
c-0.8-0.3-1.1-0.3-1.4,0.6c-1.3,1.3-4.8-1.1-6.5-0.8c-7.5-0.8-11.2-5.8-12.4-14.6c-1.2-5.3,3.2-16.3,3.4-20.2
c-2.8,1.1-8.4,3.9-8.1,4.5c-16.7,11.6-17.2,10.9-26.7,26.9c-2.5,3.6-6.9,15.2-12.4,14.6c-2.1,0.1-7.3-2.2-7.3-5.6
c3.9-13.2,15.5-27.8,21.6-42.4c3.7-6.2,8.8-17,12.6-21.9c1.6-3,3.4-7,7.6-6.2c1.1,0.4,3,1,4.2,1.1c0.3,0.8,2.5,2.8,2.8,3.9
c0.8,0.8,0.8,1.4,0,2c-3.3,3.8-9.6,15.3-12.9,22.5h0.6c2.6-2.6,14.5-12.4,18.2-12.4c27.5,1.7,0.9,29.9,9.5,40.4
c0,0.3,0.3,0.3,0.6,0.3C150.8,179,152.5,180.8,153.5,180.6z"/>
<path opacity="1" fill="#fff" d="M165.3,123c9.6-0.1,16.6-1.8,23.9-4.2c1.9-0.6,3.1-0.1,4.5-2.2c4.8-8.1,9.3-15.4,14-21.9
c1.3-2.1,2.4-5.2,4.5-7c0.8-1.1,2.5-4.8,3.6-5.9c6.1-8.3,10.2-17,16-25c1.1-7.9,15.3,2.4,12.9,6.7c0.8,3.4-2.3,8.4-4.5,10.4
c-0.2,1.5-2.6,1.5-3.9,1.4c-8.2,10.8-15.5,23.7-23.6,35.6c-0.2,0.9-2,2.1,0,2.5c0.3,0.3,0.3,0.3,0.6,0c8.8-0.6,20.6-4.1,28.6,1.1
c6.2,2.6,3,8.3-3.1,7.6c-9.1-1-25.7,4.9-35.4,7c-1.4,0.3-2.2,1.1-2.5,2.2c0,0.3,0,0.3-0.3,0.3c-13.5,19.2-37.4,60.3-35.9,85.1
c0.7,0.5,0.1,3-0.8,2.8c-0.3-0.3-0.6-0.3-0.8-0.3c-2,0-3.4-1.4-4.2-0.6c-1.1-1.5-5.2-4.2-3.6-7l-0.3-0.6c-3.1,2.7-0.7-13.9-0.6-15.2
c2.1-7.9,6.4-20.3,9.8-28.1c4.8-8.7,13.1-27,17.4-32.3c2.9-3.1-4.8-1.1-8.1-1.1c-8-0.3-20.7,1.4-23-9c-2.3-3.2,6.4-1.8,7.6-1.7
C161.1,124,162.9,123.1,165.3,123z"/>
<path opacity="1" fill="#fff" d="M243.9,155.9c0-0.3,0-0.6-0.3-0.8c-0.8-4.9,2.1-13.4-7-7.3c-5.5,5-11.8,12.4-16.6,18
c-0.3,0-0.3,0.3-0.6,0.3c-7.5,9.4-11.4,13.8-17.7,24.1c-0.8,0.8,2,2.8-2.2,6.5h-0.8c-3.1-0.5-7.5-0.7-7.6-4.8
c-2.6-9.2,3.2-18.1,10.4-33.4c2.2-4.8,6.4-10.9,7.9-15.7l3.9-6.5c2.7-3.5,4.4-11.2,9.8-11.2c0.8,0.2,4-0.4,4.5,0.6
c2.9,2,4.3,0.8,5.6,5.3c0.3,0.3,0.3,0.8,0,0.8c-0.8,0.8-1.7,1.4-2,1.1c-2.1,0-8.8,11.1-9,12.9c-0.7,0.7-2.5,2.3-2,3.4
c-0.6,1.4-2.1,4.3-3.1,5.6c0,0.3,0,0.6,0.3,0.8h0.6c6.6-7.6,14.1-15.9,23-19.6c7.5-0.9,14.3,4.9,12.9,12.6c-0.6,5.1-0.5,8-5.6,10.4
c-0.3,0.6-0.8,0.6-1.1,0.3C245.4,161,243.3,156.8,243.9,155.9z"/>
<path opacity="1" fill="#fff" d="M419.6,82.3c-0.8-3.9-2.2-6.2-4.2-6.5c-1.2-1.2-4.4-3.4-6.2-2c-0.3-0.2-8.4,13.9-11.2,18.8
c-4,5.6-8.3,13.5-12.1,18.8c-4.9,7.1-17.5,34-22.5,30.9c-14.7-12.9-28.2-11.9-39.9,4c-4.7,2-18,8.1-23.8,9.5
c3.6-7-3.6-23.9-12.1-18.2c-18-8.8-40.9,22.3-41.5,37.6c0.9,13.3,13.1,22.7,24.4,16.3c8.2-1.9,21.3-20.6,25.5-27.5
c6.3-1.2,12.4-3.1,17.9-5.5c-4.9,8.7-5.9,10.4-6.1,20.9c2.5,5.6,9.9,15.6,16.8,15.2c6.1,0.5,17.1-6.7,25.8-15.7
c0.6,0.1,1.9-0.4,1.1,0.8c-0.3,1.5-1.9,7.4-1.1,8.7c0.8,2.5,4.8,9.8,6.7,10.1c1.5,3.2,9.2,3.8,9-0.3c-0.2-3.8,4.9-7.7-2.2-7.6
c-6.1-1.2,3.8-16.1,4.2-19.9c-0.1-0.3,5.3-10.1,7.3-13.5c8.8-23.7,37.5-45.1,44.4-73.3C420,83.5,419.5,82.6,419.6,82.3z M261,182.5
c-2.3,0-0.3-6.1,0.3-7.9c2.3-5.5,7.5-11.9,11.8-17.7c1.7,2.5,3.6,4.2,5.9,5.3C273.1,171.6,266.9,178.3,261,182.5z M287.1,148
c-0.8,2-3.1,6.2-3.9,7.6c-1.4-1.1-1.7-3.1-1.4-6.2l4.5-3.4C287.5,146,287,147.3,287.1,148z M357.6,151.9c-4,4.3-10.2,11-14.3,15.2
c-6.1,5.7-31.2,26.7-22.2,7.9c5.3-10.8,20-35.6,34.2-29.5C359.2,147.3,362,148.3,357.6,151.9z"/>
<path opacity="1" fill="#fff" d="M430.8,170.2c0.8,4.1-2.6,10.7,2,12.4c3.7,0.2,4.6,7.6,0.3,7c-6.9,0-9.5-4-12.1-10.7
c-1-2.7-1.9-6.9-1.4-9.8l-0.3-0.3c-6.3,8.3-20.2,23.7-29.5,22.7c-22.7-3.8-3.1-33,5.1-44.9c4.1-4.6,8.3-11.4,13.5-13.2
c4.6-0.3,10.6,3.9,10.9,7.9c0,0.8-0.3,1.1-1.1,1.1c-6.9,2.6-10.5,10.8-15.4,16v0.3c-3.3,6.1-8.6,12.1-10.1,18.8h0.8
c8.6-7.7,29.1-28.6,35.1-39c3.6-2.5,12.6,3.8,9.8,9.3C434.5,157,433.1,162.3,430.8,170.2z"/>
<path opacity="1" fill="#fff" d="M584.7,115.5c-8-6.4-20.6-2.6-29.8-2c-0.3,0.3-0.3,0.3-0.6,0c-1.9-0.4-0.2-1.6,0-2.5
c8.1-11.9,15.4-24.8,23.6-35.6c1.4,0.1,3.7,0.1,3.9-1.4c2.2-2,5.3-7,4.5-10.4c2.3-4.4-11.6-14.5-12.9-6.7c-5.8,8-9.9,16.7-16,25
c-1.1,1.1-2.8,4.8-3.6,5.9c-2.1,1.8-3.2,5-4.5,7c-4.8,6.5-9.3,13.8-14,21.9c-1.4,2.2-2.6,1.7-4.5,2.2c-7.3,2.5-14.2,4.1-23.9,4.2
c-2.9,0.2-5.7,1.3-9.3,0.6c0,0-3.9,0-3.9,0c-5.4-0.2,1.7,9.1,4.2,9c4.8,2.6,12,1.7,17.1,2c3.4,0,11-2,8.1,1.1
c-3.6,4.1-10.1,18.5-14.7,26.9c-20.8,12.2-42.9,26.2-57.4,20c-9.2-3.6,9.4-26.7,15.7-31.7c28.1-23.2,22-10.4,3.1,8.7
c-4.5,5.1-2.7,9.8,2.5,13.2c2,1.6,6.1-5.4,7.6-6.5c10.4-10.4,15.4-18.8,15.4-25.3c0.5-25.9-22.4-17.5-37.3,0.8
c-12.7,15.2-19.3,23.6-18.5,37.6c2.2,11.2,7.9,17.1,16.8,17.7c16,2,29.3-7.3,44.6-17.2c-2.8,8-5.7,16-5.9,24.5
c0,1.5-0.7,8.9,1.4,6.7l0.3,0.6c-1.6,2.8,2.5,5.5,3.6,7c0.8-0.8,2.2,0.6,4.2,0.6c0.3,0,0.6,0,0.8,0.3c0.9,0.1,1.5-2.4,0.8-2.8
c-1.4-24.8,22.4-65.8,35.9-85.1c0.3,0,0.3,0,0.3-0.3c0.3-1.1,1.1-2,2.5-2.2c9.7-2.1,26.2-8,35.4-7C585,123.3,590,117.5,584.7,115.5z"/>
<path opacity="1" fill="#fff" d="M576,107c0,3.3,13.5,6.9,11.5,0.6c2.6-6.4-5.3-11.8-9.8-8.7h-2c-0.6,0.4-0.6,1.3-0.6,2
C573.9,103.9,575.5,104.2,576,107z"/>
<path opacity="1" fill="#fff" d="M695,180.3c-1.2,1.2-3.2-1.4-4.2-0.3c-0.3,0-0.6,0-0.6-0.3c-8.7-10.5,18-38.8-9.5-40.4
c-3.8,0-15.6,9.7-18.2,12.4h-0.6c3.3-7.2,9.6-18.6,12.9-22.5c0.8-0.6,0.8-1.1,0-2c-0.3-1.1-2.5-3.1-2.8-3.9
c-1.2-0.2-3.1-0.7-4.2-1.1c-4.2-0.8-6,3.2-7.6,6.2c-3.6,4.5-7.8,13.7-11.4,19.6c-5.2,2.3-15,6.6-20.1,7.9c3.6-7-3.6-23.9-12.1-18.2
c-16.3-7.5-32.7,14.1-39,27.5c-6.6,5.4-20,16.6-21,16.8c0,3.1-1.4,2.2-4.5,3.4c-10.3,8.1-4.2-3.9-0.3-12.9
c5.6-11.2,7.6-13.6,12.9-21.1c0.6-1.3,0.4-2,2.2-4.8c1.1-1.4,1.4-2.5,0.6-3.6c-2.1-4.1-6.6-9.1-11.8-6.7
c-7.1,11.8-21.1,33.4-21.6,42.9c-2.2,12,9.2,21.7,20.8,18.5c0.3,0.3,0.6,0.3,1.1,0.3c7.8-3.7,12.3-6.4,21.2-14.8
c4.2,9.4,13.6,12.9,22.3,8.3c8.2-1.9,21.3-20.6,25.5-27.5c6.6-1.3,12.9-3.2,18.7-5.8c-6.4,12.8-14.7,23.2-17.8,34.5
c0,3.5,5.3,5.7,7.3,5.6c5.4,0.6,9.9-11,12.4-14.6c9.4-16,10-15.4,26.7-26.9c-0.3-0.6,5.3-3.4,8.1-4.5c-0.2,3.9-4.6,14.9-3.4,20.2
c1.2,8.8,4.9,13.8,12.3,14.6c1.7-0.3,5.2,2.2,6.5,0.8c0.3-0.8,0.6-0.8,1.4-0.6c0.6,0.3,0.8,0,1.1-0.6
C699.6,183.4,700.1,180.2,695,180.3z M590,182.5c-2.3,0-0.3-6.1,0.3-7.9c2.3-5.5,7.5-11.9,11.8-17.7c1.7,2.5,3.6,4.2,5.9,5.3
C602.1,171.6,595.9,178.3,590,182.5z M616.1,148c-0.8,2-3.1,6.2-3.9,7.6c-1.4-1.1-1.7-3.1-1.4-6.2l4.5-3.4
C616.5,146,616,147.3,616.1,148z"/>
</svg>
