<svg xmlns="http://www.w3.org/2000/svg" x="0px" y="0px" width="500px" height="280px" viewBox="0 0 500 280">
<g class="the">
<path data-name="T" d="M56.67,70.25c0-8-4.63-14.52-14.86-14.52H40.57c-.28,0-.42.07-.42.28v47.14c0,.2.14.28.42.28h6.22c.13,0,.13.61,0,.61H25c-.14,0-.14-.61,0-.61h6.22c.28,0,.41-.07.41-.28V56c0-.21-.14-.28-.41-.28H29.93c-10.23,0-14.65,6.5-14.65,14.52,0,.14-.28.14-.28,0V54.91a.22.22,0,0,1,.21-.21h41.6c.14,0,.14.14.14.21V70.25c0,.14-.28.14-.28,0" fill="#fff"/>
<path data-name="H" d="M78.79,104c-.14,0-.14-.61,0-.61h3.8c.28,0,.49-.07.49-.28V81c0-4.91-3.09-6.41-5.44-6.41-4.49,0-6.59,2-7.56,5.17v23.43c0,.21.14.28.42.28h3.8c.14,0,.14.61,0,.61H59.65c-.14,0-.14-.61,0-.61h3.8c.28,0,.41-.07.41-.28V53.46c0-.21-.14-.28-.41-.28h-3.8c-.14,0-.14-.78,0-.78H69.88c.14,0,.2.57.2.71V79a7.85,7.85,0,0,1,7.81-5.39c7,0,11.34,4.21,11.34,11.54v18c0,.21.14.28.48.28h3.8c.14,0,.14.61,0,.61Z" fill="#fff"/>
<path data-name="E-3" d="M123.17,87.25H103.4V89c0,8.29.76,11.13,2.9,13.13a6.91,6.91,0,0,0,4.77,1.59,13.34,13.34,0,0,0,11.33-6.43c.07-.07.28.35.21.49a13.78,13.78,0,0,1-11.54,6.57c-7.95,0-14.17-6.91-14.17-15.34s6.22-15.34,14.17-15.34c8.64,0,12.3,8.22,12.3,13.41,0,.13-.07.19-.2.19M115,75.91a5.38,5.38,0,0,0-3.94-1.42,7.41,7.41,0,0,0-4.77,1.42c-1.93,1.61-2.7,4.88-2.83,10.26h13.89c-.14-5.38-.76-8.66-2.35-10.26" fill="#fff"/>
</g>
</svg>
