<svg xmlns="http://www.w3.org/2000/svg" x="0px" y="0px"	 width="50px" height="50px" viewBox="0 0 50 50">
<path fill="#FFFFFF" d="M25,8.55c-9.25,0-16.75,7.5-16.75,16.75S15.75,42.05,25,42.05s16.75-7.5,16.75-16.75S34.25,8.55,25,8.55z
M26.68,38.58v-1.56c0-0.93-0.75-1.68-1.68-1.68s-1.68,0.75-1.68,1.68v1.56c-6.06-0.77-10.84-5.54-11.61-11.61h1.56
c0.93,0,1.68-0.75,1.68-1.68c0-0.93-0.75-1.68-1.68-1.68h-1.56c0.77-6.06,5.54-10.84,11.61-11.61v1.56c0,0.93,0.75,1.68,1.68,1.68
s1.68-0.75,1.68-1.68v-1.56c6.06,0.77,10.84,5.54,11.61,11.61h-1.56c-0.93,0-1.68,0.75-1.68,1.68c0,0.93,0.75,1.68,1.68,1.68h1.56
C37.52,33.04,32.74,37.81,26.68,38.58z M30.26,17.84l-8.38,3.55c-0.39,0.17-0.7,0.48-0.87,0.87l-3.55,8.38
c-0.27,0.63-0.13,1.36,0.35,1.84c0.31,0.32,0.73,0.5,1.17,0.5c0.23,0,0.46-0.05,0.67-0.15l8.38-3.55c0.39-0.17,0.7-0.48,0.87-0.87
l3.55-8.38c0.36-0.85-0.04-1.83-0.89-2.19C31.15,17.67,30.68,17.67,30.26,17.84z M26.09,26.39l-3.82,1.68l1.68-3.82l3.82-1.68
L26.09,26.39z"/>
</svg>
