<svg xmlns="http://www.w3.org/2000/svg"  x="0px" y="0px" width="80px" height="80px" viewBox="0 0 80 80">
<linearGradient id="SVGID_1_" gradientUnits="userSpaceOnUse" x1="60" y1="20" x2="20" y2="60">
<stop  offset="0" style="stop-color:#FFFFFF;stop-opacity:0"/>
<stop  offset="0.7" style="stop-color:#FFFFFF;stop-opacity:0.5"/>
<stop  offset="1" style="stop-color:#FFFFFF"/>
</linearGradient>
<path fill="url(#SVGID_1_)" d="M40.18,78.81c-3.28,0.58-20.09-7.92-23.57-8.69c-2.9-1.16-5.22-3.48-6.38-6.38
C8.68,57.55-1.36,42.29,2.31,35.72c3.28-5.41,7.15-23.38,14.3-25.31C22.79,8.68,38.24-1.37,44.62,2.3
C50.22,5.58,68,9.45,69.93,16.6c1.55,6.18,11.59,21.44,7.92,28.01c-3.28,5.6-7.15,23.38-14.3,25.31
C60.27,70.88,43.46,79.19,40.18,78.81z M40.18,3.85c-2.7-0.58-19.71,7.73-22.41,8.31c-2.51,0.97-4.25,2.9-5.41,5.41
C11,22.78,1.34,38.23,4.63,43.64c2.9,4.64,6.76,22.41,12.94,23.96c5.22,1.55,20.67,11.21,26.27,7.92
c4.64-2.9,22.41-6.76,23.96-12.94c1.35-5.22,11.01-20.67,7.73-26.08c-2.9-4.64-6.76-22.41-12.94-23.96
C59.69,11.57,42.88,3.46,40.18,3.85z M39.98,71.85C26.07,70.3,16.41,56.2,11.58,44.03C3.28,23.36,26.46,4.23,45.97,8.1
c12.94,2.7,23.96,16.04,27.05,28.98c0.97,11.4-10.43,21.64-16.04,26.47l0,0C51.96,68.37,46.74,72.04,39.98,71.85z M40.75,10.61
C18.73,10.8,5.21,33.6,18.34,51.37c7.34,13.72,24.15,24.92,36.9,10.24l0,0c5.22-4.44,15.84-14.1,14.88-24.15
C66.84,24.32,54.86,10.22,40.75,10.61z M42.11,62.38c-10.24,0-29.56-15.26-26.08-26.66c4.25-6.38,7.34-12.94,11.21-19.51
c13.91-11.4,21.83,9.85,32.46,14.68C79.2,38.04,55.63,63.74,42.11,62.38z M34.96,15.44c-6.57-0.39-8.69,5.99-10.63,11.01
c-1.74,3.48-5.02,6.18-6.18,9.85c-2.51,10.05,14.49,23.96,24.34,23.96c9.27,0.58,29.37-15.46,20.09-25.5
C48.87,30.31,47.52,16.02,34.96,15.44z"/>
<path fill="#FFFFFF" d="M54.7,35.6h-8.6V27c0-2.3-1.9-4.2-4.2-4.2s-4.2,1.9-4.2,4.2v8.6h-8.6c-2.3,0-4.2,1.9-4.2,4.2
s1.9,4.2,4.2,4.2h8.6v8.6c0,2.3,1.9,4.2,4.2,4.2s4.2-1.9,4.2-4.2V44h8.6c2.3,0,4.2-1.9,4.2-4.2S57.1,35.6,54.7,35.6z"/>
</svg>
