<svg  xmlns="http://www.w3.org/2000/svg"  x="0px" y="0px" width="250px" height="70px" viewBox="0 0 250 70" >
<polygon fill="#FFFFFF" points="97.87,36.57 77.85,11.39 65.17,11.39 65.17,52.85 77.85,52.85 77.85,27.66 97.72,52.85 110.7,52.85 
110.7,11.39 97.72,11.39 "/>
<polygon fill="#FFFFFF" points="28.25,11.39 8.85,52.85 24.65,52.85 34.35,14.98 44.37,52.85 60.01,52.85 40.61,11.39 "/>
<path fill="#FFFFFF" d="M140.74,53.79c8.45,0,15.8-1.88,20.18-4.69V28.44h-19.56v8.29h8.29v5.63c-2.03,1.1-4.85,1.41-7.35,1.41
c-6.88,0-12.83-4.07-12.83-11.89c0-7.67,5.63-11.89,13.61-11.89c6.57,0,11.58,2.66,12.83,3.13l3.75-8.76
c-5.01-2.82-11.73-4.22-18.31-4.22c-12.52,0-24.25,8.45-24.25,21.75C117.12,46.28,127.45,53.79,140.74,53.79z"/>
<polygon fill="#FFFFFF" points="219.76,11.39 239,52.85 223.35,52.85 213.5,14.98 203.64,52.85 187.84,52.85 207.24,11.39 "/>
<rect x="169.85" y="11.39" fill="#FFFFFF" width="12.99" height="41.46"/>
</svg>
